<?xml version="1.0" encoding="utf-8" standalone="no"?>
<!DOCTYPE svg PUBLIC "-//W3C//DTD SVG 1.1//EN"
  "http://www.w3.org/Graphics/SVG/1.1/DTD/svg11.dtd">
<svg xmlns:xlink="http://www.w3.org/1999/xlink" width="460.8pt" height="345.6pt" viewBox="0 0 460.8 345.6" xmlns="http://www.w3.org/2000/svg" version="1.1">
 <metadata>
  <rdf:RDF xmlns:dc="http://purl.org/dc/elements/1.1/" xmlns:cc="http://creativecommons.org/ns#" xmlns:rdf="http://www.w3.org/1999/02/22-rdf-syntax-ns#">
   <cc:Work>
    <dc:type rdf:resource="http://purl.org/dc/dcmitype/StillImage"/>
    <dc:date>2024-04-17T21:35:15.583704</dc:date>
    <dc:format>image/svg+xml</dc:format>
    <dc:creator>
     <cc:Agent>
      <dc:title>Matplotlib v3.8.0, https://matplotlib.org/</dc:title>
     </cc:Agent>
    </dc:creator>
   </cc:Work>
  </rdf:RDF>
 </metadata>
 <defs>
  <style type="text/css">*{stroke-linejoin: round; stroke-linecap: butt}</style>
 </defs>
 <g id="figure_1">
  <g id="patch_1">
   <path d="M 0 345.6 
L 460.8 345.6 
L 460.8 0 
L 0 0 
z
" style="fill: #ffffff"/>
  </g>
  <g id="axes_1">
   <g id="patch_2">
    <path d="M 78.59 79.595 
L 450 79.595 
L 450 25.44 
L 78.59 25.44 
z
" style="fill: #ffffff"/>
   </g>
   <g id="matplotlib.axis_1">
    <g id="xtick_1">
     <g id="line2d_1">
      <defs>
       <path id="mb6d5673dff" d="M 0 0 
L 0 3.5 
" style="stroke: #000000; stroke-width: 0.8"/>
      </defs>
      <g>
       <use xlink:href="#mb6d5673dff" x="83.845002" y="79.595" style="stroke: #000000; stroke-width: 0.8"/>
      </g>
     </g>
    </g>
    <g id="xtick_2">
     <g id="line2d_2">
      <g>
       <use xlink:href="#mb6d5673dff" x="145.718416" y="79.595" style="stroke: #000000; stroke-width: 0.8"/>
      </g>
     </g>
    </g>
    <g id="xtick_3">
     <g id="line2d_3">
      <g>
       <use xlink:href="#mb6d5673dff" x="207.59183" y="79.595" style="stroke: #000000; stroke-width: 0.8"/>
      </g>
     </g>
    </g>
    <g id="xtick_4">
     <g id="line2d_4">
      <g>
       <use xlink:href="#mb6d5673dff" x="269.465244" y="79.595" style="stroke: #000000; stroke-width: 0.8"/>
      </g>
     </g>
    </g>
    <g id="xtick_5">
     <g id="line2d_5">
      <g>
       <use xlink:href="#mb6d5673dff" x="331.508174" y="79.595" style="stroke: #000000; stroke-width: 0.8"/>
      </g>
     </g>
    </g>
    <g id="xtick_6">
     <g id="line2d_6">
      <g>
       <use xlink:href="#mb6d5673dff" x="393.381588" y="79.595" style="stroke: #000000; stroke-width: 0.8"/>
      </g>
     </g>
    </g>
   </g>
   <g id="matplotlib.axis_2">
    <g id="ytick_1">
     <g id="line2d_7">
      <defs>
       <path id="md27a8b0fe1" d="M 0 0 
L -3.5 0 
" style="stroke: #000000; stroke-width: 0.8"/>
      </defs>
      <g>
       <use xlink:href="#md27a8b0fe1" x="78.59" y="69.18186" style="stroke: #000000; stroke-width: 0.8"/>
      </g>
     </g>
     <g id="text_1">
      <!-- 0.5 -->
      <g transform="translate(55.686875 72.981079) scale(0.1 -0.1)">
       <defs>
        <path id="DejaVuSans-30" d="M 2034 4250 
Q 1547 4250 1301 3770 
Q 1056 3291 1056 2328 
Q 1056 1369 1301 889 
Q 1547 409 2034 409 
Q 2525 409 2770 889 
Q 3016 1369 3016 2328 
Q 3016 3291 2770 3770 
Q 2525 4250 2034 4250 
z
M 2034 4750 
Q 2819 4750 3233 4129 
Q 3647 3509 3647 2328 
Q 3647 1150 3233 529 
Q 2819 -91 2034 -91 
Q 1250 -91 836 529 
Q 422 1150 422 2328 
Q 422 3509 836 4129 
Q 1250 4750 2034 4750 
z
" transform="scale(0.015625)"/>
        <path id="DejaVuSans-2e" d="M 684 794 
L 1344 794 
L 1344 0 
L 684 0 
L 684 794 
z
" transform="scale(0.015625)"/>
        <path id="DejaVuSans-35" d="M 691 4666 
L 3169 4666 
L 3169 4134 
L 1269 4134 
L 1269 2991 
Q 1406 3038 1543 3061 
Q 1681 3084 1819 3084 
Q 2600 3084 3056 2656 
Q 3513 2228 3513 1497 
Q 3513 744 3044 326 
Q 2575 -91 1722 -91 
Q 1428 -91 1123 -41 
Q 819 9 494 109 
L 494 744 
Q 775 591 1075 516 
Q 1375 441 1709 441 
Q 2250 441 2565 725 
Q 2881 1009 2881 1497 
Q 2881 1984 2565 2268 
Q 2250 2553 1709 2553 
Q 1456 2553 1204 2497 
Q 953 2441 691 2322 
L 691 4666 
z
" transform="scale(0.015625)"/>
       </defs>
       <use xlink:href="#DejaVuSans-30"/>
       <use xlink:href="#DejaVuSans-2e" x="63.623047"/>
       <use xlink:href="#DejaVuSans-35" x="95.410156"/>
      </g>
     </g>
    </g>
    <g id="ytick_2">
     <g id="line2d_8">
      <g>
       <use xlink:href="#md27a8b0fe1" x="78.59" y="46.20413" style="stroke: #000000; stroke-width: 0.8"/>
      </g>
     </g>
     <g id="text_2">
      <!-- 1.0 -->
      <g transform="translate(55.686875 50.003348) scale(0.1 -0.1)">
       <defs>
        <path id="DejaVuSans-31" d="M 794 531 
L 1825 531 
L 1825 4091 
L 703 3866 
L 703 4441 
L 1819 4666 
L 2450 4666 
L 2450 531 
L 3481 531 
L 3481 0 
L 794 0 
L 794 531 
z
" transform="scale(0.015625)"/>
       </defs>
       <use xlink:href="#DejaVuSans-31"/>
       <use xlink:href="#DejaVuSans-2e" x="63.623047"/>
       <use xlink:href="#DejaVuSans-30" x="95.410156"/>
      </g>
     </g>
    </g>
    <g id="text_3">
     <!-- 1e7 -->
     <g transform="translate(78.59 22.44) scale(0.1 -0.1)">
      <defs>
       <path id="DejaVuSans-65" d="M 3597 1894 
L 3597 1613 
L 953 1613 
Q 991 1019 1311 708 
Q 1631 397 2203 397 
Q 2534 397 2845 478 
Q 3156 559 3463 722 
L 3463 178 
Q 3153 47 2828 -22 
Q 2503 -91 2169 -91 
Q 1331 -91 842 396 
Q 353 884 353 1716 
Q 353 2575 817 3079 
Q 1281 3584 2069 3584 
Q 2775 3584 3186 3129 
Q 3597 2675 3597 1894 
z
M 3022 2063 
Q 3016 2534 2758 2815 
Q 2500 3097 2075 3097 
Q 1594 3097 1305 2825 
Q 1016 2553 972 2059 
L 3022 2063 
z
" transform="scale(0.015625)"/>
       <path id="DejaVuSans-37" d="M 525 4666 
L 3525 4666 
L 3525 4397 
L 1831 0 
L 1172 0 
L 2766 4134 
L 525 4134 
L 525 4666 
z
" transform="scale(0.015625)"/>
      </defs>
      <use xlink:href="#DejaVuSans-31"/>
      <use xlink:href="#DejaVuSans-65" x="63.623047"/>
      <use xlink:href="#DejaVuSans-37" x="125.146484"/>
     </g>
    </g>
   </g>
   <g id="line2d_9">
    <path d="M 78.59 76.635817 
L 83.845002 76.717728 
L 89.100005 77.133409 
L 93.846458 74.11118 
L 99.101461 76.371831 
L 104.186947 76.047187 
L 109.441949 75.449408 
L 114.527435 68.060721 
L 119.782437 69.210711 
L 125.03744 73.78957 
L 130.122926 72.94904 
L 135.377928 68.534099 
L 140.463414 73.325314 
L 145.718416 68.094126 
L 150.973419 71.841518 
L 155.719872 69.02562 
L 160.974874 72.40286 
L 166.060361 72.964201 
L 171.315363 74.74838 
L 176.400849 70.306174 
L 181.655851 68.157765 
L 186.910853 72.991499 
L 191.99634 73.343508 
L 197.251342 68.740453 
L 202.336828 72.260278 
L 207.59183 69.775145 
L 212.846832 69.016553 
L 217.593286 64.471076 
L 222.848288 69.590041 
L 227.933775 68.066737 
L 233.188777 66.661823 
L 238.274263 64.058387 
L 243.529265 63.044862 
L 248.784267 68.39445 
L 253.869754 68.506691 
L 259.124756 65.630169 
L 264.210242 66.619347 
L 269.465244 65.111341 
L 274.720246 64.519591 
L 279.636216 68.273146 
L 284.891219 68.142752 
L 289.976705 62.265081 
L 295.231707 66.576957 
L 300.317193 67.851408 
L 305.572195 62.708142 
L 310.827198 67.41746 
L 315.912684 68.248868 
L 321.167686 56.678827 
L 326.253172 55.738206 
L 331.508174 67.478213 
L 336.763177 66.061066 
L 341.50963 58.818021 
L 346.764633 61.62186 
L 351.850119 62.771827 
L 357.105121 62.626139 
L 362.190607 61.995083 
L 367.445609 59.968107 
L 372.700612 64.043221 
L 377.786098 61.900952 
L 383.0411 50.394707 
L 388.126586 51.195807 
L 393.381588 57.619512 
L 398.636591 59.452303 
L 403.383044 52.716014 
L 408.638047 47.208633 
L 413.723533 46.538037 
L 418.978535 55.188987 
L 424.064021 50.173243 
L 429.319023 41.79843 
L 434.574026 48.586236 
L 439.659512 36.740149 
L 444.914514 27.901591 
L 450 35.377019 
" clip-path="url(#p28e04f12ef)" style="fill: none; stroke: #1f77b4; stroke-width: 1.5; stroke-linecap: square"/>
   </g>
   <g id="patch_3">
    <path d="M 78.59 79.595 
L 78.59 25.44 
" style="fill: none; stroke: #000000; stroke-width: 0.8; stroke-linejoin: miter; stroke-linecap: square"/>
   </g>
   <g id="patch_4">
    <path d="M 450 79.595 
L 450 25.44 
" style="fill: none; stroke: #000000; stroke-width: 0.8; stroke-linejoin: miter; stroke-linecap: square"/>
   </g>
   <g id="patch_5">
    <path d="M 78.59 79.595 
L 450 79.595 
" style="fill: none; stroke: #000000; stroke-width: 0.8; stroke-linejoin: miter; stroke-linecap: square"/>
   </g>
   <g id="patch_6">
    <path d="M 78.59 25.44 
L 450 25.44 
" style="fill: none; stroke: #000000; stroke-width: 0.8; stroke-linejoin: miter; stroke-linecap: square"/>
   </g>
   <g id="text_4">
    <!-- Sessions -->
    <g transform="translate(238.276562 19.44) scale(0.12 -0.12)">
     <defs>
      <path id="DejaVuSans-53" d="M 3425 4513 
L 3425 3897 
Q 3066 4069 2747 4153 
Q 2428 4238 2131 4238 
Q 1616 4238 1336 4038 
Q 1056 3838 1056 3469 
Q 1056 3159 1242 3001 
Q 1428 2844 1947 2747 
L 2328 2669 
Q 3034 2534 3370 2195 
Q 3706 1856 3706 1288 
Q 3706 609 3251 259 
Q 2797 -91 1919 -91 
Q 1588 -91 1214 -16 
Q 841 59 441 206 
L 441 856 
Q 825 641 1194 531 
Q 1563 422 1919 422 
Q 2459 422 2753 634 
Q 3047 847 3047 1241 
Q 3047 1584 2836 1778 
Q 2625 1972 2144 2069 
L 1759 2144 
Q 1053 2284 737 2584 
Q 422 2884 422 3419 
Q 422 4038 858 4394 
Q 1294 4750 2059 4750 
Q 2388 4750 2728 4690 
Q 3069 4631 3425 4513 
z
" transform="scale(0.015625)"/>
      <path id="DejaVuSans-73" d="M 2834 3397 
L 2834 2853 
Q 2591 2978 2328 3040 
Q 2066 3103 1784 3103 
Q 1356 3103 1142 2972 
Q 928 2841 928 2578 
Q 928 2378 1081 2264 
Q 1234 2150 1697 2047 
L 1894 2003 
Q 2506 1872 2764 1633 
Q 3022 1394 3022 966 
Q 3022 478 2636 193 
Q 2250 -91 1575 -91 
Q 1294 -91 989 -36 
Q 684 19 347 128 
L 347 722 
Q 666 556 975 473 
Q 1284 391 1588 391 
Q 1994 391 2212 530 
Q 2431 669 2431 922 
Q 2431 1156 2273 1281 
Q 2116 1406 1581 1522 
L 1381 1569 
Q 847 1681 609 1914 
Q 372 2147 372 2553 
Q 372 3047 722 3315 
Q 1072 3584 1716 3584 
Q 2034 3584 2315 3537 
Q 2597 3491 2834 3397 
z
" transform="scale(0.015625)"/>
      <path id="DejaVuSans-69" d="M 603 3500 
L 1178 3500 
L 1178 0 
L 603 0 
L 603 3500 
z
M 603 4863 
L 1178 4863 
L 1178 4134 
L 603 4134 
L 603 4863 
z
" transform="scale(0.015625)"/>
      <path id="DejaVuSans-6f" d="M 1959 3097 
Q 1497 3097 1228 2736 
Q 959 2375 959 1747 
Q 959 1119 1226 758 
Q 1494 397 1959 397 
Q 2419 397 2687 759 
Q 2956 1122 2956 1747 
Q 2956 2369 2687 2733 
Q 2419 3097 1959 3097 
z
M 1959 3584 
Q 2709 3584 3137 3096 
Q 3566 2609 3566 1747 
Q 3566 888 3137 398 
Q 2709 -91 1959 -91 
Q 1206 -91 779 398 
Q 353 888 353 1747 
Q 353 2609 779 3096 
Q 1206 3584 1959 3584 
z
" transform="scale(0.015625)"/>
      <path id="DejaVuSans-6e" d="M 3513 2113 
L 3513 0 
L 2938 0 
L 2938 2094 
Q 2938 2591 2744 2837 
Q 2550 3084 2163 3084 
Q 1697 3084 1428 2787 
Q 1159 2491 1159 1978 
L 1159 0 
L 581 0 
L 581 3500 
L 1159 3500 
L 1159 2956 
Q 1366 3272 1645 3428 
Q 1925 3584 2291 3584 
Q 2894 3584 3203 3211 
Q 3513 2838 3513 2113 
z
" transform="scale(0.015625)"/>
     </defs>
     <use xlink:href="#DejaVuSans-53"/>
     <use xlink:href="#DejaVuSans-65" x="63.476562"/>
     <use xlink:href="#DejaVuSans-73" x="125"/>
     <use xlink:href="#DejaVuSans-73" x="177.099609"/>
     <use xlink:href="#DejaVuSans-69" x="229.199219"/>
     <use xlink:href="#DejaVuSans-6f" x="256.982422"/>
     <use xlink:href="#DejaVuSans-6e" x="318.164062"/>
     <use xlink:href="#DejaVuSans-73" x="381.542969"/>
    </g>
   </g>
  </g>
  <g id="axes_2">
   <g id="patch_7">
    <path d="M 78.59 158.97 
L 450 158.97 
L 450 104.815 
L 78.59 104.815 
z
" style="fill: #ffffff"/>
   </g>
   <g id="matplotlib.axis_3">
    <g id="xtick_7">
     <g id="line2d_10">
      <g>
       <use xlink:href="#mb6d5673dff" x="83.845002" y="158.97" style="stroke: #000000; stroke-width: 0.8"/>
      </g>
     </g>
    </g>
    <g id="xtick_8">
     <g id="line2d_11">
      <g>
       <use xlink:href="#mb6d5673dff" x="145.718416" y="158.97" style="stroke: #000000; stroke-width: 0.8"/>
      </g>
     </g>
    </g>
    <g id="xtick_9">
     <g id="line2d_12">
      <g>
       <use xlink:href="#mb6d5673dff" x="207.59183" y="158.97" style="stroke: #000000; stroke-width: 0.8"/>
      </g>
     </g>
    </g>
    <g id="xtick_10">
     <g id="line2d_13">
      <g>
       <use xlink:href="#mb6d5673dff" x="269.465244" y="158.97" style="stroke: #000000; stroke-width: 0.8"/>
      </g>
     </g>
    </g>
    <g id="xtick_11">
     <g id="line2d_14">
      <g>
       <use xlink:href="#mb6d5673dff" x="331.508174" y="158.97" style="stroke: #000000; stroke-width: 0.8"/>
      </g>
     </g>
    </g>
    <g id="xtick_12">
     <g id="line2d_15">
      <g>
       <use xlink:href="#mb6d5673dff" x="393.381588" y="158.97" style="stroke: #000000; stroke-width: 0.8"/>
      </g>
     </g>
    </g>
   </g>
   <g id="matplotlib.axis_4">
    <g id="ytick_3">
     <g id="line2d_16">
      <g>
       <use xlink:href="#md27a8b0fe1" x="78.59" y="148.228023" style="stroke: #000000; stroke-width: 0.8"/>
      </g>
     </g>
     <g id="text_5">
      <!-- 0.5 -->
      <g transform="translate(55.686875 152.027242) scale(0.1 -0.1)">
       <use xlink:href="#DejaVuSans-30"/>
       <use xlink:href="#DejaVuSans-2e" x="63.623047"/>
       <use xlink:href="#DejaVuSans-35" x="95.410156"/>
      </g>
     </g>
    </g>
    <g id="ytick_4">
     <g id="line2d_17">
      <g>
       <use xlink:href="#md27a8b0fe1" x="78.59" y="105.289541" style="stroke: #000000; stroke-width: 0.8"/>
      </g>
     </g>
     <g id="text_6">
      <!-- 1.0 -->
      <g transform="translate(55.686875 109.08876) scale(0.1 -0.1)">
       <use xlink:href="#DejaVuSans-31"/>
       <use xlink:href="#DejaVuSans-2e" x="63.623047"/>
       <use xlink:href="#DejaVuSans-30" x="95.410156"/>
      </g>
     </g>
    </g>
    <g id="text_7">
     <!-- Trend -->
     <g transform="translate(49.607188 145.571406) rotate(-90) scale(0.1 -0.1)">
      <defs>
       <path id="DejaVuSans-54" d="M -19 4666 
L 3928 4666 
L 3928 4134 
L 2272 4134 
L 2272 0 
L 1638 0 
L 1638 4134 
L -19 4134 
L -19 4666 
z
" transform="scale(0.015625)"/>
       <path id="DejaVuSans-72" d="M 2631 2963 
Q 2534 3019 2420 3045 
Q 2306 3072 2169 3072 
Q 1681 3072 1420 2755 
Q 1159 2438 1159 1844 
L 1159 0 
L 581 0 
L 581 3500 
L 1159 3500 
L 1159 2956 
Q 1341 3275 1631 3429 
Q 1922 3584 2338 3584 
Q 2397 3584 2469 3576 
Q 2541 3569 2628 3553 
L 2631 2963 
z
" transform="scale(0.015625)"/>
       <path id="DejaVuSans-64" d="M 2906 2969 
L 2906 4863 
L 3481 4863 
L 3481 0 
L 2906 0 
L 2906 525 
Q 2725 213 2448 61 
Q 2172 -91 1784 -91 
Q 1150 -91 751 415 
Q 353 922 353 1747 
Q 353 2572 751 3078 
Q 1150 3584 1784 3584 
Q 2172 3584 2448 3432 
Q 2725 3281 2906 2969 
z
M 947 1747 
Q 947 1113 1208 752 
Q 1469 391 1925 391 
Q 2381 391 2643 752 
Q 2906 1113 2906 1747 
Q 2906 2381 2643 2742 
Q 2381 3103 1925 3103 
Q 1469 3103 1208 2742 
Q 947 2381 947 1747 
z
" transform="scale(0.015625)"/>
      </defs>
      <use xlink:href="#DejaVuSans-54"/>
      <use xlink:href="#DejaVuSans-72" x="46.333984"/>
      <use xlink:href="#DejaVuSans-65" x="85.197266"/>
      <use xlink:href="#DejaVuSans-6e" x="146.720703"/>
      <use xlink:href="#DejaVuSans-64" x="210.099609"/>
     </g>
    </g>
    <g id="text_8">
     <!-- 1e7 -->
     <g transform="translate(78.59 101.815) scale(0.1 -0.1)">
      <use xlink:href="#DejaVuSans-31"/>
      <use xlink:href="#DejaVuSans-65" x="63.623047"/>
      <use xlink:href="#DejaVuSans-37" x="125.146484"/>
     </g>
    </g>
   </g>
   <g id="line2d_18">
    <path d="M 109.441949 156.508409 
L 114.527435 155.57919 
L 119.782437 154.495695 
L 125.03744 153.687681 
L 130.122926 152.982672 
L 135.377928 152.433589 
L 140.463414 152.138957 
L 145.718416 152.259209 
L 150.973419 152.352061 
L 155.719872 152.207936 
L 160.974874 152.176511 
L 166.060361 152.223292 
L 171.315363 152.156433 
L 176.400849 152.204395 
L 181.655851 152.115324 
L 186.910853 151.540737 
L 191.99634 150.967096 
L 197.251342 150.366754 
L 202.336828 149.355786 
L 207.59183 148.239678 
L 212.846832 147.355106 
L 217.593286 146.599065 
L 222.848288 145.864521 
L 227.933775 145.24574 
L 233.188777 144.564348 
L 238.274263 143.761996 
L 243.529265 143.048716 
L 248.784267 142.99461 
L 253.869754 143.177959 
L 259.124756 142.613538 
L 264.210242 142.155198 
L 269.465244 142.443925 
L 274.720246 142.713041 
L 279.636216 142.610752 
L 284.891219 142.514606 
L 289.976705 141.797558 
L 295.231707 140.253351 
L 300.317193 139.590409 
L 305.572195 139.894722 
L 310.827198 139.278546 
L 315.912684 138.034613 
L 321.167686 137.566337 
L 326.253172 137.298173 
L 331.508174 136.534564 
L 336.763177 135.86523 
L 341.50963 135.389158 
L 346.764633 134.632167 
L 351.850119 133.648605 
L 357.105121 132.805625 
L 362.190607 131.68432 
L 367.445609 130.402122 
L 372.700612 129.412429 
L 377.786098 127.815062 
L 383.0411 125.428809 
L 388.126586 123.58573 
L 393.381588 122.086177 
L 398.636591 119.750963 
L 403.383044 117.132707 
L 408.638047 113.970105 
L 413.723533 110.259651 
L 418.978535 107.276591 
" clip-path="url(#p05572d4d78)" style="fill: none; stroke: #1f77b4; stroke-width: 1.5; stroke-linecap: square"/>
   </g>
   <g id="patch_8">
    <path d="M 78.59 158.97 
L 78.59 104.815 
" style="fill: none; stroke: #000000; stroke-width: 0.8; stroke-linejoin: miter; stroke-linecap: square"/>
   </g>
   <g id="patch_9">
    <path d="M 450 158.97 
L 450 104.815 
" style="fill: none; stroke: #000000; stroke-width: 0.8; stroke-linejoin: miter; stroke-linecap: square"/>
   </g>
   <g id="patch_10">
    <path d="M 78.59 158.97 
L 450 158.97 
" style="fill: none; stroke: #000000; stroke-width: 0.8; stroke-linejoin: miter; stroke-linecap: square"/>
   </g>
   <g id="patch_11">
    <path d="M 78.59 104.815 
L 450 104.815 
" style="fill: none; stroke: #000000; stroke-width: 0.8; stroke-linejoin: miter; stroke-linecap: square"/>
   </g>
  </g>
  <g id="axes_3">
   <g id="patch_12">
    <path d="M 78.59 238.345 
L 450 238.345 
L 450 184.19 
L 78.59 184.19 
z
" style="fill: #ffffff"/>
   </g>
   <g id="matplotlib.axis_5">
    <g id="xtick_13">
     <g id="line2d_19">
      <g>
       <use xlink:href="#mb6d5673dff" x="83.845002" y="238.345" style="stroke: #000000; stroke-width: 0.8"/>
      </g>
     </g>
    </g>
    <g id="xtick_14">
     <g id="line2d_20">
      <g>
       <use xlink:href="#mb6d5673dff" x="145.718416" y="238.345" style="stroke: #000000; stroke-width: 0.8"/>
      </g>
     </g>
    </g>
    <g id="xtick_15">
     <g id="line2d_21">
      <g>
       <use xlink:href="#mb6d5673dff" x="207.59183" y="238.345" style="stroke: #000000; stroke-width: 0.8"/>
      </g>
     </g>
    </g>
    <g id="xtick_16">
     <g id="line2d_22">
      <g>
       <use xlink:href="#mb6d5673dff" x="269.465244" y="238.345" style="stroke: #000000; stroke-width: 0.8"/>
      </g>
     </g>
    </g>
    <g id="xtick_17">
     <g id="line2d_23">
      <g>
       <use xlink:href="#mb6d5673dff" x="331.508174" y="238.345" style="stroke: #000000; stroke-width: 0.8"/>
      </g>
     </g>
    </g>
    <g id="xtick_18">
     <g id="line2d_24">
      <g>
       <use xlink:href="#mb6d5673dff" x="393.381588" y="238.345" style="stroke: #000000; stroke-width: 0.8"/>
      </g>
     </g>
    </g>
   </g>
   <g id="matplotlib.axis_6">
    <g id="ytick_5">
     <g id="line2d_25">
      <g>
       <use xlink:href="#md27a8b0fe1" x="78.59" y="232.278231" style="stroke: #000000; stroke-width: 0.8"/>
      </g>
     </g>
     <g id="text_9">
      <!-- −500000 -->
      <g transform="translate(25.035313 236.07745) scale(0.1 -0.1)">
       <defs>
        <path id="DejaVuSans-2212" d="M 678 2272 
L 4684 2272 
L 4684 1741 
L 678 1741 
L 678 2272 
z
" transform="scale(0.015625)"/>
       </defs>
       <use xlink:href="#DejaVuSans-2212"/>
       <use xlink:href="#DejaVuSans-35" x="83.789062"/>
       <use xlink:href="#DejaVuSans-30" x="147.412109"/>
       <use xlink:href="#DejaVuSans-30" x="211.035156"/>
       <use xlink:href="#DejaVuSans-30" x="274.658203"/>
       <use xlink:href="#DejaVuSans-30" x="338.28125"/>
       <use xlink:href="#DejaVuSans-30" x="401.904297"/>
      </g>
     </g>
    </g>
    <g id="ytick_6">
     <g id="line2d_26">
      <g>
       <use xlink:href="#md27a8b0fe1" x="78.59" y="214.888587" style="stroke: #000000; stroke-width: 0.8"/>
      </g>
     </g>
     <g id="text_10">
      <!-- 0 -->
      <g transform="translate(65.2275 218.687805) scale(0.1 -0.1)">
       <use xlink:href="#DejaVuSans-30"/>
      </g>
     </g>
    </g>
    <g id="ytick_7">
     <g id="line2d_27">
      <g>
       <use xlink:href="#md27a8b0fe1" x="78.59" y="197.498942" style="stroke: #000000; stroke-width: 0.8"/>
      </g>
     </g>
     <g id="text_11">
      <!-- 500000 -->
      <g transform="translate(33.415 201.298161) scale(0.1 -0.1)">
       <use xlink:href="#DejaVuSans-35"/>
       <use xlink:href="#DejaVuSans-30" x="63.623047"/>
       <use xlink:href="#DejaVuSans-30" x="127.246094"/>
       <use xlink:href="#DejaVuSans-30" x="190.869141"/>
       <use xlink:href="#DejaVuSans-30" x="254.492188"/>
       <use xlink:href="#DejaVuSans-30" x="318.115234"/>
      </g>
     </g>
    </g>
    <g id="text_12">
     <!-- Seasonal -->
     <g transform="translate(18.955625 233.868281) rotate(-90) scale(0.1 -0.1)">
      <defs>
       <path id="DejaVuSans-61" d="M 2194 1759 
Q 1497 1759 1228 1600 
Q 959 1441 959 1056 
Q 959 750 1161 570 
Q 1363 391 1709 391 
Q 2188 391 2477 730 
Q 2766 1069 2766 1631 
L 2766 1759 
L 2194 1759 
z
M 3341 1997 
L 3341 0 
L 2766 0 
L 2766 531 
Q 2569 213 2275 61 
Q 1981 -91 1556 -91 
Q 1019 -91 701 211 
Q 384 513 384 1019 
Q 384 1609 779 1909 
Q 1175 2209 1959 2209 
L 2766 2209 
L 2766 2266 
Q 2766 2663 2505 2880 
Q 2244 3097 1772 3097 
Q 1472 3097 1187 3025 
Q 903 2953 641 2809 
L 641 3341 
Q 956 3463 1253 3523 
Q 1550 3584 1831 3584 
Q 2591 3584 2966 3190 
Q 3341 2797 3341 1997 
z
" transform="scale(0.015625)"/>
       <path id="DejaVuSans-6c" d="M 603 4863 
L 1178 4863 
L 1178 0 
L 603 0 
L 603 4863 
z
" transform="scale(0.015625)"/>
      </defs>
      <use xlink:href="#DejaVuSans-53"/>
      <use xlink:href="#DejaVuSans-65" x="63.476562"/>
      <use xlink:href="#DejaVuSans-61" x="125"/>
      <use xlink:href="#DejaVuSans-73" x="186.279297"/>
      <use xlink:href="#DejaVuSans-6f" x="238.378906"/>
      <use xlink:href="#DejaVuSans-6e" x="299.560547"/>
      <use xlink:href="#DejaVuSans-61" x="362.939453"/>
      <use xlink:href="#DejaVuSans-6c" x="424.21875"/>
     </g>
    </g>
   </g>
   <g id="line2d_28">
    <path d="M 78.59 203.656119 
L 83.845002 219.592722 
L 89.100005 226.706962 
L 93.846458 203.405205 
L 99.101461 215.848749 
L 104.186947 211.067959 
L 109.441949 234.735668 
L 114.527435 208.722407 
L 119.782437 197.143735 
L 125.03744 235.248513 
L 130.122926 235.883409 
L 135.377928 186.651591 
L 140.463414 203.656119 
L 145.718416 219.592722 
L 150.973419 226.706962 
L 155.719872 203.405205 
L 160.974874 215.848749 
L 166.060361 211.067959 
L 171.315363 234.735668 
L 176.400849 208.722407 
L 181.655851 197.143735 
L 186.910853 235.248513 
L 191.99634 235.883409 
L 197.251342 186.651591 
L 202.336828 203.656119 
L 207.59183 219.592722 
L 212.846832 226.706962 
L 217.593286 203.405205 
L 222.848288 215.848749 
L 227.933775 211.067959 
L 233.188777 234.735668 
L 238.274263 208.722407 
L 243.529265 197.143735 
L 248.784267 235.248513 
L 253.869754 235.883409 
L 259.124756 186.651591 
L 264.210242 203.656119 
L 269.465244 219.592722 
L 274.720246 226.706962 
L 279.636216 203.405205 
L 284.891219 215.848749 
L 289.976705 211.067959 
L 295.231707 234.735668 
L 300.317193 208.722407 
L 305.572195 197.143735 
L 310.827198 235.248513 
L 315.912684 235.883409 
L 321.167686 186.651591 
L 326.253172 203.656119 
L 331.508174 219.592722 
L 336.763177 226.706962 
L 341.50963 203.405205 
L 346.764633 215.848749 
L 351.850119 211.067959 
L 357.105121 234.735668 
L 362.190607 208.722407 
L 367.445609 197.143735 
L 372.700612 235.248513 
L 377.786098 235.883409 
L 383.0411 186.651591 
L 388.126586 203.656119 
L 393.381588 219.592722 
L 398.636591 226.706962 
L 403.383044 203.405205 
L 408.638047 215.848749 
L 413.723533 211.067959 
L 418.978535 234.735668 
L 424.064021 208.722407 
L 429.319023 197.143735 
L 434.574026 235.248513 
L 439.659512 235.883409 
L 444.914514 186.651591 
L 450 203.656119 
" clip-path="url(#p1f67f5dda1)" style="fill: none; stroke: #1f77b4; stroke-width: 1.5; stroke-linecap: square"/>
   </g>
   <g id="patch_13">
    <path d="M 78.59 238.345 
L 78.59 184.19 
" style="fill: none; stroke: #000000; stroke-width: 0.8; stroke-linejoin: miter; stroke-linecap: square"/>
   </g>
   <g id="patch_14">
    <path d="M 450 238.345 
L 450 184.19 
" style="fill: none; stroke: #000000; stroke-width: 0.8; stroke-linejoin: miter; stroke-linecap: square"/>
   </g>
   <g id="patch_15">
    <path d="M 78.59 238.345 
L 450 238.345 
" style="fill: none; stroke: #000000; stroke-width: 0.8; stroke-linejoin: miter; stroke-linecap: square"/>
   </g>
   <g id="patch_16">
    <path d="M 78.59 184.19 
L 450 184.19 
" style="fill: none; stroke: #000000; stroke-width: 0.8; stroke-linejoin: miter; stroke-linecap: square"/>
   </g>
  </g>
  <g id="axes_4">
   <g id="patch_17">
    <path d="M 78.59 317.72 
L 450 317.72 
L 450 263.565 
L 78.59 263.565 
z
" style="fill: #ffffff"/>
   </g>
   <g id="line2d_29">
    <path d="M 78.59 292.393315 
L 450 292.393315 
" clip-path="url(#p7b7f44a074)" style="fill: none; stroke: #000000; stroke-width: 1.5; stroke-linecap: square"/>
   </g>
   <g id="matplotlib.axis_7">
    <g id="xtick_19">
     <g id="line2d_30">
      <g>
       <use xlink:href="#mb6d5673dff" x="83.845002" y="317.72" style="stroke: #000000; stroke-width: 0.8"/>
      </g>
     </g>
     <g id="text_13">
      <!-- 2017 -->
      <g transform="translate(71.120002 332.318437) scale(0.1 -0.1)">
       <defs>
        <path id="DejaVuSans-32" d="M 1228 531 
L 3431 531 
L 3431 0 
L 469 0 
L 469 531 
Q 828 903 1448 1529 
Q 2069 2156 2228 2338 
Q 2531 2678 2651 2914 
Q 2772 3150 2772 3378 
Q 2772 3750 2511 3984 
Q 2250 4219 1831 4219 
Q 1534 4219 1204 4116 
Q 875 4013 500 3803 
L 500 4441 
Q 881 4594 1212 4672 
Q 1544 4750 1819 4750 
Q 2544 4750 2975 4387 
Q 3406 4025 3406 3419 
Q 3406 3131 3298 2873 
Q 3191 2616 2906 2266 
Q 2828 2175 2409 1742 
Q 1991 1309 1228 531 
z
" transform="scale(0.015625)"/>
       </defs>
       <use xlink:href="#DejaVuSans-32"/>
       <use xlink:href="#DejaVuSans-30" x="63.623047"/>
       <use xlink:href="#DejaVuSans-31" x="127.246094"/>
       <use xlink:href="#DejaVuSans-37" x="190.869141"/>
      </g>
     </g>
    </g>
    <g id="xtick_20">
     <g id="line2d_31">
      <g>
       <use xlink:href="#mb6d5673dff" x="145.718416" y="317.72" style="stroke: #000000; stroke-width: 0.8"/>
      </g>
     </g>
     <g id="text_14">
      <!-- 2018 -->
      <g transform="translate(132.993416 332.318437) scale(0.1 -0.1)">
       <defs>
        <path id="DejaVuSans-38" d="M 2034 2216 
Q 1584 2216 1326 1975 
Q 1069 1734 1069 1313 
Q 1069 891 1326 650 
Q 1584 409 2034 409 
Q 2484 409 2743 651 
Q 3003 894 3003 1313 
Q 3003 1734 2745 1975 
Q 2488 2216 2034 2216 
z
M 1403 2484 
Q 997 2584 770 2862 
Q 544 3141 544 3541 
Q 544 4100 942 4425 
Q 1341 4750 2034 4750 
Q 2731 4750 3128 4425 
Q 3525 4100 3525 3541 
Q 3525 3141 3298 2862 
Q 3072 2584 2669 2484 
Q 3125 2378 3379 2068 
Q 3634 1759 3634 1313 
Q 3634 634 3220 271 
Q 2806 -91 2034 -91 
Q 1263 -91 848 271 
Q 434 634 434 1313 
Q 434 1759 690 2068 
Q 947 2378 1403 2484 
z
M 1172 3481 
Q 1172 3119 1398 2916 
Q 1625 2713 2034 2713 
Q 2441 2713 2670 2916 
Q 2900 3119 2900 3481 
Q 2900 3844 2670 4047 
Q 2441 4250 2034 4250 
Q 1625 4250 1398 4047 
Q 1172 3844 1172 3481 
z
" transform="scale(0.015625)"/>
       </defs>
       <use xlink:href="#DejaVuSans-32"/>
       <use xlink:href="#DejaVuSans-30" x="63.623047"/>
       <use xlink:href="#DejaVuSans-31" x="127.246094"/>
       <use xlink:href="#DejaVuSans-38" x="190.869141"/>
      </g>
     </g>
    </g>
    <g id="xtick_21">
     <g id="line2d_32">
      <g>
       <use xlink:href="#mb6d5673dff" x="207.59183" y="317.72" style="stroke: #000000; stroke-width: 0.8"/>
      </g>
     </g>
     <g id="text_15">
      <!-- 2019 -->
      <g transform="translate(194.86683 332.318437) scale(0.1 -0.1)">
       <defs>
        <path id="DejaVuSans-39" d="M 703 97 
L 703 672 
Q 941 559 1184 500 
Q 1428 441 1663 441 
Q 2288 441 2617 861 
Q 2947 1281 2994 2138 
Q 2813 1869 2534 1725 
Q 2256 1581 1919 1581 
Q 1219 1581 811 2004 
Q 403 2428 403 3163 
Q 403 3881 828 4315 
Q 1253 4750 1959 4750 
Q 2769 4750 3195 4129 
Q 3622 3509 3622 2328 
Q 3622 1225 3098 567 
Q 2575 -91 1691 -91 
Q 1453 -91 1209 -44 
Q 966 3 703 97 
z
M 1959 2075 
Q 2384 2075 2632 2365 
Q 2881 2656 2881 3163 
Q 2881 3666 2632 3958 
Q 2384 4250 1959 4250 
Q 1534 4250 1286 3958 
Q 1038 3666 1038 3163 
Q 1038 2656 1286 2365 
Q 1534 2075 1959 2075 
z
" transform="scale(0.015625)"/>
       </defs>
       <use xlink:href="#DejaVuSans-32"/>
       <use xlink:href="#DejaVuSans-30" x="63.623047"/>
       <use xlink:href="#DejaVuSans-31" x="127.246094"/>
       <use xlink:href="#DejaVuSans-39" x="190.869141"/>
      </g>
     </g>
    </g>
    <g id="xtick_22">
     <g id="line2d_33">
      <g>
       <use xlink:href="#mb6d5673dff" x="269.465244" y="317.72" style="stroke: #000000; stroke-width: 0.8"/>
      </g>
     </g>
     <g id="text_16">
      <!-- 2020 -->
      <g transform="translate(256.740244 332.318437) scale(0.1 -0.1)">
       <use xlink:href="#DejaVuSans-32"/>
       <use xlink:href="#DejaVuSans-30" x="63.623047"/>
       <use xlink:href="#DejaVuSans-32" x="127.246094"/>
       <use xlink:href="#DejaVuSans-30" x="190.869141"/>
      </g>
     </g>
    </g>
    <g id="xtick_23">
     <g id="line2d_34">
      <g>
       <use xlink:href="#mb6d5673dff" x="331.508174" y="317.72" style="stroke: #000000; stroke-width: 0.8"/>
      </g>
     </g>
     <g id="text_17">
      <!-- 2021 -->
      <g transform="translate(318.783174 332.318437) scale(0.1 -0.1)">
       <use xlink:href="#DejaVuSans-32"/>
       <use xlink:href="#DejaVuSans-30" x="63.623047"/>
       <use xlink:href="#DejaVuSans-32" x="127.246094"/>
       <use xlink:href="#DejaVuSans-31" x="190.869141"/>
      </g>
     </g>
    </g>
    <g id="xtick_24">
     <g id="line2d_35">
      <g>
       <use xlink:href="#mb6d5673dff" x="393.381588" y="317.72" style="stroke: #000000; stroke-width: 0.8"/>
      </g>
     </g>
     <g id="text_18">
      <!-- 2022 -->
      <g transform="translate(380.656588 332.318437) scale(0.1 -0.1)">
       <use xlink:href="#DejaVuSans-32"/>
       <use xlink:href="#DejaVuSans-30" x="63.623047"/>
       <use xlink:href="#DejaVuSans-32" x="127.246094"/>
       <use xlink:href="#DejaVuSans-32" x="190.869141"/>
      </g>
     </g>
    </g>
   </g>
   <g id="matplotlib.axis_8">
    <g id="ytick_8">
     <g id="line2d_36">
      <g>
       <use xlink:href="#md27a8b0fe1" x="78.59" y="312.222869" style="stroke: #000000; stroke-width: 0.8"/>
      </g>
     </g>
     <g id="text_19">
      <!-- −1 -->
      <g transform="translate(56.847813 316.022088) scale(0.1 -0.1)">
       <use xlink:href="#DejaVuSans-2212"/>
       <use xlink:href="#DejaVuSans-31" x="83.789062"/>
      </g>
     </g>
    </g>
    <g id="ytick_9">
     <g id="line2d_37">
      <g>
       <use xlink:href="#md27a8b0fe1" x="78.59" y="292.393315" style="stroke: #000000; stroke-width: 0.8"/>
      </g>
     </g>
     <g id="text_20">
      <!-- 0 -->
      <g transform="translate(65.2275 296.192534) scale(0.1 -0.1)">
       <use xlink:href="#DejaVuSans-30"/>
      </g>
     </g>
    </g>
    <g id="ytick_10">
     <g id="line2d_38">
      <g>
       <use xlink:href="#md27a8b0fe1" x="78.59" y="272.563761" style="stroke: #000000; stroke-width: 0.8"/>
      </g>
     </g>
     <g id="text_21">
      <!-- 1 -->
      <g transform="translate(65.2275 276.36298) scale(0.1 -0.1)">
       <use xlink:href="#DejaVuSans-31"/>
      </g>
     </g>
    </g>
    <g id="text_22">
     <!-- Resid -->
     <g transform="translate(50.768125 304.13625) rotate(-90) scale(0.1 -0.1)">
      <defs>
       <path id="DejaVuSans-52" d="M 2841 2188 
Q 3044 2119 3236 1894 
Q 3428 1669 3622 1275 
L 4263 0 
L 3584 0 
L 2988 1197 
Q 2756 1666 2539 1819 
Q 2322 1972 1947 1972 
L 1259 1972 
L 1259 0 
L 628 0 
L 628 4666 
L 2053 4666 
Q 2853 4666 3247 4331 
Q 3641 3997 3641 3322 
Q 3641 2881 3436 2590 
Q 3231 2300 2841 2188 
z
M 1259 4147 
L 1259 2491 
L 2053 2491 
Q 2509 2491 2742 2702 
Q 2975 2913 2975 3322 
Q 2975 3731 2742 3939 
Q 2509 4147 2053 4147 
L 1259 4147 
z
" transform="scale(0.015625)"/>
      </defs>
      <use xlink:href="#DejaVuSans-52"/>
      <use xlink:href="#DejaVuSans-65" x="64.982422"/>
      <use xlink:href="#DejaVuSans-73" x="126.505859"/>
      <use xlink:href="#DejaVuSans-69" x="178.605469"/>
      <use xlink:href="#DejaVuSans-64" x="206.388672"/>
     </g>
    </g>
    <g id="text_23">
     <!-- 1e6 -->
     <g transform="translate(78.59 260.565) scale(0.1 -0.1)">
      <defs>
       <path id="DejaVuSans-36" d="M 2113 2584 
Q 1688 2584 1439 2293 
Q 1191 2003 1191 1497 
Q 1191 994 1439 701 
Q 1688 409 2113 409 
Q 2538 409 2786 701 
Q 3034 994 3034 1497 
Q 3034 2003 2786 2293 
Q 2538 2584 2113 2584 
z
M 3366 4563 
L 3366 3988 
Q 3128 4100 2886 4159 
Q 2644 4219 2406 4219 
Q 1781 4219 1451 3797 
Q 1122 3375 1075 2522 
Q 1259 2794 1537 2939 
Q 1816 3084 2150 3084 
Q 2853 3084 3261 2657 
Q 3669 2231 3669 1497 
Q 3669 778 3244 343 
Q 2819 -91 2113 -91 
Q 1303 -91 875 529 
Q 447 1150 447 2328 
Q 447 3434 972 4092 
Q 1497 4750 2381 4750 
Q 2619 4750 2861 4703 
Q 3103 4656 3366 4563 
z
" transform="scale(0.015625)"/>
      </defs>
      <use xlink:href="#DejaVuSans-31"/>
      <use xlink:href="#DejaVuSans-65" x="63.623047"/>
      <use xlink:href="#DejaVuSans-36" x="125.146484"/>
     </g>
    </g>
   </g>
   <g id="line2d_39">
    <defs>
     <path id="m0439096ce7" d="M 0 3 
C 0.795609 3 1.55874 2.683901 2.12132 2.12132 
C 2.683901 1.55874 3 0.795609 3 0 
C 3 -0.795609 2.683901 -1.55874 2.12132 -2.12132 
C 1.55874 -2.683901 0.795609 -3 0 -3 
C -0.795609 -3 -1.55874 -2.683901 -2.12132 -2.12132 
C -2.683901 -1.55874 -3 -0.795609 -3 0 
C -3 0.795609 -2.683901 1.55874 -2.12132 2.12132 
C -1.55874 2.683901 -0.795609 3 0 3 
z
" style="stroke: #1f77b4"/>
    </defs>
    <g clip-path="url(#p7b7f44a074)">
     <use xlink:href="#m0439096ce7" x="109.441949" y="289.001627" style="fill: #1f77b4; stroke: #1f77b4"/>
     <use xlink:href="#m0439096ce7" x="114.527435" y="274.097005" style="fill: #1f77b4; stroke: #1f77b4"/>
     <use xlink:href="#m0439096ce7" x="119.782437" y="288.162641" style="fill: #1f77b4; stroke: #1f77b4"/>
     <use xlink:href="#m0439096ce7" x="125.03744" y="288.060356" style="fill: #1f77b4; stroke: #1f77b4"/>
     <use xlink:href="#m0439096ce7" x="130.122926" y="285.699433" style="fill: #1f77b4; stroke: #1f77b4"/>
     <use xlink:href="#m0439096ce7" x="135.377928" y="295.986772" style="fill: #1f77b4; stroke: #1f77b4"/>
     <use xlink:href="#m0439096ce7" x="140.463414" y="307.645754" style="fill: #1f77b4; stroke: #1f77b4"/>
     <use xlink:href="#m0439096ce7" x="145.718416" y="275.709444" style="fill: #1f77b4; stroke: #1f77b4"/>
     <use xlink:href="#m0439096ce7" x="150.973419" y="287.608642" style="fill: #1f77b4; stroke: #1f77b4"/>
     <use xlink:href="#m0439096ce7" x="155.719872" y="289.076568" style="fill: #1f77b4; stroke: #1f77b4"/>
     <use xlink:href="#m0439096ce7" x="160.974874" y="296.627014" style="fill: #1f77b4; stroke: #1f77b4"/>
     <use xlink:href="#m0439096ce7" x="166.060361" y="301.66694" style="fill: #1f77b4; stroke: #1f77b4"/>
     <use xlink:href="#m0439096ce7" x="171.315363" y="296.025726" style="fill: #1f77b4; stroke: #1f77b4"/>
     <use xlink:href="#m0439096ce7" x="176.400849" y="291.578645" style="fill: #1f77b4; stroke: #1f77b4"/>
     <use xlink:href="#m0439096ce7" x="181.655851" y="289.115666" style="fill: #1f77b4; stroke: #1f77b4"/>
     <use xlink:href="#m0439096ce7" x="186.910853" y="289.574149" style="fill: #1f77b4; stroke: #1f77b4"/>
     <use xlink:href="#m0439096ce7" x="191.99634" y="292.05564" style="fill: #1f77b4; stroke: #1f77b4"/>
     <use xlink:href="#m0439096ce7" x="197.251342" y="301.649636" style="fill: #1f77b4; stroke: #1f77b4"/>
     <use xlink:href="#m0439096ce7" x="202.336828" y="309.476699" style="fill: #1f77b4; stroke: #1f77b4"/>
     <use xlink:href="#m0439096ce7" x="207.59183" y="292.244317" style="fill: #1f77b4; stroke: #1f77b4"/>
     <use xlink:href="#m0439096ce7" x="212.846832" y="286.957354" style="fill: #1f77b4; stroke: #1f77b4"/>
     <use xlink:href="#m0439096ce7" x="217.593286" y="282.375184" style="fill: #1f77b4; stroke: #1f77b4"/>
     <use xlink:href="#m0439096ce7" x="222.848288" y="299.064638" style="fill: #1f77b4; stroke: #1f77b4"/>
     <use xlink:href="#m0439096ce7" x="227.933775" y="296.64625" style="fill: #1f77b4; stroke: #1f77b4"/>
     <use xlink:href="#m0439096ce7" x="233.188777" y="278.663253" style="fill: #1f77b4; stroke: #1f77b4"/>
     <use xlink:href="#m0439096ce7" x="238.274263" y="284.113805" style="fill: #1f77b4; stroke: #1f77b4"/>
     <use xlink:href="#m0439096ce7" x="243.529265" y="287.989134" style="fill: #1f77b4; stroke: #1f77b4"/>
     <use xlink:href="#m0439096ce7" x="248.784267" y="289.47168" style="fill: #1f77b4; stroke: #1f77b4"/>
     <use xlink:href="#m0439096ce7" x="253.869754" y="289.170643" style="fill: #1f77b4; stroke: #1f77b4"/>
     <use xlink:href="#m0439096ce7" x="259.124756" y="306.1316" style="fill: #1f77b4; stroke: #1f77b4"/>
     <use xlink:href="#m0439096ce7" x="264.210242" y="301.762986" style="fill: #1f77b4; stroke: #1f77b4"/>
     <use xlink:href="#m0439096ce7" x="269.465244" y="285.503009" style="fill: #1f77b4; stroke: #1f77b4"/>
     <use xlink:href="#m0439096ce7" x="274.720246" y="278.272017" style="fill: #1f77b4; stroke: #1f77b4"/>
     <use xlink:href="#m0439096ce7" x="279.636216" y="307.990204" style="fill: #1f77b4; stroke: #1f77b4"/>
     <use xlink:href="#m0439096ce7" x="284.891219" y="300.554829" style="fill: #1f77b4; stroke: #1f77b4"/>
     <use xlink:href="#m0439096ce7" x="289.976705" y="279.574468" style="fill: #1f77b4; stroke: #1f77b4"/>
     <use xlink:href="#m0439096ce7" x="295.231707" y="288.251436" style="fill: #1f77b4; stroke: #1f77b4"/>
     <use xlink:href="#m0439096ce7" x="300.317193" y="310.112972" style="fill: #1f77b4; stroke: #1f77b4"/>
     <use xlink:href="#m0439096ce7" x="305.572195" y="293.81898" style="fill: #1f77b4; stroke: #1f77b4"/>
     <use xlink:href="#m0439096ce7" x="310.827198" y="293.83665" style="fill: #1f77b4; stroke: #1f77b4"/>
     <use xlink:href="#m0439096ce7" x="315.912684" y="299.934467" style="fill: #1f77b4; stroke: #1f77b4"/>
     <use xlink:href="#m0439096ce7" x="321.167686" y="279.161317" style="fill: #1f77b4; stroke: #1f77b4"/>
     <use xlink:href="#m0439096ce7" x="326.253172" y="266.026591" style="fill: #1f77b4; stroke: #1f77b4"/>
     <use xlink:href="#m0439096ce7" x="331.508174" y="309.361044" style="fill: #1f77b4; stroke: #1f77b4"/>
     <use xlink:href="#m0439096ce7" x="336.763177" y="300.735448" style="fill: #1f77b4; stroke: #1f77b4"/>
     <use xlink:href="#m0439096ce7" x="341.50963" y="283.866943" style="fill: #1f77b4; stroke: #1f77b4"/>
     <use xlink:href="#m0439096ce7" x="346.764633" y="290.618575" style="fill: #1f77b4; stroke: #1f77b4"/>
     <use xlink:href="#m0439096ce7" x="351.850119" y="300.577519" style="fill: #1f77b4; stroke: #1f77b4"/>
     <use xlink:href="#m0439096ce7" x="357.105121" y="288.401136" style="fill: #1f77b4; stroke: #1f77b4"/>
     <use xlink:href="#m0439096ce7" x="362.190607" y="303.098897" style="fill: #1f77b4; stroke: #1f77b4"/>
     <use xlink:href="#m0439096ce7" x="367.445609" y="303.914903" style="fill: #1f77b4; stroke: #1f77b4"/>
     <use xlink:href="#m0439096ce7" x="372.700612" y="302.058488" style="fill: #1f77b4; stroke: #1f77b4"/>
     <use xlink:href="#m0439096ce7" x="377.786098" y="296.141141" style="fill: #1f77b4; stroke: #1f77b4"/>
     <use xlink:href="#m0439096ce7" x="383.0411" y="280.071999" style="fill: #1f77b4; stroke: #1f77b4"/>
     <use xlink:href="#m0439096ce7" x="388.126586" y="278.089294" style="fill: #1f77b4; stroke: #1f77b4"/>
     <use xlink:href="#m0439096ce7" x="393.381588" y="300.18351" style="fill: #1f77b4; stroke: #1f77b4"/>
     <use xlink:href="#m0439096ce7" x="398.636591" y="309.427863" style="fill: #1f77b4; stroke: #1f77b4"/>
     <use xlink:href="#m0439096ce7" x="403.383044" y="299.692424" style="fill: #1f77b4; stroke: #1f77b4"/>
     <use xlink:href="#m0439096ce7" x="408.638047" y="276.136268" style="fill: #1f77b4; stroke: #1f77b4"/>
     <use xlink:href="#m0439096ce7" x="413.723533" y="284.536147" style="fill: #1f77b4; stroke: #1f77b4"/>
     <use xlink:href="#m0439096ce7" x="418.978535" y="315.258409" style="fill: #1f77b4; stroke: #1f77b4"/>
    </g>
   </g>
   <g id="patch_18">
    <path d="M 78.59 317.72 
L 78.59 263.565 
" style="fill: none; stroke: #000000; stroke-width: 0.8; stroke-linejoin: miter; stroke-linecap: square"/>
   </g>
   <g id="patch_19">
    <path d="M 450 317.72 
L 450 263.565 
" style="fill: none; stroke: #000000; stroke-width: 0.8; stroke-linejoin: miter; stroke-linecap: square"/>
   </g>
   <g id="patch_20">
    <path d="M 78.59 317.72 
L 450 317.72 
" style="fill: none; stroke: #000000; stroke-width: 0.8; stroke-linejoin: miter; stroke-linecap: square"/>
   </g>
   <g id="patch_21">
    <path d="M 78.59 263.565 
L 450 263.565 
" style="fill: none; stroke: #000000; stroke-width: 0.8; stroke-linejoin: miter; stroke-linecap: square"/>
   </g>
  </g>
 </g>
 <defs>
  <clipPath id="p28e04f12ef">
   <rect x="78.59" y="25.44" width="371.41" height="54.155"/>
  </clipPath>
  <clipPath id="p05572d4d78">
   <rect x="78.59" y="104.815" width="371.41" height="54.155"/>
  </clipPath>
  <clipPath id="p1f67f5dda1">
   <rect x="78.59" y="184.19" width="371.41" height="54.155"/>
  </clipPath>
  <clipPath id="p7b7f44a074">
   <rect x="78.59" y="263.565" width="371.41" height="54.155"/>
  </clipPath>
 </defs>
</svg>
