<?xml version="1.0" encoding="utf-8" standalone="no"?>
<!DOCTYPE svg PUBLIC "-//W3C//DTD SVG 1.1//EN"
  "http://www.w3.org/Graphics/SVG/1.1/DTD/svg11.dtd">
<svg xmlns:xlink="http://www.w3.org/1999/xlink" width="460.8pt" height="345.6pt" viewBox="0 0 460.8 345.6" xmlns="http://www.w3.org/2000/svg" version="1.1">
 <metadata>
  <rdf:RDF xmlns:dc="http://purl.org/dc/elements/1.1/" xmlns:cc="http://creativecommons.org/ns#" xmlns:rdf="http://www.w3.org/1999/02/22-rdf-syntax-ns#">
   <cc:Work>
    <dc:type rdf:resource="http://purl.org/dc/dcmitype/StillImage"/>
    <dc:date>2024-04-17T21:05:30.276221</dc:date>
    <dc:format>image/svg+xml</dc:format>
    <dc:creator>
     <cc:Agent>
      <dc:title>Matplotlib v3.8.0, https://matplotlib.org/</dc:title>
     </cc:Agent>
    </dc:creator>
   </cc:Work>
  </rdf:RDF>
 </metadata>
 <defs>
  <style type="text/css">*{stroke-linejoin: round; stroke-linecap: butt}</style>
 </defs>
 <g id="figure_1">
  <g id="patch_1">
   <path d="M 0 345.6 
L 460.8 345.6 
L 460.8 0 
L 0 0 
z
" style="fill: #ffffff"/>
  </g>
  <g id="axes_1">
   <g id="patch_2">
    <path d="M 78.59 77.778256 
L 450 77.778256 
L 450 25.44 
L 78.59 25.44 
z
" style="fill: #ffffff"/>
   </g>
   <g id="matplotlib.axis_1">
    <g id="xtick_1">
     <g id="line2d_1">
      <defs>
       <path id="me464bdaab6" d="M 0 0 
L 0 3.5 
" style="stroke: #000000; stroke-width: 0.8"/>
      </defs>
      <g>
       <use xlink:href="#me464bdaab6" x="88.790815" y="77.778256" style="stroke: #000000; stroke-width: 0.8"/>
      </g>
     </g>
    </g>
    <g id="xtick_2">
     <g id="line2d_2">
      <g>
       <use xlink:href="#me464bdaab6" x="149.828478" y="77.778256" style="stroke: #000000; stroke-width: 0.8"/>
      </g>
     </g>
    </g>
    <g id="xtick_3">
     <g id="line2d_3">
      <g>
       <use xlink:href="#me464bdaab6" x="210.866141" y="77.778256" style="stroke: #000000; stroke-width: 0.8"/>
      </g>
     </g>
    </g>
    <g id="xtick_4">
     <g id="line2d_4">
      <g>
       <use xlink:href="#me464bdaab6" x="271.903805" y="77.778256" style="stroke: #000000; stroke-width: 0.8"/>
      </g>
     </g>
    </g>
    <g id="xtick_5">
     <g id="line2d_5">
      <g>
       <use xlink:href="#me464bdaab6" x="333.108694" y="77.778256" style="stroke: #000000; stroke-width: 0.8"/>
      </g>
     </g>
    </g>
    <g id="xtick_6">
     <g id="line2d_6">
      <g>
       <use xlink:href="#me464bdaab6" x="394.146357" y="77.778256" style="stroke: #000000; stroke-width: 0.8"/>
      </g>
     </g>
    </g>
   </g>
   <g id="matplotlib.axis_2">
    <g id="ytick_1">
     <g id="line2d_7">
      <defs>
       <path id="m2da59e94e7" d="M 0 0 
L -3.5 0 
" style="stroke: #000000; stroke-width: 0.8"/>
      </defs>
      <g>
       <use xlink:href="#m2da59e94e7" x="78.59" y="75.884968" style="stroke: #000000; stroke-width: 0.8"/>
      </g>
     </g>
     <g id="text_1">
      <!-- 0 -->
      <g transform="translate(65.2275 79.684187) scale(0.1 -0.1)">
       <defs>
        <path id="DejaVuSans-30" d="M 2034 4250 
Q 1547 4250 1301 3770 
Q 1056 3291 1056 2328 
Q 1056 1369 1301 889 
Q 1547 409 2034 409 
Q 2525 409 2770 889 
Q 3016 1369 3016 2328 
Q 3016 3291 2770 3770 
Q 2525 4250 2034 4250 
z
M 2034 4750 
Q 2819 4750 3233 4129 
Q 3647 3509 3647 2328 
Q 3647 1150 3233 529 
Q 2819 -91 2034 -91 
Q 1250 -91 836 529 
Q 422 1150 422 2328 
Q 422 3509 836 4129 
Q 1250 4750 2034 4750 
z
" transform="scale(0.015625)"/>
       </defs>
       <use xlink:href="#DejaVuSans-30"/>
      </g>
     </g>
    </g>
    <g id="ytick_2">
     <g id="line2d_8">
      <g>
       <use xlink:href="#m2da59e94e7" x="78.59" y="41.509588" style="stroke: #000000; stroke-width: 0.8"/>
      </g>
     </g>
     <g id="text_2">
      <!-- 1 -->
      <g transform="translate(65.2275 45.308807) scale(0.1 -0.1)">
       <defs>
        <path id="DejaVuSans-31" d="M 794 531 
L 1825 531 
L 1825 4091 
L 703 3866 
L 703 4441 
L 1819 4666 
L 2450 4666 
L 2450 531 
L 3481 531 
L 3481 0 
L 794 0 
L 794 531 
z
" transform="scale(0.015625)"/>
       </defs>
       <use xlink:href="#DejaVuSans-31"/>
      </g>
     </g>
    </g>
    <g id="text_3">
     <!-- 1e7 -->
     <g transform="translate(78.59 22.44) scale(0.1 -0.1)">
      <defs>
       <path id="DejaVuSans-65" d="M 3597 1894 
L 3597 1613 
L 953 1613 
Q 991 1019 1311 708 
Q 1631 397 2203 397 
Q 2534 397 2845 478 
Q 3156 559 3463 722 
L 3463 178 
Q 3153 47 2828 -22 
Q 2503 -91 2169 -91 
Q 1331 -91 842 396 
Q 353 884 353 1716 
Q 353 2575 817 3079 
Q 1281 3584 2069 3584 
Q 2775 3584 3186 3129 
Q 3597 2675 3597 1894 
z
M 3022 2063 
Q 3016 2534 2758 2815 
Q 2500 3097 2075 3097 
Q 1594 3097 1305 2825 
Q 1016 2553 972 2059 
L 3022 2063 
z
" transform="scale(0.015625)"/>
       <path id="DejaVuSans-37" d="M 525 4666 
L 3525 4666 
L 3525 4397 
L 1831 0 
L 1172 0 
L 2766 4134 
L 525 4134 
L 525 4666 
z
" transform="scale(0.015625)"/>
      </defs>
      <use xlink:href="#DejaVuSans-31"/>
      <use xlink:href="#DejaVuSans-65" x="63.623047"/>
      <use xlink:href="#DejaVuSans-37" x="125.146484"/>
     </g>
    </g>
   </g>
   <g id="line2d_9">
    <path d="M 78.59 75.399244 
L 83.606794 64.272951 
L 88.790815 64.334222 
L 93.974836 64.645157 
L 98.657177 62.384485 
L 103.841198 64.075485 
L 108.857992 63.832647 
L 114.042013 63.385499 
L 119.058807 57.858649 
L 124.242828 58.718859 
L 129.426848 62.143915 
L 134.443643 61.515186 
L 139.627663 58.212743 
L 144.644457 61.796645 
L 149.828478 57.883637 
L 155.012499 60.686743 
L 159.69484 58.580409 
L 164.878861 61.106635 
L 169.895655 61.526527 
L 175.079676 62.86112 
L 180.09647 59.538282 
L 185.280491 57.93124 
L 190.464511 61.546946 
L 195.481306 61.810254 
L 200.665326 58.367099 
L 205.682121 60.999982 
L 210.866141 59.141064 
L 216.050162 58.573626 
L 220.732503 55.17354 
L 225.916524 59.002604 
L 230.933318 57.863149 
L 236.117339 56.812253 
L 241.134133 54.864843 
L 246.318154 54.106711 
L 251.502175 58.108283 
L 256.518969 58.192242 
L 261.70299 56.04056 
L 266.719784 56.780479 
L 271.903805 55.652468 
L 277.087825 55.20983 
L 281.937393 58.017546 
L 287.121414 57.920009 
L 292.138208 53.523422 
L 297.322229 56.748772 
L 302.339023 57.70208 
L 307.523044 53.854839 
L 312.707064 57.37748 
L 317.723859 57.999386 
L 322.907879 49.34482 
L 327.924674 48.641221 
L 333.108694 57.422924 
L 338.292715 56.362877 
L 342.975056 50.94497 
L 348.159077 53.042284 
L 353.175871 53.902476 
L 358.359892 53.793499 
L 363.376686 53.32146 
L 368.560707 51.805252 
L 373.744728 54.853499 
L 378.761522 53.251049 
L 383.945543 44.644203 
L 388.962337 45.243438 
L 394.146357 50.048467 
L 399.330378 51.419422 
L 404.012719 46.380576 
L 409.19674 42.260972 
L 414.213534 41.759356 
L 419.397555 48.230398 
L 424.414349 44.478545 
L 429.59837 38.214058 
L 434.782391 43.291439 
L 439.799185 34.430387 
L 444.983206 27.819012 
L 450 33.410745 
" clip-path="url(#pf4f1ee7878)" style="fill: none; stroke: #1f77b4; stroke-width: 1.5; stroke-linecap: square"/>
   </g>
   <g id="patch_3">
    <path d="M 78.59 77.778256 
L 78.59 25.44 
" style="fill: none; stroke: #000000; stroke-width: 0.8; stroke-linejoin: miter; stroke-linecap: square"/>
   </g>
   <g id="patch_4">
    <path d="M 450 77.778256 
L 450 25.44 
" style="fill: none; stroke: #000000; stroke-width: 0.8; stroke-linejoin: miter; stroke-linecap: square"/>
   </g>
   <g id="patch_5">
    <path d="M 78.59 77.778256 
L 450 77.778256 
" style="fill: none; stroke: #000000; stroke-width: 0.8; stroke-linejoin: miter; stroke-linecap: square"/>
   </g>
   <g id="patch_6">
    <path d="M 78.59 25.44 
L 450 25.44 
" style="fill: none; stroke: #000000; stroke-width: 0.8; stroke-linejoin: miter; stroke-linecap: square"/>
   </g>
   <g id="text_4">
    <!-- Sessions -->
    <g transform="translate(238.276562 19.44) scale(0.12 -0.12)">
     <defs>
      <path id="DejaVuSans-53" d="M 3425 4513 
L 3425 3897 
Q 3066 4069 2747 4153 
Q 2428 4238 2131 4238 
Q 1616 4238 1336 4038 
Q 1056 3838 1056 3469 
Q 1056 3159 1242 3001 
Q 1428 2844 1947 2747 
L 2328 2669 
Q 3034 2534 3370 2195 
Q 3706 1856 3706 1288 
Q 3706 609 3251 259 
Q 2797 -91 1919 -91 
Q 1588 -91 1214 -16 
Q 841 59 441 206 
L 441 856 
Q 825 641 1194 531 
Q 1563 422 1919 422 
Q 2459 422 2753 634 
Q 3047 847 3047 1241 
Q 3047 1584 2836 1778 
Q 2625 1972 2144 2069 
L 1759 2144 
Q 1053 2284 737 2584 
Q 422 2884 422 3419 
Q 422 4038 858 4394 
Q 1294 4750 2059 4750 
Q 2388 4750 2728 4690 
Q 3069 4631 3425 4513 
z
" transform="scale(0.015625)"/>
      <path id="DejaVuSans-73" d="M 2834 3397 
L 2834 2853 
Q 2591 2978 2328 3040 
Q 2066 3103 1784 3103 
Q 1356 3103 1142 2972 
Q 928 2841 928 2578 
Q 928 2378 1081 2264 
Q 1234 2150 1697 2047 
L 1894 2003 
Q 2506 1872 2764 1633 
Q 3022 1394 3022 966 
Q 3022 478 2636 193 
Q 2250 -91 1575 -91 
Q 1294 -91 989 -36 
Q 684 19 347 128 
L 347 722 
Q 666 556 975 473 
Q 1284 391 1588 391 
Q 1994 391 2212 530 
Q 2431 669 2431 922 
Q 2431 1156 2273 1281 
Q 2116 1406 1581 1522 
L 1381 1569 
Q 847 1681 609 1914 
Q 372 2147 372 2553 
Q 372 3047 722 3315 
Q 1072 3584 1716 3584 
Q 2034 3584 2315 3537 
Q 2597 3491 2834 3397 
z
" transform="scale(0.015625)"/>
      <path id="DejaVuSans-69" d="M 603 3500 
L 1178 3500 
L 1178 0 
L 603 0 
L 603 3500 
z
M 603 4863 
L 1178 4863 
L 1178 4134 
L 603 4134 
L 603 4863 
z
" transform="scale(0.015625)"/>
      <path id="DejaVuSans-6f" d="M 1959 3097 
Q 1497 3097 1228 2736 
Q 959 2375 959 1747 
Q 959 1119 1226 758 
Q 1494 397 1959 397 
Q 2419 397 2687 759 
Q 2956 1122 2956 1747 
Q 2956 2369 2687 2733 
Q 2419 3097 1959 3097 
z
M 1959 3584 
Q 2709 3584 3137 3096 
Q 3566 2609 3566 1747 
Q 3566 888 3137 398 
Q 2709 -91 1959 -91 
Q 1206 -91 779 398 
Q 353 888 353 1747 
Q 353 2609 779 3096 
Q 1206 3584 1959 3584 
z
" transform="scale(0.015625)"/>
      <path id="DejaVuSans-6e" d="M 3513 2113 
L 3513 0 
L 2938 0 
L 2938 2094 
Q 2938 2591 2744 2837 
Q 2550 3084 2163 3084 
Q 1697 3084 1428 2787 
Q 1159 2491 1159 1978 
L 1159 0 
L 581 0 
L 581 3500 
L 1159 3500 
L 1159 2956 
Q 1366 3272 1645 3428 
Q 1925 3584 2291 3584 
Q 2894 3584 3203 3211 
Q 3513 2838 3513 2113 
z
" transform="scale(0.015625)"/>
     </defs>
     <use xlink:href="#DejaVuSans-53"/>
     <use xlink:href="#DejaVuSans-65" x="63.476562"/>
     <use xlink:href="#DejaVuSans-73" x="125"/>
     <use xlink:href="#DejaVuSans-73" x="177.099609"/>
     <use xlink:href="#DejaVuSans-69" x="229.199219"/>
     <use xlink:href="#DejaVuSans-6f" x="256.982422"/>
     <use xlink:href="#DejaVuSans-6e" x="318.164062"/>
     <use xlink:href="#DejaVuSans-73" x="381.542969"/>
    </g>
   </g>
  </g>
  <g id="axes_2">
   <g id="patch_7">
    <path d="M 78.59 157.758837 
L 450 157.758837 
L 450 105.420581 
L 78.59 105.420581 
z
" style="fill: #ffffff"/>
   </g>
   <g id="matplotlib.axis_3">
    <g id="xtick_7">
     <g id="line2d_10">
      <g>
       <use xlink:href="#me464bdaab6" x="88.790815" y="157.758837" style="stroke: #000000; stroke-width: 0.8"/>
      </g>
     </g>
    </g>
    <g id="xtick_8">
     <g id="line2d_11">
      <g>
       <use xlink:href="#me464bdaab6" x="149.828478" y="157.758837" style="stroke: #000000; stroke-width: 0.8"/>
      </g>
     </g>
    </g>
    <g id="xtick_9">
     <g id="line2d_12">
      <g>
       <use xlink:href="#me464bdaab6" x="210.866141" y="157.758837" style="stroke: #000000; stroke-width: 0.8"/>
      </g>
     </g>
    </g>
    <g id="xtick_10">
     <g id="line2d_13">
      <g>
       <use xlink:href="#me464bdaab6" x="271.903805" y="157.758837" style="stroke: #000000; stroke-width: 0.8"/>
      </g>
     </g>
    </g>
    <g id="xtick_11">
     <g id="line2d_14">
      <g>
       <use xlink:href="#me464bdaab6" x="333.108694" y="157.758837" style="stroke: #000000; stroke-width: 0.8"/>
      </g>
     </g>
    </g>
    <g id="xtick_12">
     <g id="line2d_15">
      <g>
       <use xlink:href="#me464bdaab6" x="394.146357" y="157.758837" style="stroke: #000000; stroke-width: 0.8"/>
      </g>
     </g>
    </g>
   </g>
   <g id="matplotlib.axis_4">
    <g id="ytick_3">
     <g id="line2d_16">
      <g>
       <use xlink:href="#m2da59e94e7" x="78.59" y="144.812439" style="stroke: #000000; stroke-width: 0.8"/>
      </g>
     </g>
     <g id="text_5">
      <!-- 0.5 -->
      <g transform="translate(55.686875 148.611658) scale(0.1 -0.1)">
       <defs>
        <path id="DejaVuSans-2e" d="M 684 794 
L 1344 794 
L 1344 0 
L 684 0 
L 684 794 
z
" transform="scale(0.015625)"/>
        <path id="DejaVuSans-35" d="M 691 4666 
L 3169 4666 
L 3169 4134 
L 1269 4134 
L 1269 2991 
Q 1406 3038 1543 3061 
Q 1681 3084 1819 3084 
Q 2600 3084 3056 2656 
Q 3513 2228 3513 1497 
Q 3513 744 3044 326 
Q 2575 -91 1722 -91 
Q 1428 -91 1123 -41 
Q 819 9 494 109 
L 494 744 
Q 775 591 1075 516 
Q 1375 441 1709 441 
Q 2250 441 2565 725 
Q 2881 1009 2881 1497 
Q 2881 1984 2565 2268 
Q 2250 2553 1709 2553 
Q 1456 2553 1204 2497 
Q 953 2441 691 2322 
L 691 4666 
z
" transform="scale(0.015625)"/>
       </defs>
       <use xlink:href="#DejaVuSans-30"/>
       <use xlink:href="#DejaVuSans-2e" x="63.623047"/>
       <use xlink:href="#DejaVuSans-35" x="95.410156"/>
      </g>
     </g>
    </g>
    <g id="ytick_4">
     <g id="line2d_17">
      <g>
       <use xlink:href="#m2da59e94e7" x="78.59" y="108.736588" style="stroke: #000000; stroke-width: 0.8"/>
      </g>
     </g>
     <g id="text_6">
      <!-- 1.0 -->
      <g transform="translate(55.686875 112.535807) scale(0.1 -0.1)">
       <use xlink:href="#DejaVuSans-31"/>
       <use xlink:href="#DejaVuSans-2e" x="63.623047"/>
       <use xlink:href="#DejaVuSans-30" x="95.410156"/>
      </g>
     </g>
    </g>
    <g id="text_7">
     <!-- Trend -->
     <g transform="translate(49.607188 145.268616) rotate(-90) scale(0.1 -0.1)">
      <defs>
       <path id="DejaVuSans-54" d="M -19 4666 
L 3928 4666 
L 3928 4134 
L 2272 4134 
L 2272 0 
L 1638 0 
L 1638 4134 
L -19 4134 
L -19 4666 
z
" transform="scale(0.015625)"/>
       <path id="DejaVuSans-72" d="M 2631 2963 
Q 2534 3019 2420 3045 
Q 2306 3072 2169 3072 
Q 1681 3072 1420 2755 
Q 1159 2438 1159 1844 
L 1159 0 
L 581 0 
L 581 3500 
L 1159 3500 
L 1159 2956 
Q 1341 3275 1631 3429 
Q 1922 3584 2338 3584 
Q 2397 3584 2469 3576 
Q 2541 3569 2628 3553 
L 2631 2963 
z
" transform="scale(0.015625)"/>
       <path id="DejaVuSans-64" d="M 2906 2969 
L 2906 4863 
L 3481 4863 
L 3481 0 
L 2906 0 
L 2906 525 
Q 2725 213 2448 61 
Q 2172 -91 1784 -91 
Q 1150 -91 751 415 
Q 353 922 353 1747 
Q 353 2572 751 3078 
Q 1150 3584 1784 3584 
Q 2172 3584 2448 3432 
Q 2725 3281 2906 2969 
z
M 947 1747 
Q 947 1113 1208 752 
Q 1469 391 1925 391 
Q 2381 391 2643 752 
Q 2906 1113 2906 1747 
Q 2906 2381 2643 2742 
Q 2381 3103 1925 3103 
Q 1469 3103 1208 2742 
Q 947 2381 947 1747 
z
" transform="scale(0.015625)"/>
      </defs>
      <use xlink:href="#DejaVuSans-54"/>
      <use xlink:href="#DejaVuSans-72" x="46.333984"/>
      <use xlink:href="#DejaVuSans-65" x="85.197266"/>
      <use xlink:href="#DejaVuSans-6e" x="146.720703"/>
      <use xlink:href="#DejaVuSans-64" x="210.099609"/>
     </g>
    </g>
    <g id="text_8">
     <!-- 1e7 -->
     <g transform="translate(78.59 102.420581) scale(0.1 -0.1)">
      <use xlink:href="#DejaVuSans-31"/>
      <use xlink:href="#DejaVuSans-65" x="63.623047"/>
      <use xlink:href="#DejaVuSans-37" x="125.146484"/>
     </g>
    </g>
   </g>
   <g id="line2d_18">
    <path d="M 103.841198 155.379826 
L 108.857992 152.730576 
L 114.042013 151.574214 
L 119.058807 151.090013 
L 124.242828 149.799832 
L 129.426848 149.475882 
L 134.443643 148.427354 
L 139.627663 147.907197 
L 144.644457 147.552482 
L 149.828478 148.507015 
L 155.012499 148.663371 
L 159.69484 147.859541 
L 164.878861 147.865601 
L 169.895655 148.55205 
L 175.079676 147.897651 
L 180.09647 148.492288 
L 185.280491 148.197353 
L 190.464511 148.196059 
L 195.481306 147.063952 
L 200.665326 146.582356 
L 205.682121 145.628682 
L 210.866141 145.108522 
L 216.050162 144.523415 
L 220.732503 143.103727 
L 225.916524 142.397346 
L 230.933318 142.363981 
L 236.117339 141.417662 
L 241.134133 140.967233 
L 246.318154 140.40984 
L 251.502175 140.416765 
L 256.518969 140.228804 
L 261.70299 140.239653 
L 266.719784 139.612104 
L 271.903805 139.971581 
L 277.087825 140.657622 
L 281.937393 139.846012 
L 287.121414 139.690546 
L 292.138208 140.064314 
L 297.322229 138.645498 
L 302.339023 137.307666 
L 307.523044 137.729952 
L 312.707064 137.41422 
L 317.723859 136.083297 
L 322.907879 135.99149 
L 327.924674 135.448382 
L 333.108694 134.702576 
L 338.292715 134.600801 
L 342.975056 133.537551 
L 348.159077 132.937277 
L 353.175871 133.682634 
L 358.359892 132.919954 
L 363.376686 130.595958 
L 368.560707 129.391091 
L 373.744728 129.481622 
L 378.761522 128.210486 
L 383.945543 125.989144 
L 388.962337 123.692881 
L 394.146357 122.721444 
L 399.330378 121.323418 
L 404.012719 118.148408 
L 409.19674 116.247992 
L 414.213534 114.29907 
L 419.397555 110.974275 
L 424.414349 107.799593 
" clip-path="url(#p1d55683b3a)" style="fill: none; stroke: #1f77b4; stroke-width: 1.5; stroke-linecap: square"/>
   </g>
   <g id="patch_8">
    <path d="M 78.59 157.758837 
L 78.59 105.420581 
" style="fill: none; stroke: #000000; stroke-width: 0.8; stroke-linejoin: miter; stroke-linecap: square"/>
   </g>
   <g id="patch_9">
    <path d="M 450 157.758837 
L 450 105.420581 
" style="fill: none; stroke: #000000; stroke-width: 0.8; stroke-linejoin: miter; stroke-linecap: square"/>
   </g>
   <g id="patch_10">
    <path d="M 78.59 157.758837 
L 450 157.758837 
" style="fill: none; stroke: #000000; stroke-width: 0.8; stroke-linejoin: miter; stroke-linecap: square"/>
   </g>
   <g id="patch_11">
    <path d="M 78.59 105.420581 
L 450 105.420581 
" style="fill: none; stroke: #000000; stroke-width: 0.8; stroke-linejoin: miter; stroke-linecap: square"/>
   </g>
  </g>
  <g id="axes_3">
   <g id="patch_12">
    <path d="M 78.59 237.739419 
L 450 237.739419 
L 450 185.401163 
L 78.59 185.401163 
z
" style="fill: #ffffff"/>
   </g>
   <g id="matplotlib.axis_5">
    <g id="xtick_13">
     <g id="line2d_19">
      <g>
       <use xlink:href="#me464bdaab6" x="88.790815" y="237.739419" style="stroke: #000000; stroke-width: 0.8"/>
      </g>
     </g>
    </g>
    <g id="xtick_14">
     <g id="line2d_20">
      <g>
       <use xlink:href="#me464bdaab6" x="149.828478" y="237.739419" style="stroke: #000000; stroke-width: 0.8"/>
      </g>
     </g>
    </g>
    <g id="xtick_15">
     <g id="line2d_21">
      <g>
       <use xlink:href="#me464bdaab6" x="210.866141" y="237.739419" style="stroke: #000000; stroke-width: 0.8"/>
      </g>
     </g>
    </g>
    <g id="xtick_16">
     <g id="line2d_22">
      <g>
       <use xlink:href="#me464bdaab6" x="271.903805" y="237.739419" style="stroke: #000000; stroke-width: 0.8"/>
      </g>
     </g>
    </g>
    <g id="xtick_17">
     <g id="line2d_23">
      <g>
       <use xlink:href="#me464bdaab6" x="333.108694" y="237.739419" style="stroke: #000000; stroke-width: 0.8"/>
      </g>
     </g>
    </g>
    <g id="xtick_18">
     <g id="line2d_24">
      <g>
       <use xlink:href="#me464bdaab6" x="394.146357" y="237.739419" style="stroke: #000000; stroke-width: 0.8"/>
      </g>
     </g>
    </g>
   </g>
   <g id="matplotlib.axis_6">
    <g id="ytick_5">
     <g id="line2d_25">
      <g>
       <use xlink:href="#m2da59e94e7" x="78.59" y="237.560579" style="stroke: #000000; stroke-width: 0.8"/>
      </g>
     </g>
     <g id="text_9">
      <!-- −500000 -->
      <g transform="translate(25.035313 241.359798) scale(0.1 -0.1)">
       <defs>
        <path id="DejaVuSans-2212" d="M 678 2272 
L 4684 2272 
L 4684 1741 
L 678 1741 
L 678 2272 
z
" transform="scale(0.015625)"/>
       </defs>
       <use xlink:href="#DejaVuSans-2212"/>
       <use xlink:href="#DejaVuSans-35" x="83.789062"/>
       <use xlink:href="#DejaVuSans-30" x="147.412109"/>
       <use xlink:href="#DejaVuSans-30" x="211.035156"/>
       <use xlink:href="#DejaVuSans-30" x="274.658203"/>
       <use xlink:href="#DejaVuSans-30" x="338.28125"/>
       <use xlink:href="#DejaVuSans-30" x="401.904297"/>
      </g>
     </g>
    </g>
    <g id="ytick_6">
     <g id="line2d_26">
      <g>
       <use xlink:href="#m2da59e94e7" x="78.59" y="215.93791" style="stroke: #000000; stroke-width: 0.8"/>
      </g>
     </g>
     <g id="text_10">
      <!-- 0 -->
      <g transform="translate(65.2275 219.737128) scale(0.1 -0.1)">
       <use xlink:href="#DejaVuSans-30"/>
      </g>
     </g>
    </g>
    <g id="ytick_7">
     <g id="line2d_27">
      <g>
       <use xlink:href="#m2da59e94e7" x="78.59" y="194.31524" style="stroke: #000000; stroke-width: 0.8"/>
      </g>
     </g>
     <g id="text_11">
      <!-- 500000 -->
      <g transform="translate(33.415 198.114459) scale(0.1 -0.1)">
       <use xlink:href="#DejaVuSans-35"/>
       <use xlink:href="#DejaVuSans-30" x="63.623047"/>
       <use xlink:href="#DejaVuSans-30" x="127.246094"/>
       <use xlink:href="#DejaVuSans-30" x="190.869141"/>
       <use xlink:href="#DejaVuSans-30" x="254.492188"/>
       <use xlink:href="#DejaVuSans-30" x="318.115234"/>
      </g>
     </g>
    </g>
    <g id="text_12">
     <!-- Seasonal -->
     <g transform="translate(18.955625 234.171072) rotate(-90) scale(0.1 -0.1)">
      <defs>
       <path id="DejaVuSans-61" d="M 2194 1759 
Q 1497 1759 1228 1600 
Q 959 1441 959 1056 
Q 959 750 1161 570 
Q 1363 391 1709 391 
Q 2188 391 2477 730 
Q 2766 1069 2766 1631 
L 2766 1759 
L 2194 1759 
z
M 3341 1997 
L 3341 0 
L 2766 0 
L 2766 531 
Q 2569 213 2275 61 
Q 1981 -91 1556 -91 
Q 1019 -91 701 211 
Q 384 513 384 1019 
Q 384 1609 779 1909 
Q 1175 2209 1959 2209 
L 2766 2209 
L 2766 2266 
Q 2766 2663 2505 2880 
Q 2244 3097 1772 3097 
Q 1472 3097 1187 3025 
Q 903 2953 641 2809 
L 641 3341 
Q 956 3463 1253 3523 
Q 1550 3584 1831 3584 
Q 2591 3584 2966 3190 
Q 3341 2797 3341 1997 
z
" transform="scale(0.015625)"/>
       <path id="DejaVuSans-6c" d="M 603 4863 
L 1178 4863 
L 1178 0 
L 603 0 
L 603 4863 
z
" transform="scale(0.015625)"/>
      </defs>
      <use xlink:href="#DejaVuSans-53"/>
      <use xlink:href="#DejaVuSans-65" x="63.476562"/>
      <use xlink:href="#DejaVuSans-61" x="125"/>
      <use xlink:href="#DejaVuSans-73" x="186.279297"/>
      <use xlink:href="#DejaVuSans-6f" x="238.378906"/>
      <use xlink:href="#DejaVuSans-6e" x="299.560547"/>
      <use xlink:href="#DejaVuSans-61" x="362.939453"/>
      <use xlink:href="#DejaVuSans-6c" x="424.21875"/>
     </g>
    </g>
   </g>
   <g id="line2d_28">
    <path d="M 78.59 215.900508 
L 83.606794 229.294708 
L 88.790815 231.81971 
L 93.974836 228.810882 
L 98.657177 210.063068 
L 103.841198 187.780174 
L 108.857992 210.59202 
L 114.042013 235.360407 
L 119.058807 219.276175 
L 124.242828 201.561367 
L 129.426848 204.857984 
L 134.443643 215.900508 
L 139.627663 229.294708 
L 144.644457 231.81971 
L 149.828478 228.810882 
L 155.012499 210.063068 
L 159.69484 187.780174 
L 164.878861 210.59202 
L 169.895655 235.360407 
L 175.079676 219.276175 
L 180.09647 201.561367 
L 185.280491 204.857984 
L 190.464511 215.900508 
L 195.481306 229.294708 
L 200.665326 231.81971 
L 205.682121 228.810882 
L 210.866141 210.063068 
L 216.050162 187.780174 
L 220.732503 210.59202 
L 225.916524 235.360407 
L 230.933318 219.276175 
L 236.117339 201.561367 
L 241.134133 204.857984 
L 246.318154 215.900508 
L 251.502175 229.294708 
L 256.518969 231.81971 
L 261.70299 228.810882 
L 266.719784 210.063068 
L 271.903805 187.780174 
L 277.087825 210.59202 
L 281.937393 235.360407 
L 287.121414 219.276175 
L 292.138208 201.561367 
L 297.322229 204.857984 
L 302.339023 215.900508 
L 307.523044 229.294708 
L 312.707064 231.81971 
L 317.723859 228.810882 
L 322.907879 210.063068 
L 327.924674 187.780174 
L 333.108694 210.59202 
L 338.292715 235.360407 
L 342.975056 219.276175 
L 348.159077 201.561367 
L 353.175871 204.857984 
L 358.359892 215.900508 
L 363.376686 229.294708 
L 368.560707 231.81971 
L 373.744728 228.810882 
L 378.761522 210.063068 
L 383.945543 187.780174 
L 388.962337 210.59202 
L 394.146357 235.360407 
L 399.330378 219.276175 
L 404.012719 201.561367 
L 409.19674 204.857984 
L 414.213534 215.900508 
L 419.397555 229.294708 
L 424.414349 231.81971 
L 429.59837 228.810882 
L 434.782391 210.063068 
L 439.799185 187.780174 
L 444.983206 210.59202 
L 450 235.360407 
" clip-path="url(#p65a4e8e415)" style="fill: none; stroke: #1f77b4; stroke-width: 1.5; stroke-linecap: square"/>
   </g>
   <g id="patch_13">
    <path d="M 78.59 237.739419 
L 78.59 185.401163 
" style="fill: none; stroke: #000000; stroke-width: 0.8; stroke-linejoin: miter; stroke-linecap: square"/>
   </g>
   <g id="patch_14">
    <path d="M 450 237.739419 
L 450 185.401163 
" style="fill: none; stroke: #000000; stroke-width: 0.8; stroke-linejoin: miter; stroke-linecap: square"/>
   </g>
   <g id="patch_15">
    <path d="M 78.59 237.739419 
L 450 237.739419 
" style="fill: none; stroke: #000000; stroke-width: 0.8; stroke-linejoin: miter; stroke-linecap: square"/>
   </g>
   <g id="patch_16">
    <path d="M 78.59 185.401163 
L 450 185.401163 
" style="fill: none; stroke: #000000; stroke-width: 0.8; stroke-linejoin: miter; stroke-linecap: square"/>
   </g>
  </g>
  <g id="axes_4">
   <g id="patch_17">
    <path d="M 78.59 317.72 
L 450 317.72 
L 450 265.381744 
L 78.59 265.381744 
z
" style="fill: #ffffff"/>
   </g>
   <g id="line2d_29">
    <path d="M 78.59 291.781459 
L 450 291.781459 
" clip-path="url(#p0e8afbb812)" style="fill: none; stroke: #000000; stroke-width: 1.5; stroke-linecap: square"/>
   </g>
   <g id="matplotlib.axis_7">
    <g id="xtick_19">
     <g id="line2d_30">
      <g>
       <use xlink:href="#me464bdaab6" x="88.790815" y="317.72" style="stroke: #000000; stroke-width: 0.8"/>
      </g>
     </g>
     <g id="text_13">
      <!-- 2017 -->
      <g transform="translate(76.065815 332.318438) scale(0.1 -0.1)">
       <defs>
        <path id="DejaVuSans-32" d="M 1228 531 
L 3431 531 
L 3431 0 
L 469 0 
L 469 531 
Q 828 903 1448 1529 
Q 2069 2156 2228 2338 
Q 2531 2678 2651 2914 
Q 2772 3150 2772 3378 
Q 2772 3750 2511 3984 
Q 2250 4219 1831 4219 
Q 1534 4219 1204 4116 
Q 875 4013 500 3803 
L 500 4441 
Q 881 4594 1212 4672 
Q 1544 4750 1819 4750 
Q 2544 4750 2975 4387 
Q 3406 4025 3406 3419 
Q 3406 3131 3298 2873 
Q 3191 2616 2906 2266 
Q 2828 2175 2409 1742 
Q 1991 1309 1228 531 
z
" transform="scale(0.015625)"/>
       </defs>
       <use xlink:href="#DejaVuSans-32"/>
       <use xlink:href="#DejaVuSans-30" x="63.623047"/>
       <use xlink:href="#DejaVuSans-31" x="127.246094"/>
       <use xlink:href="#DejaVuSans-37" x="190.869141"/>
      </g>
     </g>
    </g>
    <g id="xtick_20">
     <g id="line2d_31">
      <g>
       <use xlink:href="#me464bdaab6" x="149.828478" y="317.72" style="stroke: #000000; stroke-width: 0.8"/>
      </g>
     </g>
     <g id="text_14">
      <!-- 2018 -->
      <g transform="translate(137.103478 332.318438) scale(0.1 -0.1)">
       <defs>
        <path id="DejaVuSans-38" d="M 2034 2216 
Q 1584 2216 1326 1975 
Q 1069 1734 1069 1313 
Q 1069 891 1326 650 
Q 1584 409 2034 409 
Q 2484 409 2743 651 
Q 3003 894 3003 1313 
Q 3003 1734 2745 1975 
Q 2488 2216 2034 2216 
z
M 1403 2484 
Q 997 2584 770 2862 
Q 544 3141 544 3541 
Q 544 4100 942 4425 
Q 1341 4750 2034 4750 
Q 2731 4750 3128 4425 
Q 3525 4100 3525 3541 
Q 3525 3141 3298 2862 
Q 3072 2584 2669 2484 
Q 3125 2378 3379 2068 
Q 3634 1759 3634 1313 
Q 3634 634 3220 271 
Q 2806 -91 2034 -91 
Q 1263 -91 848 271 
Q 434 634 434 1313 
Q 434 1759 690 2068 
Q 947 2378 1403 2484 
z
M 1172 3481 
Q 1172 3119 1398 2916 
Q 1625 2713 2034 2713 
Q 2441 2713 2670 2916 
Q 2900 3119 2900 3481 
Q 2900 3844 2670 4047 
Q 2441 4250 2034 4250 
Q 1625 4250 1398 4047 
Q 1172 3844 1172 3481 
z
" transform="scale(0.015625)"/>
       </defs>
       <use xlink:href="#DejaVuSans-32"/>
       <use xlink:href="#DejaVuSans-30" x="63.623047"/>
       <use xlink:href="#DejaVuSans-31" x="127.246094"/>
       <use xlink:href="#DejaVuSans-38" x="190.869141"/>
      </g>
     </g>
    </g>
    <g id="xtick_21">
     <g id="line2d_32">
      <g>
       <use xlink:href="#me464bdaab6" x="210.866141" y="317.72" style="stroke: #000000; stroke-width: 0.8"/>
      </g>
     </g>
     <g id="text_15">
      <!-- 2019 -->
      <g transform="translate(198.141141 332.318438) scale(0.1 -0.1)">
       <defs>
        <path id="DejaVuSans-39" d="M 703 97 
L 703 672 
Q 941 559 1184 500 
Q 1428 441 1663 441 
Q 2288 441 2617 861 
Q 2947 1281 2994 2138 
Q 2813 1869 2534 1725 
Q 2256 1581 1919 1581 
Q 1219 1581 811 2004 
Q 403 2428 403 3163 
Q 403 3881 828 4315 
Q 1253 4750 1959 4750 
Q 2769 4750 3195 4129 
Q 3622 3509 3622 2328 
Q 3622 1225 3098 567 
Q 2575 -91 1691 -91 
Q 1453 -91 1209 -44 
Q 966 3 703 97 
z
M 1959 2075 
Q 2384 2075 2632 2365 
Q 2881 2656 2881 3163 
Q 2881 3666 2632 3958 
Q 2384 4250 1959 4250 
Q 1534 4250 1286 3958 
Q 1038 3666 1038 3163 
Q 1038 2656 1286 2365 
Q 1534 2075 1959 2075 
z
" transform="scale(0.015625)"/>
       </defs>
       <use xlink:href="#DejaVuSans-32"/>
       <use xlink:href="#DejaVuSans-30" x="63.623047"/>
       <use xlink:href="#DejaVuSans-31" x="127.246094"/>
       <use xlink:href="#DejaVuSans-39" x="190.869141"/>
      </g>
     </g>
    </g>
    <g id="xtick_22">
     <g id="line2d_33">
      <g>
       <use xlink:href="#me464bdaab6" x="271.903805" y="317.72" style="stroke: #000000; stroke-width: 0.8"/>
      </g>
     </g>
     <g id="text_16">
      <!-- 2020 -->
      <g transform="translate(259.178805 332.318438) scale(0.1 -0.1)">
       <use xlink:href="#DejaVuSans-32"/>
       <use xlink:href="#DejaVuSans-30" x="63.623047"/>
       <use xlink:href="#DejaVuSans-32" x="127.246094"/>
       <use xlink:href="#DejaVuSans-30" x="190.869141"/>
      </g>
     </g>
    </g>
    <g id="xtick_23">
     <g id="line2d_34">
      <g>
       <use xlink:href="#me464bdaab6" x="333.108694" y="317.72" style="stroke: #000000; stroke-width: 0.8"/>
      </g>
     </g>
     <g id="text_17">
      <!-- 2021 -->
      <g transform="translate(320.383694 332.318438) scale(0.1 -0.1)">
       <use xlink:href="#DejaVuSans-32"/>
       <use xlink:href="#DejaVuSans-30" x="63.623047"/>
       <use xlink:href="#DejaVuSans-32" x="127.246094"/>
       <use xlink:href="#DejaVuSans-31" x="190.869141"/>
      </g>
     </g>
    </g>
    <g id="xtick_24">
     <g id="line2d_35">
      <g>
       <use xlink:href="#me464bdaab6" x="394.146357" y="317.72" style="stroke: #000000; stroke-width: 0.8"/>
      </g>
     </g>
     <g id="text_18">
      <!-- 2022 -->
      <g transform="translate(381.421357 332.318438) scale(0.1 -0.1)">
       <use xlink:href="#DejaVuSans-32"/>
       <use xlink:href="#DejaVuSans-30" x="63.623047"/>
       <use xlink:href="#DejaVuSans-32" x="127.246094"/>
       <use xlink:href="#DejaVuSans-32" x="190.869141"/>
      </g>
     </g>
    </g>
   </g>
   <g id="matplotlib.axis_8">
    <g id="ytick_8">
     <g id="line2d_36">
      <g>
       <use xlink:href="#m2da59e94e7" x="78.59" y="309.41418" style="stroke: #000000; stroke-width: 0.8"/>
      </g>
     </g>
     <g id="text_19">
      <!-- −1 -->
      <g transform="translate(56.847813 313.213399) scale(0.1 -0.1)">
       <use xlink:href="#DejaVuSans-2212"/>
       <use xlink:href="#DejaVuSans-31" x="83.789062"/>
      </g>
     </g>
    </g>
    <g id="ytick_9">
     <g id="line2d_37">
      <g>
       <use xlink:href="#m2da59e94e7" x="78.59" y="291.781459" style="stroke: #000000; stroke-width: 0.8"/>
      </g>
     </g>
     <g id="text_20">
      <!-- 0 -->
      <g transform="translate(65.2275 295.580678) scale(0.1 -0.1)">
       <use xlink:href="#DejaVuSans-30"/>
      </g>
     </g>
    </g>
    <g id="ytick_10">
     <g id="line2d_38">
      <g>
       <use xlink:href="#m2da59e94e7" x="78.59" y="274.148738" style="stroke: #000000; stroke-width: 0.8"/>
      </g>
     </g>
     <g id="text_21">
      <!-- 1 -->
      <g transform="translate(65.2275 277.947956) scale(0.1 -0.1)">
       <use xlink:href="#DejaVuSans-31"/>
      </g>
     </g>
    </g>
    <g id="text_22">
     <!-- Resid -->
     <g transform="translate(50.768125 305.044622) rotate(-90) scale(0.1 -0.1)">
      <defs>
       <path id="DejaVuSans-52" d="M 2841 2188 
Q 3044 2119 3236 1894 
Q 3428 1669 3622 1275 
L 4263 0 
L 3584 0 
L 2988 1197 
Q 2756 1666 2539 1819 
Q 2322 1972 1947 1972 
L 1259 1972 
L 1259 0 
L 628 0 
L 628 4666 
L 2053 4666 
Q 2853 4666 3247 4331 
Q 3641 3997 3641 3322 
Q 3641 2881 3436 2590 
Q 3231 2300 2841 2188 
z
M 1259 4147 
L 1259 2491 
L 2053 2491 
Q 2509 2491 2742 2702 
Q 2975 2913 2975 3322 
Q 2975 3731 2742 3939 
Q 2509 4147 2053 4147 
L 1259 4147 
z
" transform="scale(0.015625)"/>
      </defs>
      <use xlink:href="#DejaVuSans-52"/>
      <use xlink:href="#DejaVuSans-65" x="64.982422"/>
      <use xlink:href="#DejaVuSans-73" x="126.505859"/>
      <use xlink:href="#DejaVuSans-69" x="178.605469"/>
      <use xlink:href="#DejaVuSans-64" x="206.388672"/>
     </g>
    </g>
    <g id="text_23">
     <!-- 1e6 -->
     <g transform="translate(78.59 262.381744) scale(0.1 -0.1)">
      <defs>
       <path id="DejaVuSans-36" d="M 2113 2584 
Q 1688 2584 1439 2293 
Q 1191 2003 1191 1497 
Q 1191 994 1439 701 
Q 1688 409 2113 409 
Q 2538 409 2786 701 
Q 3034 994 3034 1497 
Q 3034 2003 2786 2293 
Q 2538 2584 2113 2584 
z
M 3366 4563 
L 3366 3988 
Q 3128 4100 2886 4159 
Q 2644 4219 2406 4219 
Q 1781 4219 1451 3797 
Q 1122 3375 1075 2522 
Q 1259 2794 1537 2939 
Q 1816 3084 2150 3084 
Q 2853 3084 3261 2657 
Q 3669 2231 3669 1497 
Q 3669 778 3244 343 
Q 2819 -91 2113 -91 
Q 1303 -91 875 529 
Q 447 1150 447 2328 
Q 447 3434 972 4092 
Q 1497 4750 2381 4750 
Q 2619 4750 2861 4703 
Q 3103 4656 3366 4563 
z
" transform="scale(0.015625)"/>
      </defs>
      <use xlink:href="#DejaVuSans-31"/>
      <use xlink:href="#DejaVuSans-65" x="63.623047"/>
      <use xlink:href="#DejaVuSans-36" x="125.146484"/>
     </g>
    </g>
   </g>
   <g id="line2d_39">
    <defs>
     <path id="m7e1f0a35c8" d="M 0 3 
C 0.795609 3 1.55874 2.683901 2.12132 2.12132 
C 2.683901 1.55874 3 0.795609 3 0 
C 3 -0.795609 2.683901 -1.55874 2.12132 -2.12132 
C 1.55874 -2.683901 0.795609 -3 0 -3 
C -0.795609 -3 -1.55874 -2.683901 -2.12132 -2.12132 
C -2.683901 -1.55874 -3 -0.795609 -3 0 
C -3 0.795609 -2.683901 1.55874 -2.12132 2.12132 
C -1.55874 2.683901 -0.795609 3 0 3 
z
" style="stroke: #1f77b4"/>
    </defs>
    <g clip-path="url(#p0e8afbb812)">
     <use xlink:href="#m7e1f0a35c8" x="103.841198" y="305.024714" style="fill: #1f77b4; stroke: #1f77b4"/>
     <use xlink:href="#m7e1f0a35c8" x="108.857992" y="300.952195" style="fill: #1f77b4; stroke: #1f77b4"/>
     <use xlink:href="#m7e1f0a35c8" x="114.042013" y="291.385545" style="fill: #1f77b4; stroke: #1f77b4"/>
     <use xlink:href="#m7e1f0a35c8" x="119.058807" y="270.777223" style="fill: #1f77b4; stroke: #1f77b4"/>
     <use xlink:href="#m7e1f0a35c8" x="124.242828" y="285.565613" style="fill: #1f77b4; stroke: #1f77b4"/>
     <use xlink:href="#m7e1f0a35c8" x="129.426848" y="302.58184" style="fill: #1f77b4; stroke: #1f77b4"/>
     <use xlink:href="#m7e1f0a35c8" x="134.443643" y="297.416788" style="fill: #1f77b4; stroke: #1f77b4"/>
     <use xlink:href="#m7e1f0a35c8" x="139.627663" y="276.286902" style="fill: #1f77b4; stroke: #1f77b4"/>
     <use xlink:href="#m7e1f0a35c8" x="144.644457" y="294.507719" style="fill: #1f77b4; stroke: #1f77b4"/>
     <use xlink:href="#m7e1f0a35c8" x="149.828478" y="273.330177" style="fill: #1f77b4; stroke: #1f77b4"/>
     <use xlink:href="#m7e1f0a35c8" x="155.012499" y="294.97067" style="fill: #1f77b4; stroke: #1f77b4"/>
     <use xlink:href="#m7e1f0a35c8" x="159.69484" y="295.2163" style="fill: #1f77b4; stroke: #1f77b4"/>
     <use xlink:href="#m7e1f0a35c8" x="164.878861" y="298.85844" style="fill: #1f77b4; stroke: #1f77b4"/>
     <use xlink:href="#m7e1f0a35c8" x="169.895655" y="289.235701" style="fill: #1f77b4; stroke: #1f77b4"/>
     <use xlink:href="#m7e1f0a35c8" x="175.079676" y="304.238829" style="fill: #1f77b4; stroke: #1f77b4"/>
     <use xlink:href="#m7e1f0a35c8" x="180.09647" y="292.964242" style="fill: #1f77b4; stroke: #1f77b4"/>
     <use xlink:href="#m7e1f0a35c8" x="185.280491" y="284.0976" style="fill: #1f77b4; stroke: #1f77b4"/>
     <use xlink:href="#m7e1f0a35c8" x="190.464511" y="298.144944" style="fill: #1f77b4; stroke: #1f77b4"/>
     <use xlink:href="#m7e1f0a35c8" x="195.481306" y="296.800955" style="fill: #1f77b4; stroke: #1f77b4"/>
     <use xlink:href="#m7e1f0a35c8" x="200.665326" y="279.286827" style="fill: #1f77b4; stroke: #1f77b4"/>
     <use xlink:href="#m7e1f0a35c8" x="205.682121" y="296.349536" style="fill: #1f77b4; stroke: #1f77b4"/>
     <use xlink:href="#m7e1f0a35c8" x="210.866141" y="295.729653" style="fill: #1f77b4; stroke: #1f77b4"/>
     <use xlink:href="#m7e1f0a35c8" x="216.050162" y="303.334467" style="fill: #1f77b4; stroke: #1f77b4"/>
     <use xlink:href="#m7e1f0a35c8" x="220.732503" y="280.062114" style="fill: #1f77b4; stroke: #1f77b4"/>
     <use xlink:href="#m7e1f0a35c8" x="225.916524" y="291.330447" style="fill: #1f77b4; stroke: #1f77b4"/>
     <use xlink:href="#m7e1f0a35c8" x="230.933318" y="292.125332" style="fill: #1f77b4; stroke: #1f77b4"/>
     <use xlink:href="#m7e1f0a35c8" x="236.117339" y="296.27043" style="fill: #1f77b4; stroke: #1f77b4"/>
     <use xlink:href="#m7e1f0a35c8" x="241.134133" y="286.037887" style="fill: #1f77b4; stroke: #1f77b4"/>
     <use xlink:href="#m7e1f0a35c8" x="246.318154" y="279.008813" style="fill: #1f77b4; stroke: #1f77b4"/>
     <use xlink:href="#m7e1f0a35c8" x="251.502175" y="294.056497" style="fill: #1f77b4; stroke: #1f77b4"/>
     <use xlink:href="#m7e1f0a35c8" x="256.518969" y="293.916969" style="fill: #1f77b4; stroke: #1f77b4"/>
     <use xlink:href="#m7e1f0a35c8" x="261.70299" y="284.080291" style="fill: #1f77b4; stroke: #1f77b4"/>
     <use xlink:href="#m7e1f0a35c8" x="266.719784" y="297.053488" style="fill: #1f77b4; stroke: #1f77b4"/>
     <use xlink:href="#m7e1f0a35c8" x="271.903805" y="299.474453" style="fill: #1f77b4; stroke: #1f77b4"/>
     <use xlink:href="#m7e1f0a35c8" x="277.087825" y="286.226153" style="fill: #1f77b4; stroke: #1f77b4"/>
     <use xlink:href="#m7e1f0a35c8" x="281.937393" y="292.512683" style="fill: #1f77b4; stroke: #1f77b4"/>
     <use xlink:href="#m7e1f0a35c8" x="287.121414" y="298.950442" style="fill: #1f77b4; stroke: #1f77b4"/>
     <use xlink:href="#m7e1f0a35c8" x="292.138208" y="282.707867" style="fill: #1f77b4; stroke: #1f77b4"/>
     <use xlink:href="#m7e1f0a35c8" x="297.322229" y="301.375378" style="fill: #1f77b4; stroke: #1f77b4"/>
     <use xlink:href="#m7e1f0a35c8" x="302.339023" y="305.032341" style="fill: #1f77b4; stroke: #1f77b4"/>
     <use xlink:href="#m7e1f0a35c8" x="307.523044" y="278.804756" style="fill: #1f77b4; stroke: #1f77b4"/>
     <use xlink:href="#m7e1f0a35c8" x="312.707064" y="296.61607" style="fill: #1f77b4; stroke: #1f77b4"/>
     <use xlink:href="#m7e1f0a35c8" x="317.723859" y="304.285486" style="fill: #1f77b4; stroke: #1f77b4"/>
     <use xlink:href="#m7e1f0a35c8" x="322.907879" y="267.760756" style="fill: #1f77b4; stroke: #1f77b4"/>
     <use xlink:href="#m7e1f0a35c8" x="327.924674" y="274.564501" style="fill: #1f77b4; stroke: #1f77b4"/>
     <use xlink:href="#m7e1f0a35c8" x="333.108694" y="312.131312" style="fill: #1f77b4; stroke: #1f77b4"/>
     <use xlink:href="#m7e1f0a35c8" x="338.292715" y="296.843576" style="fill: #1f77b4; stroke: #1f77b4"/>
     <use xlink:href="#m7e1f0a35c8" x="342.975056" y="278.209173" style="fill: #1f77b4; stroke: #1f77b4"/>
     <use xlink:href="#m7e1f0a35c8" x="348.159077" y="297.657221" style="fill: #1f77b4; stroke: #1f77b4"/>
     <use xlink:href="#m7e1f0a35c8" x="353.175871" y="298.903861" style="fill: #1f77b4; stroke: #1f77b4"/>
     <use xlink:href="#m7e1f0a35c8" x="358.359892" y="295.706292" style="fill: #1f77b4; stroke: #1f77b4"/>
     <use xlink:href="#m7e1f0a35c8" x="363.376686" y="293.503148" style="fill: #1f77b4; stroke: #1f77b4"/>
     <use xlink:href="#m7e1f0a35c8" x="368.560707" y="287.64078" style="fill: #1f77b4; stroke: #1f77b4"/>
     <use xlink:href="#m7e1f0a35c8" x="373.744728" y="304.282214" style="fill: #1f77b4; stroke: #1f77b4"/>
     <use xlink:href="#m7e1f0a35c8" x="378.761522" y="306.813138" style="fill: #1f77b4; stroke: #1f77b4"/>
     <use xlink:href="#m7e1f0a35c8" x="383.945543" y="277.178811" style="fill: #1f77b4; stroke: #1f77b4"/>
     <use xlink:href="#m7e1f0a35c8" x="388.962337" y="276.563032" style="fill: #1f77b4; stroke: #1f77b4"/>
     <use xlink:href="#m7e1f0a35c8" x="394.146357" y="293.485295" style="fill: #1f77b4; stroke: #1f77b4"/>
     <use xlink:href="#m7e1f0a35c8" x="399.330378" y="310.492246" style="fill: #1f77b4; stroke: #1f77b4"/>
     <use xlink:href="#m7e1f0a35c8" x="404.012719" y="299.627872" style="fill: #1f77b4; stroke: #1f77b4"/>
     <use xlink:href="#m7e1f0a35c8" x="409.19674" y="281.796679" style="fill: #1f77b4; stroke: #1f77b4"/>
     <use xlink:href="#m7e1f0a35c8" x="414.213534" y="279.484068" style="fill: #1f77b4; stroke: #1f77b4"/>
     <use xlink:href="#m7e1f0a35c8" x="419.397555" y="315.340988" style="fill: #1f77b4; stroke: #1f77b4"/>
     <use xlink:href="#m7e1f0a35c8" x="424.414349" y="302.82488" style="fill: #1f77b4; stroke: #1f77b4"/>
    </g>
   </g>
   <g id="patch_18">
    <path d="M 78.59 317.72 
L 78.59 265.381744 
" style="fill: none; stroke: #000000; stroke-width: 0.8; stroke-linejoin: miter; stroke-linecap: square"/>
   </g>
   <g id="patch_19">
    <path d="M 450 317.72 
L 450 265.381744 
" style="fill: none; stroke: #000000; stroke-width: 0.8; stroke-linejoin: miter; stroke-linecap: square"/>
   </g>
   <g id="patch_20">
    <path d="M 78.59 317.72 
L 450 317.72 
" style="fill: none; stroke: #000000; stroke-width: 0.8; stroke-linejoin: miter; stroke-linecap: square"/>
   </g>
   <g id="patch_21">
    <path d="M 78.59 265.381744 
L 450 265.381744 
" style="fill: none; stroke: #000000; stroke-width: 0.8; stroke-linejoin: miter; stroke-linecap: square"/>
   </g>
  </g>
 </g>
 <defs>
  <clipPath id="pf4f1ee7878">
   <rect x="78.59" y="25.44" width="371.41" height="52.338256"/>
  </clipPath>
  <clipPath id="p1d55683b3a">
   <rect x="78.59" y="105.420581" width="371.41" height="52.338256"/>
  </clipPath>
  <clipPath id="p65a4e8e415">
   <rect x="78.59" y="185.401163" width="371.41" height="52.338256"/>
  </clipPath>
  <clipPath id="p0e8afbb812">
   <rect x="78.59" y="265.381744" width="371.41" height="52.338256"/>
  </clipPath>
 </defs>
</svg>
