<?xml version="1.0" encoding="utf-8" standalone="no"?>
<!DOCTYPE svg PUBLIC "-//W3C//DTD SVG 1.1//EN"
  "http://www.w3.org/Graphics/SVG/1.1/DTD/svg11.dtd">
<svg xmlns:xlink="http://www.w3.org/1999/xlink" width="1152pt" height="2304pt" viewBox="0 0 1152 2304" xmlns="http://www.w3.org/2000/svg" version="1.1">
 <metadata>
  <rdf:RDF xmlns:dc="http://purl.org/dc/elements/1.1/" xmlns:cc="http://creativecommons.org/ns#" xmlns:rdf="http://www.w3.org/1999/02/22-rdf-syntax-ns#">
   <cc:Work>
    <dc:type rdf:resource="http://purl.org/dc/dcmitype/StillImage"/>
    <dc:date>2024-04-23T20:14:24.188667</dc:date>
    <dc:format>image/svg+xml</dc:format>
    <dc:creator>
     <cc:Agent>
      <dc:title>Matplotlib v3.8.0, https://matplotlib.org/</dc:title>
     </cc:Agent>
    </dc:creator>
   </cc:Work>
  </rdf:RDF>
 </metadata>
 <defs>
  <style type="text/css">*{stroke-linejoin: round; stroke-linecap: butt}</style>
 </defs>
 <g id="figure_1">
  <g id="patch_1">
   <path d="M 0 2304 
L 1152 2304 
L 1152 0 
L 0 0 
z
" style="fill: #ffffff"/>
  </g>
  <g id="axes_1">
   <g id="patch_2">
    <path d="M 144 1082.88 
L 1036.8 1082.88 
L 1036.8 276.48 
L 144 276.48 
z
" style="fill: #eaeaf2"/>
   </g>
   <g id="matplotlib.axis_1">
    <g id="xtick_1">
     <g id="line2d_1">
      <path d="M 184.581818 1082.88 
L 184.581818 276.48 
" clip-path="url(#p6783683320)" style="fill: none; stroke: #ffffff; stroke-linecap: round"/>
     </g>
     <g id="line2d_2"/>
     <g id="text_1">
      <!-- 0 -->
      <g style="fill: #262626" transform="translate(181.400568 1097.478437) scale(0.1 -0.1)">
       <defs>
        <path id="DejaVuSans-30" d="M 2034 4250 
Q 1547 4250 1301 3770 
Q 1056 3291 1056 2328 
Q 1056 1369 1301 889 
Q 1547 409 2034 409 
Q 2525 409 2770 889 
Q 3016 1369 3016 2328 
Q 3016 3291 2770 3770 
Q 2525 4250 2034 4250 
z
M 2034 4750 
Q 2819 4750 3233 4129 
Q 3647 3509 3647 2328 
Q 3647 1150 3233 529 
Q 2819 -91 2034 -91 
Q 1250 -91 836 529 
Q 422 1150 422 2328 
Q 422 3509 836 4129 
Q 1250 4750 2034 4750 
z
" transform="scale(0.015625)"/>
       </defs>
       <use xlink:href="#DejaVuSans-30"/>
      </g>
     </g>
    </g>
    <g id="xtick_2">
     <g id="line2d_3">
      <path d="M 314.443636 1082.88 
L 314.443636 276.48 
" clip-path="url(#p6783683320)" style="fill: none; stroke: #ffffff; stroke-linecap: round"/>
     </g>
     <g id="line2d_4"/>
     <g id="text_2">
      <!-- 2 -->
      <g style="fill: #262626" transform="translate(311.262386 1097.478437) scale(0.1 -0.1)">
       <defs>
        <path id="DejaVuSans-32" d="M 1228 531 
L 3431 531 
L 3431 0 
L 469 0 
L 469 531 
Q 828 903 1448 1529 
Q 2069 2156 2228 2338 
Q 2531 2678 2651 2914 
Q 2772 3150 2772 3378 
Q 2772 3750 2511 3984 
Q 2250 4219 1831 4219 
Q 1534 4219 1204 4116 
Q 875 4013 500 3803 
L 500 4441 
Q 881 4594 1212 4672 
Q 1544 4750 1819 4750 
Q 2544 4750 2975 4387 
Q 3406 4025 3406 3419 
Q 3406 3131 3298 2873 
Q 3191 2616 2906 2266 
Q 2828 2175 2409 1742 
Q 1991 1309 1228 531 
z
" transform="scale(0.015625)"/>
       </defs>
       <use xlink:href="#DejaVuSans-32"/>
      </g>
     </g>
    </g>
    <g id="xtick_3">
     <g id="line2d_5">
      <path d="M 444.305455 1082.88 
L 444.305455 276.48 
" clip-path="url(#p6783683320)" style="fill: none; stroke: #ffffff; stroke-linecap: round"/>
     </g>
     <g id="line2d_6"/>
     <g id="text_3">
      <!-- 4 -->
      <g style="fill: #262626" transform="translate(441.124205 1097.478437) scale(0.1 -0.1)">
       <defs>
        <path id="DejaVuSans-34" d="M 2419 4116 
L 825 1625 
L 2419 1625 
L 2419 4116 
z
M 2253 4666 
L 3047 4666 
L 3047 1625 
L 3713 1625 
L 3713 1100 
L 3047 1100 
L 3047 0 
L 2419 0 
L 2419 1100 
L 313 1100 
L 313 1709 
L 2253 4666 
z
" transform="scale(0.015625)"/>
       </defs>
       <use xlink:href="#DejaVuSans-34"/>
      </g>
     </g>
    </g>
    <g id="xtick_4">
     <g id="line2d_7">
      <path d="M 574.167273 1082.88 
L 574.167273 276.48 
" clip-path="url(#p6783683320)" style="fill: none; stroke: #ffffff; stroke-linecap: round"/>
     </g>
     <g id="line2d_8"/>
     <g id="text_4">
      <!-- 6 -->
      <g style="fill: #262626" transform="translate(570.986023 1097.478437) scale(0.1 -0.1)">
       <defs>
        <path id="DejaVuSans-36" d="M 2113 2584 
Q 1688 2584 1439 2293 
Q 1191 2003 1191 1497 
Q 1191 994 1439 701 
Q 1688 409 2113 409 
Q 2538 409 2786 701 
Q 3034 994 3034 1497 
Q 3034 2003 2786 2293 
Q 2538 2584 2113 2584 
z
M 3366 4563 
L 3366 3988 
Q 3128 4100 2886 4159 
Q 2644 4219 2406 4219 
Q 1781 4219 1451 3797 
Q 1122 3375 1075 2522 
Q 1259 2794 1537 2939 
Q 1816 3084 2150 3084 
Q 2853 3084 3261 2657 
Q 3669 2231 3669 1497 
Q 3669 778 3244 343 
Q 2819 -91 2113 -91 
Q 1303 -91 875 529 
Q 447 1150 447 2328 
Q 447 3434 972 4092 
Q 1497 4750 2381 4750 
Q 2619 4750 2861 4703 
Q 3103 4656 3366 4563 
z
" transform="scale(0.015625)"/>
       </defs>
       <use xlink:href="#DejaVuSans-36"/>
      </g>
     </g>
    </g>
    <g id="xtick_5">
     <g id="line2d_9">
      <path d="M 704.029091 1082.88 
L 704.029091 276.48 
" clip-path="url(#p6783683320)" style="fill: none; stroke: #ffffff; stroke-linecap: round"/>
     </g>
     <g id="line2d_10"/>
     <g id="text_5">
      <!-- 8 -->
      <g style="fill: #262626" transform="translate(700.847841 1097.478437) scale(0.1 -0.1)">
       <defs>
        <path id="DejaVuSans-38" d="M 2034 2216 
Q 1584 2216 1326 1975 
Q 1069 1734 1069 1313 
Q 1069 891 1326 650 
Q 1584 409 2034 409 
Q 2484 409 2743 651 
Q 3003 894 3003 1313 
Q 3003 1734 2745 1975 
Q 2488 2216 2034 2216 
z
M 1403 2484 
Q 997 2584 770 2862 
Q 544 3141 544 3541 
Q 544 4100 942 4425 
Q 1341 4750 2034 4750 
Q 2731 4750 3128 4425 
Q 3525 4100 3525 3541 
Q 3525 3141 3298 2862 
Q 3072 2584 2669 2484 
Q 3125 2378 3379 2068 
Q 3634 1759 3634 1313 
Q 3634 634 3220 271 
Q 2806 -91 2034 -91 
Q 1263 -91 848 271 
Q 434 634 434 1313 
Q 434 1759 690 2068 
Q 947 2378 1403 2484 
z
M 1172 3481 
Q 1172 3119 1398 2916 
Q 1625 2713 2034 2713 
Q 2441 2713 2670 2916 
Q 2900 3119 2900 3481 
Q 2900 3844 2670 4047 
Q 2441 4250 2034 4250 
Q 1625 4250 1398 4047 
Q 1172 3844 1172 3481 
z
" transform="scale(0.015625)"/>
       </defs>
       <use xlink:href="#DejaVuSans-38"/>
      </g>
     </g>
    </g>
    <g id="xtick_6">
     <g id="line2d_11">
      <path d="M 833.890909 1082.88 
L 833.890909 276.48 
" clip-path="url(#p6783683320)" style="fill: none; stroke: #ffffff; stroke-linecap: round"/>
     </g>
     <g id="line2d_12"/>
     <g id="text_6">
      <!-- 10 -->
      <g style="fill: #262626" transform="translate(827.528409 1097.478437) scale(0.1 -0.1)">
       <defs>
        <path id="DejaVuSans-31" d="M 794 531 
L 1825 531 
L 1825 4091 
L 703 3866 
L 703 4441 
L 1819 4666 
L 2450 4666 
L 2450 531 
L 3481 531 
L 3481 0 
L 794 0 
L 794 531 
z
" transform="scale(0.015625)"/>
       </defs>
       <use xlink:href="#DejaVuSans-31"/>
       <use xlink:href="#DejaVuSans-30" x="63.623047"/>
      </g>
     </g>
    </g>
    <g id="xtick_7">
     <g id="line2d_13">
      <path d="M 963.752727 1082.88 
L 963.752727 276.48 
" clip-path="url(#p6783683320)" style="fill: none; stroke: #ffffff; stroke-linecap: round"/>
     </g>
     <g id="line2d_14"/>
     <g id="text_7">
      <!-- 12 -->
      <g style="fill: #262626" transform="translate(957.390227 1097.478437) scale(0.1 -0.1)">
       <use xlink:href="#DejaVuSans-31"/>
       <use xlink:href="#DejaVuSans-32" x="63.623047"/>
      </g>
     </g>
    </g>
    <g id="text_8">
     <!-- lags -->
     <g style="fill: #262626" transform="translate(579.144766 1111.916406) scale(0.11 -0.11)">
      <defs>
       <path id="DejaVuSans-6c" d="M 603 4863 
L 1178 4863 
L 1178 0 
L 603 0 
L 603 4863 
z
" transform="scale(0.015625)"/>
       <path id="DejaVuSans-61" d="M 2194 1759 
Q 1497 1759 1228 1600 
Q 959 1441 959 1056 
Q 959 750 1161 570 
Q 1363 391 1709 391 
Q 2188 391 2477 730 
Q 2766 1069 2766 1631 
L 2766 1759 
L 2194 1759 
z
M 3341 1997 
L 3341 0 
L 2766 0 
L 2766 531 
Q 2569 213 2275 61 
Q 1981 -91 1556 -91 
Q 1019 -91 701 211 
Q 384 513 384 1019 
Q 384 1609 779 1909 
Q 1175 2209 1959 2209 
L 2766 2209 
L 2766 2266 
Q 2766 2663 2505 2880 
Q 2244 3097 1772 3097 
Q 1472 3097 1187 3025 
Q 903 2953 641 2809 
L 641 3341 
Q 956 3463 1253 3523 
Q 1550 3584 1831 3584 
Q 2591 3584 2966 3190 
Q 3341 2797 3341 1997 
z
" transform="scale(0.015625)"/>
       <path id="DejaVuSans-67" d="M 2906 1791 
Q 2906 2416 2648 2759 
Q 2391 3103 1925 3103 
Q 1463 3103 1205 2759 
Q 947 2416 947 1791 
Q 947 1169 1205 825 
Q 1463 481 1925 481 
Q 2391 481 2648 825 
Q 2906 1169 2906 1791 
z
M 3481 434 
Q 3481 -459 3084 -895 
Q 2688 -1331 1869 -1331 
Q 1566 -1331 1297 -1286 
Q 1028 -1241 775 -1147 
L 775 -588 
Q 1028 -725 1275 -790 
Q 1522 -856 1778 -856 
Q 2344 -856 2625 -561 
Q 2906 -266 2906 331 
L 2906 616 
Q 2728 306 2450 153 
Q 2172 0 1784 0 
Q 1141 0 747 490 
Q 353 981 353 1791 
Q 353 2603 747 3093 
Q 1141 3584 1784 3584 
Q 2172 3584 2450 3431 
Q 2728 3278 2906 2969 
L 2906 3500 
L 3481 3500 
L 3481 434 
z
" transform="scale(0.015625)"/>
       <path id="DejaVuSans-73" d="M 2834 3397 
L 2834 2853 
Q 2591 2978 2328 3040 
Q 2066 3103 1784 3103 
Q 1356 3103 1142 2972 
Q 928 2841 928 2578 
Q 928 2378 1081 2264 
Q 1234 2150 1697 2047 
L 1894 2003 
Q 2506 1872 2764 1633 
Q 3022 1394 3022 966 
Q 3022 478 2636 193 
Q 2250 -91 1575 -91 
Q 1294 -91 989 -36 
Q 684 19 347 128 
L 347 722 
Q 666 556 975 473 
Q 1284 391 1588 391 
Q 1994 391 2212 530 
Q 2431 669 2431 922 
Q 2431 1156 2273 1281 
Q 2116 1406 1581 1522 
L 1381 1569 
Q 847 1681 609 1914 
Q 372 2147 372 2553 
Q 372 3047 722 3315 
Q 1072 3584 1716 3584 
Q 2034 3584 2315 3537 
Q 2597 3491 2834 3397 
z
" transform="scale(0.015625)"/>
      </defs>
      <use xlink:href="#DejaVuSans-6c"/>
      <use xlink:href="#DejaVuSans-61" x="27.783203"/>
      <use xlink:href="#DejaVuSans-67" x="89.0625"/>
      <use xlink:href="#DejaVuSans-73" x="152.539062"/>
     </g>
    </g>
   </g>
   <g id="matplotlib.axis_2">
    <g id="ytick_1">
     <g id="line2d_15">
      <path d="M 144 1082.88 
L 1036.8 1082.88 
" clip-path="url(#p6783683320)" style="fill: none; stroke: #ffffff; stroke-linecap: round"/>
     </g>
     <g id="line2d_16"/>
     <g id="text_9">
      <!-- −1.00 -->
      <g style="fill: #262626" transform="translate(106.354687 1086.679219) scale(0.1 -0.1)">
       <defs>
        <path id="DejaVuSans-2212" d="M 678 2272 
L 4684 2272 
L 4684 1741 
L 678 1741 
L 678 2272 
z
" transform="scale(0.015625)"/>
        <path id="DejaVuSans-2e" d="M 684 794 
L 1344 794 
L 1344 0 
L 684 0 
L 684 794 
z
" transform="scale(0.015625)"/>
       </defs>
       <use xlink:href="#DejaVuSans-2212"/>
       <use xlink:href="#DejaVuSans-31" x="83.789062"/>
       <use xlink:href="#DejaVuSans-2e" x="147.412109"/>
       <use xlink:href="#DejaVuSans-30" x="179.199219"/>
       <use xlink:href="#DejaVuSans-30" x="242.822266"/>
      </g>
     </g>
    </g>
    <g id="ytick_2">
     <g id="line2d_17">
      <path d="M 144 982.08 
L 1036.8 982.08 
" clip-path="url(#p6783683320)" style="fill: none; stroke: #ffffff; stroke-linecap: round"/>
     </g>
     <g id="line2d_18"/>
     <g id="text_10">
      <!-- −0.75 -->
      <g style="fill: #262626" transform="translate(106.354687 985.879219) scale(0.1 -0.1)">
       <defs>
        <path id="DejaVuSans-37" d="M 525 4666 
L 3525 4666 
L 3525 4397 
L 1831 0 
L 1172 0 
L 2766 4134 
L 525 4134 
L 525 4666 
z
" transform="scale(0.015625)"/>
        <path id="DejaVuSans-35" d="M 691 4666 
L 3169 4666 
L 3169 4134 
L 1269 4134 
L 1269 2991 
Q 1406 3038 1543 3061 
Q 1681 3084 1819 3084 
Q 2600 3084 3056 2656 
Q 3513 2228 3513 1497 
Q 3513 744 3044 326 
Q 2575 -91 1722 -91 
Q 1428 -91 1123 -41 
Q 819 9 494 109 
L 494 744 
Q 775 591 1075 516 
Q 1375 441 1709 441 
Q 2250 441 2565 725 
Q 2881 1009 2881 1497 
Q 2881 1984 2565 2268 
Q 2250 2553 1709 2553 
Q 1456 2553 1204 2497 
Q 953 2441 691 2322 
L 691 4666 
z
" transform="scale(0.015625)"/>
       </defs>
       <use xlink:href="#DejaVuSans-2212"/>
       <use xlink:href="#DejaVuSans-30" x="83.789062"/>
       <use xlink:href="#DejaVuSans-2e" x="147.412109"/>
       <use xlink:href="#DejaVuSans-37" x="179.199219"/>
       <use xlink:href="#DejaVuSans-35" x="242.822266"/>
      </g>
     </g>
    </g>
    <g id="ytick_3">
     <g id="line2d_19">
      <path d="M 144 881.28 
L 1036.8 881.28 
" clip-path="url(#p6783683320)" style="fill: none; stroke: #ffffff; stroke-linecap: round"/>
     </g>
     <g id="line2d_20"/>
     <g id="text_11">
      <!-- −0.50 -->
      <g style="fill: #262626" transform="translate(106.354687 885.079219) scale(0.1 -0.1)">
       <use xlink:href="#DejaVuSans-2212"/>
       <use xlink:href="#DejaVuSans-30" x="83.789062"/>
       <use xlink:href="#DejaVuSans-2e" x="147.412109"/>
       <use xlink:href="#DejaVuSans-35" x="179.199219"/>
       <use xlink:href="#DejaVuSans-30" x="242.822266"/>
      </g>
     </g>
    </g>
    <g id="ytick_4">
     <g id="line2d_21">
      <path d="M 144 780.48 
L 1036.8 780.48 
" clip-path="url(#p6783683320)" style="fill: none; stroke: #ffffff; stroke-linecap: round"/>
     </g>
     <g id="line2d_22"/>
     <g id="text_12">
      <!-- −0.25 -->
      <g style="fill: #262626" transform="translate(106.354687 784.279219) scale(0.1 -0.1)">
       <use xlink:href="#DejaVuSans-2212"/>
       <use xlink:href="#DejaVuSans-30" x="83.789062"/>
       <use xlink:href="#DejaVuSans-2e" x="147.412109"/>
       <use xlink:href="#DejaVuSans-32" x="179.199219"/>
       <use xlink:href="#DejaVuSans-35" x="242.822266"/>
      </g>
     </g>
    </g>
    <g id="ytick_5">
     <g id="line2d_23">
      <path d="M 144 679.68 
L 1036.8 679.68 
" clip-path="url(#p6783683320)" style="fill: none; stroke: #ffffff; stroke-linecap: round"/>
     </g>
     <g id="line2d_24"/>
     <g id="text_13">
      <!-- 0.00 -->
      <g style="fill: #262626" transform="translate(114.734375 683.479219) scale(0.1 -0.1)">
       <use xlink:href="#DejaVuSans-30"/>
       <use xlink:href="#DejaVuSans-2e" x="63.623047"/>
       <use xlink:href="#DejaVuSans-30" x="95.410156"/>
       <use xlink:href="#DejaVuSans-30" x="159.033203"/>
      </g>
     </g>
    </g>
    <g id="ytick_6">
     <g id="line2d_25">
      <path d="M 144 578.88 
L 1036.8 578.88 
" clip-path="url(#p6783683320)" style="fill: none; stroke: #ffffff; stroke-linecap: round"/>
     </g>
     <g id="line2d_26"/>
     <g id="text_14">
      <!-- 0.25 -->
      <g style="fill: #262626" transform="translate(114.734375 582.679219) scale(0.1 -0.1)">
       <use xlink:href="#DejaVuSans-30"/>
       <use xlink:href="#DejaVuSans-2e" x="63.623047"/>
       <use xlink:href="#DejaVuSans-32" x="95.410156"/>
       <use xlink:href="#DejaVuSans-35" x="159.033203"/>
      </g>
     </g>
    </g>
    <g id="ytick_7">
     <g id="line2d_27">
      <path d="M 144 478.08 
L 1036.8 478.08 
" clip-path="url(#p6783683320)" style="fill: none; stroke: #ffffff; stroke-linecap: round"/>
     </g>
     <g id="line2d_28"/>
     <g id="text_15">
      <!-- 0.50 -->
      <g style="fill: #262626" transform="translate(114.734375 481.879219) scale(0.1 -0.1)">
       <use xlink:href="#DejaVuSans-30"/>
       <use xlink:href="#DejaVuSans-2e" x="63.623047"/>
       <use xlink:href="#DejaVuSans-35" x="95.410156"/>
       <use xlink:href="#DejaVuSans-30" x="159.033203"/>
      </g>
     </g>
    </g>
    <g id="ytick_8">
     <g id="line2d_29">
      <path d="M 144 377.28 
L 1036.8 377.28 
" clip-path="url(#p6783683320)" style="fill: none; stroke: #ffffff; stroke-linecap: round"/>
     </g>
     <g id="line2d_30"/>
     <g id="text_16">
      <!-- 0.75 -->
      <g style="fill: #262626" transform="translate(114.734375 381.079219) scale(0.1 -0.1)">
       <use xlink:href="#DejaVuSans-30"/>
       <use xlink:href="#DejaVuSans-2e" x="63.623047"/>
       <use xlink:href="#DejaVuSans-37" x="95.410156"/>
       <use xlink:href="#DejaVuSans-35" x="159.033203"/>
      </g>
     </g>
    </g>
    <g id="ytick_9">
     <g id="line2d_31">
      <path d="M 144 276.48 
L 1036.8 276.48 
" clip-path="url(#p6783683320)" style="fill: none; stroke: #ffffff; stroke-linecap: round"/>
     </g>
     <g id="line2d_32"/>
     <g id="text_17">
      <!-- 1.00 -->
      <g style="fill: #262626" transform="translate(114.734375 280.279219) scale(0.1 -0.1)">
       <use xlink:href="#DejaVuSans-31"/>
       <use xlink:href="#DejaVuSans-2e" x="63.623047"/>
       <use xlink:href="#DejaVuSans-30" x="95.410156"/>
       <use xlink:href="#DejaVuSans-30" x="159.033203"/>
      </g>
     </g>
    </g>
    <g id="text_18">
     <!-- correlation -->
     <g style="fill: #262626" transform="translate(100.067031 709.189219) rotate(-90) scale(0.11 -0.11)">
      <defs>
       <path id="DejaVuSans-63" d="M 3122 3366 
L 3122 2828 
Q 2878 2963 2633 3030 
Q 2388 3097 2138 3097 
Q 1578 3097 1268 2742 
Q 959 2388 959 1747 
Q 959 1106 1268 751 
Q 1578 397 2138 397 
Q 2388 397 2633 464 
Q 2878 531 3122 666 
L 3122 134 
Q 2881 22 2623 -34 
Q 2366 -91 2075 -91 
Q 1284 -91 818 406 
Q 353 903 353 1747 
Q 353 2603 823 3093 
Q 1294 3584 2113 3584 
Q 2378 3584 2631 3529 
Q 2884 3475 3122 3366 
z
" transform="scale(0.015625)"/>
       <path id="DejaVuSans-6f" d="M 1959 3097 
Q 1497 3097 1228 2736 
Q 959 2375 959 1747 
Q 959 1119 1226 758 
Q 1494 397 1959 397 
Q 2419 397 2687 759 
Q 2956 1122 2956 1747 
Q 2956 2369 2687 2733 
Q 2419 3097 1959 3097 
z
M 1959 3584 
Q 2709 3584 3137 3096 
Q 3566 2609 3566 1747 
Q 3566 888 3137 398 
Q 2709 -91 1959 -91 
Q 1206 -91 779 398 
Q 353 888 353 1747 
Q 353 2609 779 3096 
Q 1206 3584 1959 3584 
z
" transform="scale(0.015625)"/>
       <path id="DejaVuSans-72" d="M 2631 2963 
Q 2534 3019 2420 3045 
Q 2306 3072 2169 3072 
Q 1681 3072 1420 2755 
Q 1159 2438 1159 1844 
L 1159 0 
L 581 0 
L 581 3500 
L 1159 3500 
L 1159 2956 
Q 1341 3275 1631 3429 
Q 1922 3584 2338 3584 
Q 2397 3584 2469 3576 
Q 2541 3569 2628 3553 
L 2631 2963 
z
" transform="scale(0.015625)"/>
       <path id="DejaVuSans-65" d="M 3597 1894 
L 3597 1613 
L 953 1613 
Q 991 1019 1311 708 
Q 1631 397 2203 397 
Q 2534 397 2845 478 
Q 3156 559 3463 722 
L 3463 178 
Q 3153 47 2828 -22 
Q 2503 -91 2169 -91 
Q 1331 -91 842 396 
Q 353 884 353 1716 
Q 353 2575 817 3079 
Q 1281 3584 2069 3584 
Q 2775 3584 3186 3129 
Q 3597 2675 3597 1894 
z
M 3022 2063 
Q 3016 2534 2758 2815 
Q 2500 3097 2075 3097 
Q 1594 3097 1305 2825 
Q 1016 2553 972 2059 
L 3022 2063 
z
" transform="scale(0.015625)"/>
       <path id="DejaVuSans-74" d="M 1172 4494 
L 1172 3500 
L 2356 3500 
L 2356 3053 
L 1172 3053 
L 1172 1153 
Q 1172 725 1289 603 
Q 1406 481 1766 481 
L 2356 481 
L 2356 0 
L 1766 0 
Q 1100 0 847 248 
Q 594 497 594 1153 
L 594 3053 
L 172 3053 
L 172 3500 
L 594 3500 
L 594 4494 
L 1172 4494 
z
" transform="scale(0.015625)"/>
       <path id="DejaVuSans-69" d="M 603 3500 
L 1178 3500 
L 1178 0 
L 603 0 
L 603 3500 
z
M 603 4863 
L 1178 4863 
L 1178 4134 
L 603 4134 
L 603 4863 
z
" transform="scale(0.015625)"/>
       <path id="DejaVuSans-6e" d="M 3513 2113 
L 3513 0 
L 2938 0 
L 2938 2094 
Q 2938 2591 2744 2837 
Q 2550 3084 2163 3084 
Q 1697 3084 1428 2787 
Q 1159 2491 1159 1978 
L 1159 0 
L 581 0 
L 581 3500 
L 1159 3500 
L 1159 2956 
Q 1366 3272 1645 3428 
Q 1925 3584 2291 3584 
Q 2894 3584 3203 3211 
Q 3513 2838 3513 2113 
z
" transform="scale(0.015625)"/>
      </defs>
      <use xlink:href="#DejaVuSans-63"/>
      <use xlink:href="#DejaVuSans-6f" x="54.980469"/>
      <use xlink:href="#DejaVuSans-72" x="116.162109"/>
      <use xlink:href="#DejaVuSans-72" x="155.525391"/>
      <use xlink:href="#DejaVuSans-65" x="194.388672"/>
      <use xlink:href="#DejaVuSans-6c" x="255.912109"/>
      <use xlink:href="#DejaVuSans-61" x="283.695312"/>
      <use xlink:href="#DejaVuSans-74" x="344.974609"/>
      <use xlink:href="#DejaVuSans-69" x="384.183594"/>
      <use xlink:href="#DejaVuSans-6f" x="411.966797"/>
      <use xlink:href="#DejaVuSans-6e" x="473.148438"/>
     </g>
    </g>
   </g>
   <g id="PolyCollection_1">
    <path d="M 217.047273 585.893692 
L 217.047273 773.466308 
L 314.443636 789.736846 
L 379.374545 794.99436 
L 444.305455 796.170095 
L 509.236364 800.838425 
L 574.167273 805.922958 
L 639.098182 806.767647 
L 704.029091 806.976917 
L 768.96 807.428719 
L 833.890909 807.512617 
L 898.821818 807.539452 
L 996.218182 812.618343 
L 996.218182 546.741657 
L 996.218182 546.741657 
L 898.821818 551.820548 
L 833.890909 551.847383 
L 768.96 551.931281 
L 704.029091 552.383083 
L 639.098182 552.592353 
L 574.167273 553.437042 
L 509.236364 558.521575 
L 444.305455 563.189905 
L 379.374545 564.36564 
L 314.443636 569.623154 
L 217.047273 585.893692 
z
" clip-path="url(#p6783683320)" style="fill: #4c72b0; fill-opacity: 0.25"/>
   </g>
   <g id="LineCollection_1">
    <path d="M 184.581818 679.68 
L 184.581818 276.48 
" clip-path="url(#p6783683320)" style="fill: none; stroke: #4c72b0; stroke-width: 1.75"/>
    <path d="M 249.512727 679.68 
L 249.512727 854.751363 
" clip-path="url(#p6783683320)" style="fill: none; stroke: #4c72b0; stroke-width: 1.75"/>
    <path d="M 314.443636 679.68 
L 314.443636 784.321868 
" clip-path="url(#p6783683320)" style="fill: none; stroke: #4c72b0; stroke-width: 1.75"/>
    <path d="M 379.374545 679.68 
L 379.374545 629.494094 
" clip-path="url(#p6783683320)" style="fill: none; stroke: #4c72b0; stroke-width: 1.75"/>
    <path d="M 444.305455 679.68 
L 444.305455 578.425481 
" clip-path="url(#p6783683320)" style="fill: none; stroke: #4c72b0; stroke-width: 1.75"/>
    <path d="M 509.236364 679.68 
L 509.236364 787.498349 
" clip-path="url(#p6783683320)" style="fill: none; stroke: #4c72b0; stroke-width: 1.75"/>
    <path d="M 574.167273 679.68 
L 574.167273 635.210907 
" clip-path="url(#p6783683320)" style="fill: none; stroke: #4c72b0; stroke-width: 1.75"/>
    <path d="M 639.098182 679.68 
L 639.098182 701.860183 
" clip-path="url(#p6783683320)" style="fill: none; stroke: #4c72b0; stroke-width: 1.75"/>
    <path d="M 704.029091 679.68 
L 704.029091 647.047589 
" clip-path="url(#p6783683320)" style="fill: none; stroke: #4c72b0; stroke-width: 1.75"/>
    <path d="M 768.96 679.68 
L 768.96 693.756927 
" clip-path="url(#p6783683320)" style="fill: none; stroke: #4c72b0; stroke-width: 1.75"/>
    <path d="M 833.890909 679.68 
L 833.890909 671.717043 
" clip-path="url(#p6783683320)" style="fill: none; stroke: #4c72b0; stroke-width: 1.75"/>
    <path d="M 898.821818 679.68 
L 898.821818 790.31753 
" clip-path="url(#p6783683320)" style="fill: none; stroke: #4c72b0; stroke-width: 1.75"/>
    <path d="M 963.752727 679.68 
L 963.752727 495.157927 
" clip-path="url(#p6783683320)" style="fill: none; stroke: #4c72b0; stroke-width: 1.75"/>
   </g>
   <g id="line2d_33">
    <path d="M 144 679.68 
L 1036.8 679.68 
" clip-path="url(#p6783683320)" style="fill: none; stroke: #4c72b0; stroke-width: 1.75; stroke-linecap: round"/>
   </g>
   <g id="line2d_34">
    <defs>
     <path id="m857fc04a61" d="M 0 2.5 
C 0.663008 2.5 1.29895 2.236584 1.767767 1.767767 
C 2.236584 1.29895 2.5 0.663008 2.5 0 
C 2.5 -0.663008 2.236584 -1.29895 1.767767 -1.767767 
C 1.29895 -2.236584 0.663008 -2.5 0 -2.5 
C -0.663008 -2.5 -1.29895 -2.236584 -1.767767 -1.767767 
C -2.236584 -1.29895 -2.5 -0.663008 -2.5 0 
C -2.5 0.663008 -2.236584 1.29895 -1.767767 1.767767 
C -1.29895 2.236584 -0.663008 2.5 0 2.5 
z
"/>
    </defs>
    <g clip-path="url(#p6783683320)">
     <use xlink:href="#m857fc04a61" x="184.581818" y="276.48" style="fill: #4c72b0"/>
     <use xlink:href="#m857fc04a61" x="249.512727" y="854.751363" style="fill: #4c72b0"/>
     <use xlink:href="#m857fc04a61" x="314.443636" y="784.321868" style="fill: #4c72b0"/>
     <use xlink:href="#m857fc04a61" x="379.374545" y="629.494094" style="fill: #4c72b0"/>
     <use xlink:href="#m857fc04a61" x="444.305455" y="578.425481" style="fill: #4c72b0"/>
     <use xlink:href="#m857fc04a61" x="509.236364" y="787.498349" style="fill: #4c72b0"/>
     <use xlink:href="#m857fc04a61" x="574.167273" y="635.210907" style="fill: #4c72b0"/>
     <use xlink:href="#m857fc04a61" x="639.098182" y="701.860183" style="fill: #4c72b0"/>
     <use xlink:href="#m857fc04a61" x="704.029091" y="647.047589" style="fill: #4c72b0"/>
     <use xlink:href="#m857fc04a61" x="768.96" y="693.756927" style="fill: #4c72b0"/>
     <use xlink:href="#m857fc04a61" x="833.890909" y="671.717043" style="fill: #4c72b0"/>
     <use xlink:href="#m857fc04a61" x="898.821818" y="790.31753" style="fill: #4c72b0"/>
     <use xlink:href="#m857fc04a61" x="963.752727" y="495.157927" style="fill: #4c72b0"/>
    </g>
   </g>
   <g id="patch_3">
    <path d="M 144 1082.88 
L 144 276.48 
" style="fill: none"/>
   </g>
   <g id="patch_4">
    <path d="M 1036.8 1082.88 
L 1036.8 276.48 
" style="fill: none"/>
   </g>
   <g id="patch_5">
    <path d="M 144 1082.88 
L 1036.8 1082.88 
" style="fill: none"/>
   </g>
   <g id="patch_6">
    <path d="M 144 276.48 
L 1036.8 276.48 
" style="fill: none"/>
   </g>
   <g id="text_19">
    <!-- Autocorrelation -->
    <g style="fill: #262626" transform="translate(544.277812 270.48) scale(0.12 -0.12)">
     <defs>
      <path id="DejaVuSans-41" d="M 2188 4044 
L 1331 1722 
L 3047 1722 
L 2188 4044 
z
M 1831 4666 
L 2547 4666 
L 4325 0 
L 3669 0 
L 3244 1197 
L 1141 1197 
L 716 0 
L 50 0 
L 1831 4666 
z
" transform="scale(0.015625)"/>
      <path id="DejaVuSans-75" d="M 544 1381 
L 544 3500 
L 1119 3500 
L 1119 1403 
Q 1119 906 1312 657 
Q 1506 409 1894 409 
Q 2359 409 2629 706 
Q 2900 1003 2900 1516 
L 2900 3500 
L 3475 3500 
L 3475 0 
L 2900 0 
L 2900 538 
Q 2691 219 2414 64 
Q 2138 -91 1772 -91 
Q 1169 -91 856 284 
Q 544 659 544 1381 
z
M 1991 3584 
L 1991 3584 
z
" transform="scale(0.015625)"/>
     </defs>
     <use xlink:href="#DejaVuSans-41"/>
     <use xlink:href="#DejaVuSans-75" x="68.408203"/>
     <use xlink:href="#DejaVuSans-74" x="131.787109"/>
     <use xlink:href="#DejaVuSans-6f" x="170.996094"/>
     <use xlink:href="#DejaVuSans-63" x="232.177734"/>
     <use xlink:href="#DejaVuSans-6f" x="287.158203"/>
     <use xlink:href="#DejaVuSans-72" x="348.339844"/>
     <use xlink:href="#DejaVuSans-72" x="387.703125"/>
     <use xlink:href="#DejaVuSans-65" x="426.566406"/>
     <use xlink:href="#DejaVuSans-6c" x="488.089844"/>
     <use xlink:href="#DejaVuSans-61" x="515.873047"/>
     <use xlink:href="#DejaVuSans-74" x="577.152344"/>
     <use xlink:href="#DejaVuSans-69" x="616.361328"/>
     <use xlink:href="#DejaVuSans-6f" x="644.144531"/>
     <use xlink:href="#DejaVuSans-6e" x="705.326172"/>
    </g>
   </g>
  </g>
  <g id="axes_2">
   <g id="patch_7">
    <path d="M 144 2050.56 
L 1036.8 2050.56 
L 1036.8 1244.16 
L 144 1244.16 
z
" style="fill: #eaeaf2"/>
   </g>
   <g id="matplotlib.axis_3">
    <g id="xtick_8">
     <g id="line2d_35">
      <path d="M 184.581818 2050.56 
L 184.581818 1244.16 
" clip-path="url(#p1a799dd620)" style="fill: none; stroke: #ffffff; stroke-linecap: round"/>
     </g>
     <g id="line2d_36"/>
     <g id="text_20">
      <!-- 0 -->
      <g style="fill: #262626" transform="translate(181.400568 2065.158438) scale(0.1 -0.1)">
       <use xlink:href="#DejaVuSans-30"/>
      </g>
     </g>
    </g>
    <g id="xtick_9">
     <g id="line2d_37">
      <path d="M 314.443636 2050.56 
L 314.443636 1244.16 
" clip-path="url(#p1a799dd620)" style="fill: none; stroke: #ffffff; stroke-linecap: round"/>
     </g>
     <g id="line2d_38"/>
     <g id="text_21">
      <!-- 2 -->
      <g style="fill: #262626" transform="translate(311.262386 2065.158438) scale(0.1 -0.1)">
       <use xlink:href="#DejaVuSans-32"/>
      </g>
     </g>
    </g>
    <g id="xtick_10">
     <g id="line2d_39">
      <path d="M 444.305455 2050.56 
L 444.305455 1244.16 
" clip-path="url(#p1a799dd620)" style="fill: none; stroke: #ffffff; stroke-linecap: round"/>
     </g>
     <g id="line2d_40"/>
     <g id="text_22">
      <!-- 4 -->
      <g style="fill: #262626" transform="translate(441.124205 2065.158438) scale(0.1 -0.1)">
       <use xlink:href="#DejaVuSans-34"/>
      </g>
     </g>
    </g>
    <g id="xtick_11">
     <g id="line2d_41">
      <path d="M 574.167273 2050.56 
L 574.167273 1244.16 
" clip-path="url(#p1a799dd620)" style="fill: none; stroke: #ffffff; stroke-linecap: round"/>
     </g>
     <g id="line2d_42"/>
     <g id="text_23">
      <!-- 6 -->
      <g style="fill: #262626" transform="translate(570.986023 2065.158438) scale(0.1 -0.1)">
       <use xlink:href="#DejaVuSans-36"/>
      </g>
     </g>
    </g>
    <g id="xtick_12">
     <g id="line2d_43">
      <path d="M 704.029091 2050.56 
L 704.029091 1244.16 
" clip-path="url(#p1a799dd620)" style="fill: none; stroke: #ffffff; stroke-linecap: round"/>
     </g>
     <g id="line2d_44"/>
     <g id="text_24">
      <!-- 8 -->
      <g style="fill: #262626" transform="translate(700.847841 2065.158438) scale(0.1 -0.1)">
       <use xlink:href="#DejaVuSans-38"/>
      </g>
     </g>
    </g>
    <g id="xtick_13">
     <g id="line2d_45">
      <path d="M 833.890909 2050.56 
L 833.890909 1244.16 
" clip-path="url(#p1a799dd620)" style="fill: none; stroke: #ffffff; stroke-linecap: round"/>
     </g>
     <g id="line2d_46"/>
     <g id="text_25">
      <!-- 10 -->
      <g style="fill: #262626" transform="translate(827.528409 2065.158438) scale(0.1 -0.1)">
       <use xlink:href="#DejaVuSans-31"/>
       <use xlink:href="#DejaVuSans-30" x="63.623047"/>
      </g>
     </g>
    </g>
    <g id="xtick_14">
     <g id="line2d_47">
      <path d="M 963.752727 2050.56 
L 963.752727 1244.16 
" clip-path="url(#p1a799dd620)" style="fill: none; stroke: #ffffff; stroke-linecap: round"/>
     </g>
     <g id="line2d_48"/>
     <g id="text_26">
      <!-- 12 -->
      <g style="fill: #262626" transform="translate(957.390227 2065.158438) scale(0.1 -0.1)">
       <use xlink:href="#DejaVuSans-31"/>
       <use xlink:href="#DejaVuSans-32" x="63.623047"/>
      </g>
     </g>
    </g>
    <g id="text_27">
     <!-- lags -->
     <g style="fill: #262626" transform="translate(579.144766 2079.596406) scale(0.11 -0.11)">
      <use xlink:href="#DejaVuSans-6c"/>
      <use xlink:href="#DejaVuSans-61" x="27.783203"/>
      <use xlink:href="#DejaVuSans-67" x="89.0625"/>
      <use xlink:href="#DejaVuSans-73" x="152.539062"/>
     </g>
    </g>
   </g>
   <g id="matplotlib.axis_4">
    <g id="ytick_10">
     <g id="line2d_49">
      <path d="M 144 2050.56 
L 1036.8 2050.56 
" clip-path="url(#p1a799dd620)" style="fill: none; stroke: #ffffff; stroke-linecap: round"/>
     </g>
     <g id="line2d_50"/>
     <g id="text_28">
      <!-- −1.00 -->
      <g style="fill: #262626" transform="translate(106.354687 2054.359219) scale(0.1 -0.1)">
       <use xlink:href="#DejaVuSans-2212"/>
       <use xlink:href="#DejaVuSans-31" x="83.789062"/>
       <use xlink:href="#DejaVuSans-2e" x="147.412109"/>
       <use xlink:href="#DejaVuSans-30" x="179.199219"/>
       <use xlink:href="#DejaVuSans-30" x="242.822266"/>
      </g>
     </g>
    </g>
    <g id="ytick_11">
     <g id="line2d_51">
      <path d="M 144 1949.76 
L 1036.8 1949.76 
" clip-path="url(#p1a799dd620)" style="fill: none; stroke: #ffffff; stroke-linecap: round"/>
     </g>
     <g id="line2d_52"/>
     <g id="text_29">
      <!-- −0.75 -->
      <g style="fill: #262626" transform="translate(106.354687 1953.559219) scale(0.1 -0.1)">
       <use xlink:href="#DejaVuSans-2212"/>
       <use xlink:href="#DejaVuSans-30" x="83.789062"/>
       <use xlink:href="#DejaVuSans-2e" x="147.412109"/>
       <use xlink:href="#DejaVuSans-37" x="179.199219"/>
       <use xlink:href="#DejaVuSans-35" x="242.822266"/>
      </g>
     </g>
    </g>
    <g id="ytick_12">
     <g id="line2d_53">
      <path d="M 144 1848.96 
L 1036.8 1848.96 
" clip-path="url(#p1a799dd620)" style="fill: none; stroke: #ffffff; stroke-linecap: round"/>
     </g>
     <g id="line2d_54"/>
     <g id="text_30">
      <!-- −0.50 -->
      <g style="fill: #262626" transform="translate(106.354687 1852.759219) scale(0.1 -0.1)">
       <use xlink:href="#DejaVuSans-2212"/>
       <use xlink:href="#DejaVuSans-30" x="83.789062"/>
       <use xlink:href="#DejaVuSans-2e" x="147.412109"/>
       <use xlink:href="#DejaVuSans-35" x="179.199219"/>
       <use xlink:href="#DejaVuSans-30" x="242.822266"/>
      </g>
     </g>
    </g>
    <g id="ytick_13">
     <g id="line2d_55">
      <path d="M 144 1748.16 
L 1036.8 1748.16 
" clip-path="url(#p1a799dd620)" style="fill: none; stroke: #ffffff; stroke-linecap: round"/>
     </g>
     <g id="line2d_56"/>
     <g id="text_31">
      <!-- −0.25 -->
      <g style="fill: #262626" transform="translate(106.354687 1751.959219) scale(0.1 -0.1)">
       <use xlink:href="#DejaVuSans-2212"/>
       <use xlink:href="#DejaVuSans-30" x="83.789062"/>
       <use xlink:href="#DejaVuSans-2e" x="147.412109"/>
       <use xlink:href="#DejaVuSans-32" x="179.199219"/>
       <use xlink:href="#DejaVuSans-35" x="242.822266"/>
      </g>
     </g>
    </g>
    <g id="ytick_14">
     <g id="line2d_57">
      <path d="M 144 1647.36 
L 1036.8 1647.36 
" clip-path="url(#p1a799dd620)" style="fill: none; stroke: #ffffff; stroke-linecap: round"/>
     </g>
     <g id="line2d_58"/>
     <g id="text_32">
      <!-- 0.00 -->
      <g style="fill: #262626" transform="translate(114.734375 1651.159219) scale(0.1 -0.1)">
       <use xlink:href="#DejaVuSans-30"/>
       <use xlink:href="#DejaVuSans-2e" x="63.623047"/>
       <use xlink:href="#DejaVuSans-30" x="95.410156"/>
       <use xlink:href="#DejaVuSans-30" x="159.033203"/>
      </g>
     </g>
    </g>
    <g id="ytick_15">
     <g id="line2d_59">
      <path d="M 144 1546.56 
L 1036.8 1546.56 
" clip-path="url(#p1a799dd620)" style="fill: none; stroke: #ffffff; stroke-linecap: round"/>
     </g>
     <g id="line2d_60"/>
     <g id="text_33">
      <!-- 0.25 -->
      <g style="fill: #262626" transform="translate(114.734375 1550.359219) scale(0.1 -0.1)">
       <use xlink:href="#DejaVuSans-30"/>
       <use xlink:href="#DejaVuSans-2e" x="63.623047"/>
       <use xlink:href="#DejaVuSans-32" x="95.410156"/>
       <use xlink:href="#DejaVuSans-35" x="159.033203"/>
      </g>
     </g>
    </g>
    <g id="ytick_16">
     <g id="line2d_61">
      <path d="M 144 1445.76 
L 1036.8 1445.76 
" clip-path="url(#p1a799dd620)" style="fill: none; stroke: #ffffff; stroke-linecap: round"/>
     </g>
     <g id="line2d_62"/>
     <g id="text_34">
      <!-- 0.50 -->
      <g style="fill: #262626" transform="translate(114.734375 1449.559219) scale(0.1 -0.1)">
       <use xlink:href="#DejaVuSans-30"/>
       <use xlink:href="#DejaVuSans-2e" x="63.623047"/>
       <use xlink:href="#DejaVuSans-35" x="95.410156"/>
       <use xlink:href="#DejaVuSans-30" x="159.033203"/>
      </g>
     </g>
    </g>
    <g id="ytick_17">
     <g id="line2d_63">
      <path d="M 144 1344.96 
L 1036.8 1344.96 
" clip-path="url(#p1a799dd620)" style="fill: none; stroke: #ffffff; stroke-linecap: round"/>
     </g>
     <g id="line2d_64"/>
     <g id="text_35">
      <!-- 0.75 -->
      <g style="fill: #262626" transform="translate(114.734375 1348.759219) scale(0.1 -0.1)">
       <use xlink:href="#DejaVuSans-30"/>
       <use xlink:href="#DejaVuSans-2e" x="63.623047"/>
       <use xlink:href="#DejaVuSans-37" x="95.410156"/>
       <use xlink:href="#DejaVuSans-35" x="159.033203"/>
      </g>
     </g>
    </g>
    <g id="ytick_18">
     <g id="line2d_65">
      <path d="M 144 1244.16 
L 1036.8 1244.16 
" clip-path="url(#p1a799dd620)" style="fill: none; stroke: #ffffff; stroke-linecap: round"/>
     </g>
     <g id="line2d_66"/>
     <g id="text_36">
      <!-- 1.00 -->
      <g style="fill: #262626" transform="translate(114.734375 1247.959219) scale(0.1 -0.1)">
       <use xlink:href="#DejaVuSans-31"/>
       <use xlink:href="#DejaVuSans-2e" x="63.623047"/>
       <use xlink:href="#DejaVuSans-30" x="95.410156"/>
       <use xlink:href="#DejaVuSans-30" x="159.033203"/>
      </g>
     </g>
    </g>
    <g id="text_37">
     <!-- correlation -->
     <g style="fill: #262626" transform="translate(100.067031 1676.869219) rotate(-90) scale(0.11 -0.11)">
      <use xlink:href="#DejaVuSans-63"/>
      <use xlink:href="#DejaVuSans-6f" x="54.980469"/>
      <use xlink:href="#DejaVuSans-72" x="116.162109"/>
      <use xlink:href="#DejaVuSans-72" x="155.525391"/>
      <use xlink:href="#DejaVuSans-65" x="194.388672"/>
      <use xlink:href="#DejaVuSans-6c" x="255.912109"/>
      <use xlink:href="#DejaVuSans-61" x="283.695312"/>
      <use xlink:href="#DejaVuSans-74" x="344.974609"/>
      <use xlink:href="#DejaVuSans-69" x="384.183594"/>
      <use xlink:href="#DejaVuSans-6f" x="411.966797"/>
      <use xlink:href="#DejaVuSans-6e" x="473.148438"/>
     </g>
    </g>
   </g>
   <g id="PolyCollection_2">
    <path d="M 217.047273 1553.573692 
L 217.047273 1741.146308 
L 314.443636 1741.146308 
L 379.374545 1741.146308 
L 444.305455 1741.146308 
L 509.236364 1741.146308 
L 574.167273 1741.146308 
L 639.098182 1741.146308 
L 704.029091 1741.146308 
L 768.96 1741.146308 
L 833.890909 1741.146308 
L 898.821818 1741.146308 
L 996.218182 1741.146308 
L 996.218182 1553.573692 
L 996.218182 1553.573692 
L 898.821818 1553.573692 
L 833.890909 1553.573692 
L 768.96 1553.573692 
L 704.029091 1553.573692 
L 639.098182 1553.573692 
L 574.167273 1553.573692 
L 509.236364 1553.573692 
L 444.305455 1553.573692 
L 379.374545 1553.573692 
L 314.443636 1553.573692 
L 217.047273 1553.573692 
z
" clip-path="url(#p1a799dd620)" style="fill: #4c72b0; fill-opacity: 0.25"/>
   </g>
   <g id="LineCollection_2">
    <path d="M 184.581818 1647.36 
L 184.581818 1244.16 
" clip-path="url(#p1a799dd620)" style="fill: none; stroke: #4c72b0; stroke-width: 1.75"/>
    <path d="M 249.512727 1647.36 
L 249.512727 1822.431363 
" clip-path="url(#p1a799dd620)" style="fill: none; stroke: #4c72b0; stroke-width: 1.75"/>
    <path d="M 314.443636 1647.36 
L 314.443636 1869.99242 
" clip-path="url(#p1a799dd620)" style="fill: none; stroke: #4c72b0; stroke-width: 1.75"/>
    <path d="M 379.374545 1647.36 
L 379.374545 1854.794919 
" clip-path="url(#p1a799dd620)" style="fill: none; stroke: #4c72b0; stroke-width: 1.75"/>
    <path d="M 444.305455 1647.36 
L 444.305455 1731.256067 
" clip-path="url(#p1a799dd620)" style="fill: none; stroke: #4c72b0; stroke-width: 1.75"/>
    <path d="M 509.236364 1647.36 
L 509.236364 1789.994819 
" clip-path="url(#p1a799dd620)" style="fill: none; stroke: #4c72b0; stroke-width: 1.75"/>
    <path d="M 574.167273 1647.36 
L 574.167273 1678.494675 
" clip-path="url(#p1a799dd620)" style="fill: none; stroke: #4c72b0; stroke-width: 1.75"/>
    <path d="M 639.098182 1647.36 
L 639.098182 1719.655687 
" clip-path="url(#p1a799dd620)" style="fill: none; stroke: #4c72b0; stroke-width: 1.75"/>
    <path d="M 704.029091 1647.36 
L 704.029091 1661.997968 
" clip-path="url(#p1a799dd620)" style="fill: none; stroke: #4c72b0; stroke-width: 1.75"/>
    <path d="M 768.96 1647.36 
L 768.96 1609.454509 
" clip-path="url(#p1a799dd620)" style="fill: none; stroke: #4c72b0; stroke-width: 1.75"/>
    <path d="M 833.890909 1647.36 
L 833.890909 1561.192721 
" clip-path="url(#p1a799dd620)" style="fill: none; stroke: #4c72b0; stroke-width: 1.75"/>
    <path d="M 898.821818 1647.36 
L 898.821818 1786.299846 
" clip-path="url(#p1a799dd620)" style="fill: none; stroke: #4c72b0; stroke-width: 1.75"/>
    <path d="M 963.752727 1647.36 
L 963.752727 1650.656206 
" clip-path="url(#p1a799dd620)" style="fill: none; stroke: #4c72b0; stroke-width: 1.75"/>
   </g>
   <g id="line2d_67">
    <path d="M 144 1647.36 
L 1036.8 1647.36 
" clip-path="url(#p1a799dd620)" style="fill: none; stroke: #4c72b0; stroke-width: 1.75; stroke-linecap: round"/>
   </g>
   <g id="line2d_68">
    <g clip-path="url(#p1a799dd620)">
     <use xlink:href="#m857fc04a61" x="184.581818" y="1244.16" style="fill: #4c72b0"/>
     <use xlink:href="#m857fc04a61" x="249.512727" y="1822.431363" style="fill: #4c72b0"/>
     <use xlink:href="#m857fc04a61" x="314.443636" y="1869.99242" style="fill: #4c72b0"/>
     <use xlink:href="#m857fc04a61" x="379.374545" y="1854.794919" style="fill: #4c72b0"/>
     <use xlink:href="#m857fc04a61" x="444.305455" y="1731.256067" style="fill: #4c72b0"/>
     <use xlink:href="#m857fc04a61" x="509.236364" y="1789.994819" style="fill: #4c72b0"/>
     <use xlink:href="#m857fc04a61" x="574.167273" y="1678.494675" style="fill: #4c72b0"/>
     <use xlink:href="#m857fc04a61" x="639.098182" y="1719.655687" style="fill: #4c72b0"/>
     <use xlink:href="#m857fc04a61" x="704.029091" y="1661.997968" style="fill: #4c72b0"/>
     <use xlink:href="#m857fc04a61" x="768.96" y="1609.454509" style="fill: #4c72b0"/>
     <use xlink:href="#m857fc04a61" x="833.890909" y="1561.192721" style="fill: #4c72b0"/>
     <use xlink:href="#m857fc04a61" x="898.821818" y="1786.299846" style="fill: #4c72b0"/>
     <use xlink:href="#m857fc04a61" x="963.752727" y="1650.656206" style="fill: #4c72b0"/>
    </g>
   </g>
   <g id="patch_8">
    <path d="M 144 2050.56 
L 144 1244.16 
" style="fill: none"/>
   </g>
   <g id="patch_9">
    <path d="M 1036.8 2050.56 
L 1036.8 1244.16 
" style="fill: none"/>
   </g>
   <g id="patch_10">
    <path d="M 144 2050.56 
L 1036.8 2050.56 
" style="fill: none"/>
   </g>
   <g id="patch_11">
    <path d="M 144 1244.16 
L 1036.8 1244.16 
" style="fill: none"/>
   </g>
   <g id="text_38">
    <!-- Partial Autocorrelation -->
    <g style="fill: #262626" transform="translate(523.516875 1238.16) scale(0.12 -0.12)">
     <defs>
      <path id="DejaVuSans-50" d="M 1259 4147 
L 1259 2394 
L 2053 2394 
Q 2494 2394 2734 2622 
Q 2975 2850 2975 3272 
Q 2975 3691 2734 3919 
Q 2494 4147 2053 4147 
L 1259 4147 
z
M 628 4666 
L 2053 4666 
Q 2838 4666 3239 4311 
Q 3641 3956 3641 3272 
Q 3641 2581 3239 2228 
Q 2838 1875 2053 1875 
L 1259 1875 
L 1259 0 
L 628 0 
L 628 4666 
z
" transform="scale(0.015625)"/>
      <path id="DejaVuSans-20" transform="scale(0.015625)"/>
     </defs>
     <use xlink:href="#DejaVuSans-50"/>
     <use xlink:href="#DejaVuSans-61" x="55.802734"/>
     <use xlink:href="#DejaVuSans-72" x="117.082031"/>
     <use xlink:href="#DejaVuSans-74" x="158.195312"/>
     <use xlink:href="#DejaVuSans-69" x="197.404297"/>
     <use xlink:href="#DejaVuSans-61" x="225.1875"/>
     <use xlink:href="#DejaVuSans-6c" x="286.466797"/>
     <use xlink:href="#DejaVuSans-20" x="314.25"/>
     <use xlink:href="#DejaVuSans-41" x="346.037109"/>
     <use xlink:href="#DejaVuSans-75" x="414.445312"/>
     <use xlink:href="#DejaVuSans-74" x="477.824219"/>
     <use xlink:href="#DejaVuSans-6f" x="517.033203"/>
     <use xlink:href="#DejaVuSans-63" x="578.214844"/>
     <use xlink:href="#DejaVuSans-6f" x="633.195312"/>
     <use xlink:href="#DejaVuSans-72" x="694.376953"/>
     <use xlink:href="#DejaVuSans-72" x="733.740234"/>
     <use xlink:href="#DejaVuSans-65" x="772.603516"/>
     <use xlink:href="#DejaVuSans-6c" x="834.126953"/>
     <use xlink:href="#DejaVuSans-61" x="861.910156"/>
     <use xlink:href="#DejaVuSans-74" x="923.189453"/>
     <use xlink:href="#DejaVuSans-69" x="962.398438"/>
     <use xlink:href="#DejaVuSans-6f" x="990.181641"/>
     <use xlink:href="#DejaVuSans-6e" x="1051.363281"/>
    </g>
   </g>
  </g>
 </g>
 <defs>
  <clipPath id="p6783683320">
   <rect x="144" y="276.48" width="892.8" height="806.4"/>
  </clipPath>
  <clipPath id="p1a799dd620">
   <rect x="144" y="1244.16" width="892.8" height="806.4"/>
  </clipPath>
 </defs>
</svg>
