<?xml version="1.0" encoding="utf-8" standalone="no"?>
<!DOCTYPE svg PUBLIC "-//W3C//DTD SVG 1.1//EN"
  "http://www.w3.org/Graphics/SVG/1.1/DTD/svg11.dtd">
<svg xmlns:xlink="http://www.w3.org/1999/xlink" width="460.8pt" height="345.6pt" viewBox="0 0 460.8 345.6" xmlns="http://www.w3.org/2000/svg" version="1.1">
 <metadata>
  <rdf:RDF xmlns:dc="http://purl.org/dc/elements/1.1/" xmlns:cc="http://creativecommons.org/ns#" xmlns:rdf="http://www.w3.org/1999/02/22-rdf-syntax-ns#">
   <cc:Work>
    <dc:type rdf:resource="http://purl.org/dc/dcmitype/StillImage"/>
    <dc:date>2024-04-17T21:35:16.092907</dc:date>
    <dc:format>image/svg+xml</dc:format>
    <dc:creator>
     <cc:Agent>
      <dc:title>Matplotlib v3.8.0, https://matplotlib.org/</dc:title>
     </cc:Agent>
    </dc:creator>
   </cc:Work>
  </rdf:RDF>
 </metadata>
 <defs>
  <style type="text/css">*{stroke-linejoin: round; stroke-linecap: butt}</style>
 </defs>
 <g id="figure_1">
  <g id="patch_1">
   <path d="M 0 345.6 
L 460.8 345.6 
L 460.8 0 
L 0 0 
z
" style="fill: #ffffff"/>
  </g>
  <g id="axes_1">
   <g id="patch_2">
    <path d="M 78.59 78.423515 
L 450 78.423515 
L 450 25.44 
L 78.59 25.44 
z
" style="fill: #ffffff"/>
   </g>
   <g id="matplotlib.axis_1">
    <g id="xtick_1">
     <g id="line2d_1">
      <defs>
       <path id="mfc5a6592a3" d="M 0 0 
L 0 3.5 
" style="stroke: #000000; stroke-width: 0.8"/>
      </defs>
      <g>
       <use xlink:href="#mfc5a6592a3" x="83.845002" y="78.423515" style="stroke: #000000; stroke-width: 0.8"/>
      </g>
     </g>
    </g>
    <g id="xtick_2">
     <g id="line2d_2">
      <g>
       <use xlink:href="#mfc5a6592a3" x="145.718416" y="78.423515" style="stroke: #000000; stroke-width: 0.8"/>
      </g>
     </g>
    </g>
    <g id="xtick_3">
     <g id="line2d_3">
      <g>
       <use xlink:href="#mfc5a6592a3" x="207.59183" y="78.423515" style="stroke: #000000; stroke-width: 0.8"/>
      </g>
     </g>
    </g>
    <g id="xtick_4">
     <g id="line2d_4">
      <g>
       <use xlink:href="#mfc5a6592a3" x="269.465244" y="78.423515" style="stroke: #000000; stroke-width: 0.8"/>
      </g>
     </g>
    </g>
    <g id="xtick_5">
     <g id="line2d_5">
      <g>
       <use xlink:href="#mfc5a6592a3" x="331.508174" y="78.423515" style="stroke: #000000; stroke-width: 0.8"/>
      </g>
     </g>
    </g>
    <g id="xtick_6">
     <g id="line2d_6">
      <g>
       <use xlink:href="#mfc5a6592a3" x="393.381588" y="78.423515" style="stroke: #000000; stroke-width: 0.8"/>
      </g>
     </g>
    </g>
   </g>
   <g id="matplotlib.axis_2">
    <g id="ytick_1">
     <g id="line2d_7">
      <defs>
       <path id="maf8395712d" d="M 0 0 
L -3.5 0 
" style="stroke: #000000; stroke-width: 0.8"/>
      </defs>
      <g>
       <use xlink:href="#maf8395712d" x="78.59" y="71.904938" style="stroke: #000000; stroke-width: 0.8"/>
      </g>
     </g>
     <g id="text_1">
      <!-- 2 -->
      <g transform="translate(65.2275 75.704157) scale(0.1 -0.1)">
       <defs>
        <path id="DejaVuSans-32" d="M 1228 531 
L 3431 531 
L 3431 0 
L 469 0 
L 469 531 
Q 828 903 1448 1529 
Q 2069 2156 2228 2338 
Q 2531 2678 2651 2914 
Q 2772 3150 2772 3378 
Q 2772 3750 2511 3984 
Q 2250 4219 1831 4219 
Q 1534 4219 1204 4116 
Q 875 4013 500 3803 
L 500 4441 
Q 881 4594 1212 4672 
Q 1544 4750 1819 4750 
Q 2544 4750 2975 4387 
Q 3406 4025 3406 3419 
Q 3406 3131 3298 2873 
Q 3191 2616 2906 2266 
Q 2828 2175 2409 1742 
Q 1991 1309 1228 531 
z
" transform="scale(0.015625)"/>
       </defs>
       <use xlink:href="#DejaVuSans-32"/>
      </g>
     </g>
    </g>
    <g id="ytick_2">
     <g id="line2d_8">
      <g>
       <use xlink:href="#maf8395712d" x="78.59" y="38.855706" style="stroke: #000000; stroke-width: 0.8"/>
      </g>
     </g>
     <g id="text_2">
      <!-- 4 -->
      <g transform="translate(65.2275 42.654925) scale(0.1 -0.1)">
       <defs>
        <path id="DejaVuSans-34" d="M 2419 4116 
L 825 1625 
L 2419 1625 
L 2419 4116 
z
M 2253 4666 
L 3047 4666 
L 3047 1625 
L 3713 1625 
L 3713 1100 
L 3047 1100 
L 3047 0 
L 2419 0 
L 2419 1100 
L 313 1100 
L 313 1709 
L 2253 4666 
z
" transform="scale(0.015625)"/>
       </defs>
       <use xlink:href="#DejaVuSans-34"/>
      </g>
     </g>
    </g>
    <g id="text_3">
     <!-- 1e7 -->
     <g transform="translate(78.59 22.44) scale(0.1 -0.1)">
      <defs>
       <path id="DejaVuSans-31" d="M 794 531 
L 1825 531 
L 1825 4091 
L 703 3866 
L 703 4441 
L 1819 4666 
L 2450 4666 
L 2450 531 
L 3481 531 
L 3481 0 
L 794 0 
L 794 531 
z
" transform="scale(0.015625)"/>
       <path id="DejaVuSans-65" d="M 3597 1894 
L 3597 1613 
L 953 1613 
Q 991 1019 1311 708 
Q 1631 397 2203 397 
Q 2534 397 2845 478 
Q 3156 559 3463 722 
L 3463 178 
Q 3153 47 2828 -22 
Q 2503 -91 2169 -91 
Q 1331 -91 842 396 
Q 353 884 353 1716 
Q 353 2575 817 3079 
Q 1281 3584 2069 3584 
Q 2775 3584 3186 3129 
Q 3597 2675 3597 1894 
z
M 3022 2063 
Q 3016 2534 2758 2815 
Q 2500 3097 2075 3097 
Q 1594 3097 1305 2825 
Q 1016 2553 972 2059 
L 3022 2063 
z
" transform="scale(0.015625)"/>
       <path id="DejaVuSans-37" d="M 525 4666 
L 3525 4666 
L 3525 4397 
L 1831 0 
L 1172 0 
L 2766 4134 
L 525 4134 
L 525 4666 
z
" transform="scale(0.015625)"/>
      </defs>
      <use xlink:href="#DejaVuSans-31"/>
      <use xlink:href="#DejaVuSans-65" x="63.623047"/>
      <use xlink:href="#DejaVuSans-37" x="125.146484"/>
     </g>
    </g>
   </g>
   <g id="line2d_9">
    <path d="M 78.59 65.296341 
L 83.845002 68.884916 
L 89.100005 67.188263 
L 93.846458 60.665735 
L 99.101461 66.556536 
L 104.186947 64.668956 
L 109.441949 63.276702 
L 114.527435 51.294369 
L 119.782437 49.339149 
L 125.03744 56.353748 
L 130.122926 52.993191 
L 135.377928 38.605008 
L 140.463414 55.471054 
L 145.718416 43.931683 
L 150.973419 46.712867 
L 155.719872 38.624621 
L 160.974874 48.176027 
L 166.060361 73.836286 
L 171.315363 76.015174 
L 176.400849 65.715295 
L 181.655851 42.288503 
L 186.910853 73.23075 
L 191.99634 74.371988 
L 197.251342 63.934638 
L 202.336828 70.721214 
L 207.59183 71.354059 
L 212.846832 71.427167 
L 217.593286 66.685275 
L 222.848288 68.477944 
L 227.933775 69.659587 
L 233.188777 67.816747 
L 238.274263 65.705497 
L 243.529265 63.700071 
L 248.784267 69.210044 
L 253.869754 69.094413 
L 259.124756 61.987035 
L 264.210242 63.968466 
L 269.465244 64.429993 
L 274.720246 64.103769 
L 279.636216 64.013208 
L 284.891219 59.457912 
L 289.976705 52.426909 
L 295.231707 61.408763 
L 300.317193 61.371682 
L 305.572195 53.440544 
L 310.827198 60.935252 
L 315.912684 67.770916 
L 321.167686 52.437837 
L 326.253172 53.455817 
L 331.508174 68.988553 
L 336.763177 66.599102 
L 341.50963 57.117524 
L 346.764633 60.553361 
L 351.850119 59.071664 
L 357.105121 63.451305 
L 362.190607 68.737624 
L 367.445609 64.163774 
L 372.700612 67.991318 
L 377.786098 63.159954 
L 383.0411 50.152033 
L 388.126586 54.832761 
L 393.381588 60.457334 
L 398.636591 62.389659 
L 403.383044 53.881354 
L 408.638047 49.973054 
L 413.723533 51.81484 
L 418.978535 63.285452 
L 424.064021 55.164491 
L 429.319023 43.774605 
L 434.574026 52.660405 
L 439.659512 42.064852 
L 444.914514 27.848342 
L 450 38.21946 
" clip-path="url(#p4fd0c339d2)" style="fill: none; stroke: #1f77b4; stroke-width: 1.5; stroke-linecap: square"/>
   </g>
   <g id="patch_3">
    <path d="M 78.59 78.423515 
L 78.59 25.44 
" style="fill: none; stroke: #000000; stroke-width: 0.8; stroke-linejoin: miter; stroke-linecap: square"/>
   </g>
   <g id="patch_4">
    <path d="M 450 78.423515 
L 450 25.44 
" style="fill: none; stroke: #000000; stroke-width: 0.8; stroke-linejoin: miter; stroke-linecap: square"/>
   </g>
   <g id="patch_5">
    <path d="M 78.59 78.423515 
L 450 78.423515 
" style="fill: none; stroke: #000000; stroke-width: 0.8; stroke-linejoin: miter; stroke-linecap: square"/>
   </g>
   <g id="patch_6">
    <path d="M 78.59 25.44 
L 450 25.44 
" style="fill: none; stroke: #000000; stroke-width: 0.8; stroke-linejoin: miter; stroke-linecap: square"/>
   </g>
   <g id="text_4">
    <!-- Pageviews -->
    <g transform="translate(232.826875 19.44) scale(0.12 -0.12)">
     <defs>
      <path id="DejaVuSans-50" d="M 1259 4147 
L 1259 2394 
L 2053 2394 
Q 2494 2394 2734 2622 
Q 2975 2850 2975 3272 
Q 2975 3691 2734 3919 
Q 2494 4147 2053 4147 
L 1259 4147 
z
M 628 4666 
L 2053 4666 
Q 2838 4666 3239 4311 
Q 3641 3956 3641 3272 
Q 3641 2581 3239 2228 
Q 2838 1875 2053 1875 
L 1259 1875 
L 1259 0 
L 628 0 
L 628 4666 
z
" transform="scale(0.015625)"/>
      <path id="DejaVuSans-61" d="M 2194 1759 
Q 1497 1759 1228 1600 
Q 959 1441 959 1056 
Q 959 750 1161 570 
Q 1363 391 1709 391 
Q 2188 391 2477 730 
Q 2766 1069 2766 1631 
L 2766 1759 
L 2194 1759 
z
M 3341 1997 
L 3341 0 
L 2766 0 
L 2766 531 
Q 2569 213 2275 61 
Q 1981 -91 1556 -91 
Q 1019 -91 701 211 
Q 384 513 384 1019 
Q 384 1609 779 1909 
Q 1175 2209 1959 2209 
L 2766 2209 
L 2766 2266 
Q 2766 2663 2505 2880 
Q 2244 3097 1772 3097 
Q 1472 3097 1187 3025 
Q 903 2953 641 2809 
L 641 3341 
Q 956 3463 1253 3523 
Q 1550 3584 1831 3584 
Q 2591 3584 2966 3190 
Q 3341 2797 3341 1997 
z
" transform="scale(0.015625)"/>
      <path id="DejaVuSans-67" d="M 2906 1791 
Q 2906 2416 2648 2759 
Q 2391 3103 1925 3103 
Q 1463 3103 1205 2759 
Q 947 2416 947 1791 
Q 947 1169 1205 825 
Q 1463 481 1925 481 
Q 2391 481 2648 825 
Q 2906 1169 2906 1791 
z
M 3481 434 
Q 3481 -459 3084 -895 
Q 2688 -1331 1869 -1331 
Q 1566 -1331 1297 -1286 
Q 1028 -1241 775 -1147 
L 775 -588 
Q 1028 -725 1275 -790 
Q 1522 -856 1778 -856 
Q 2344 -856 2625 -561 
Q 2906 -266 2906 331 
L 2906 616 
Q 2728 306 2450 153 
Q 2172 0 1784 0 
Q 1141 0 747 490 
Q 353 981 353 1791 
Q 353 2603 747 3093 
Q 1141 3584 1784 3584 
Q 2172 3584 2450 3431 
Q 2728 3278 2906 2969 
L 2906 3500 
L 3481 3500 
L 3481 434 
z
" transform="scale(0.015625)"/>
      <path id="DejaVuSans-76" d="M 191 3500 
L 800 3500 
L 1894 563 
L 2988 3500 
L 3597 3500 
L 2284 0 
L 1503 0 
L 191 3500 
z
" transform="scale(0.015625)"/>
      <path id="DejaVuSans-69" d="M 603 3500 
L 1178 3500 
L 1178 0 
L 603 0 
L 603 3500 
z
M 603 4863 
L 1178 4863 
L 1178 4134 
L 603 4134 
L 603 4863 
z
" transform="scale(0.015625)"/>
      <path id="DejaVuSans-77" d="M 269 3500 
L 844 3500 
L 1563 769 
L 2278 3500 
L 2956 3500 
L 3675 769 
L 4391 3500 
L 4966 3500 
L 4050 0 
L 3372 0 
L 2619 2869 
L 1863 0 
L 1184 0 
L 269 3500 
z
" transform="scale(0.015625)"/>
      <path id="DejaVuSans-73" d="M 2834 3397 
L 2834 2853 
Q 2591 2978 2328 3040 
Q 2066 3103 1784 3103 
Q 1356 3103 1142 2972 
Q 928 2841 928 2578 
Q 928 2378 1081 2264 
Q 1234 2150 1697 2047 
L 1894 2003 
Q 2506 1872 2764 1633 
Q 3022 1394 3022 966 
Q 3022 478 2636 193 
Q 2250 -91 1575 -91 
Q 1294 -91 989 -36 
Q 684 19 347 128 
L 347 722 
Q 666 556 975 473 
Q 1284 391 1588 391 
Q 1994 391 2212 530 
Q 2431 669 2431 922 
Q 2431 1156 2273 1281 
Q 2116 1406 1581 1522 
L 1381 1569 
Q 847 1681 609 1914 
Q 372 2147 372 2553 
Q 372 3047 722 3315 
Q 1072 3584 1716 3584 
Q 2034 3584 2315 3537 
Q 2597 3491 2834 3397 
z
" transform="scale(0.015625)"/>
     </defs>
     <use xlink:href="#DejaVuSans-50"/>
     <use xlink:href="#DejaVuSans-61" x="55.802734"/>
     <use xlink:href="#DejaVuSans-67" x="117.082031"/>
     <use xlink:href="#DejaVuSans-65" x="180.558594"/>
     <use xlink:href="#DejaVuSans-76" x="242.082031"/>
     <use xlink:href="#DejaVuSans-69" x="301.261719"/>
     <use xlink:href="#DejaVuSans-65" x="329.044922"/>
     <use xlink:href="#DejaVuSans-77" x="390.568359"/>
     <use xlink:href="#DejaVuSans-73" x="472.355469"/>
    </g>
   </g>
  </g>
  <g id="axes_2">
   <g id="patch_7">
    <path d="M 78.59 158.18901 
L 450 158.18901 
L 450 105.205495 
L 78.59 105.205495 
z
" style="fill: #ffffff"/>
   </g>
   <g id="matplotlib.axis_3">
    <g id="xtick_7">
     <g id="line2d_10">
      <g>
       <use xlink:href="#mfc5a6592a3" x="83.845002" y="158.18901" style="stroke: #000000; stroke-width: 0.8"/>
      </g>
     </g>
    </g>
    <g id="xtick_8">
     <g id="line2d_11">
      <g>
       <use xlink:href="#mfc5a6592a3" x="145.718416" y="158.18901" style="stroke: #000000; stroke-width: 0.8"/>
      </g>
     </g>
    </g>
    <g id="xtick_9">
     <g id="line2d_12">
      <g>
       <use xlink:href="#mfc5a6592a3" x="207.59183" y="158.18901" style="stroke: #000000; stroke-width: 0.8"/>
      </g>
     </g>
    </g>
    <g id="xtick_10">
     <g id="line2d_13">
      <g>
       <use xlink:href="#mfc5a6592a3" x="269.465244" y="158.18901" style="stroke: #000000; stroke-width: 0.8"/>
      </g>
     </g>
    </g>
    <g id="xtick_11">
     <g id="line2d_14">
      <g>
       <use xlink:href="#mfc5a6592a3" x="331.508174" y="158.18901" style="stroke: #000000; stroke-width: 0.8"/>
      </g>
     </g>
    </g>
    <g id="xtick_12">
     <g id="line2d_15">
      <g>
       <use xlink:href="#mfc5a6592a3" x="393.381588" y="158.18901" style="stroke: #000000; stroke-width: 0.8"/>
      </g>
     </g>
    </g>
   </g>
   <g id="matplotlib.axis_4">
    <g id="ytick_3">
     <g id="line2d_16">
      <g>
       <use xlink:href="#maf8395712d" x="78.59" y="154.554163" style="stroke: #000000; stroke-width: 0.8"/>
      </g>
     </g>
     <g id="text_5">
      <!-- 2 -->
      <g transform="translate(65.2275 158.353382) scale(0.1 -0.1)">
       <use xlink:href="#DejaVuSans-32"/>
      </g>
     </g>
    </g>
    <g id="ytick_4">
     <g id="line2d_17">
      <g>
       <use xlink:href="#maf8395712d" x="78.59" y="113.632125" style="stroke: #000000; stroke-width: 0.8"/>
      </g>
     </g>
     <g id="text_6">
      <!-- 4 -->
      <g transform="translate(65.2275 117.431343) scale(0.1 -0.1)">
       <use xlink:href="#DejaVuSans-34"/>
      </g>
     </g>
    </g>
    <g id="text_7">
     <!-- Trend -->
     <g transform="translate(59.147813 145.376159) rotate(-90) scale(0.1 -0.1)">
      <defs>
       <path id="DejaVuSans-54" d="M -19 4666 
L 3928 4666 
L 3928 4134 
L 2272 4134 
L 2272 0 
L 1638 0 
L 1638 4134 
L -19 4134 
L -19 4666 
z
" transform="scale(0.015625)"/>
       <path id="DejaVuSans-72" d="M 2631 2963 
Q 2534 3019 2420 3045 
Q 2306 3072 2169 3072 
Q 1681 3072 1420 2755 
Q 1159 2438 1159 1844 
L 1159 0 
L 581 0 
L 581 3500 
L 1159 3500 
L 1159 2956 
Q 1341 3275 1631 3429 
Q 1922 3584 2338 3584 
Q 2397 3584 2469 3576 
Q 2541 3569 2628 3553 
L 2631 2963 
z
" transform="scale(0.015625)"/>
       <path id="DejaVuSans-6e" d="M 3513 2113 
L 3513 0 
L 2938 0 
L 2938 2094 
Q 2938 2591 2744 2837 
Q 2550 3084 2163 3084 
Q 1697 3084 1428 2787 
Q 1159 2491 1159 1978 
L 1159 0 
L 581 0 
L 581 3500 
L 1159 3500 
L 1159 2956 
Q 1366 3272 1645 3428 
Q 1925 3584 2291 3584 
Q 2894 3584 3203 3211 
Q 3513 2838 3513 2113 
z
" transform="scale(0.015625)"/>
       <path id="DejaVuSans-64" d="M 2906 2969 
L 2906 4863 
L 3481 4863 
L 3481 0 
L 2906 0 
L 2906 525 
Q 2725 213 2448 61 
Q 2172 -91 1784 -91 
Q 1150 -91 751 415 
Q 353 922 353 1747 
Q 353 2572 751 3078 
Q 1150 3584 1784 3584 
Q 2172 3584 2448 3432 
Q 2725 3281 2906 2969 
z
M 947 1747 
Q 947 1113 1208 752 
Q 1469 391 1925 391 
Q 2381 391 2643 752 
Q 2906 1113 2906 1747 
Q 2906 2381 2643 2742 
Q 2381 3103 1925 3103 
Q 1469 3103 1208 2742 
Q 947 2381 947 1747 
z
" transform="scale(0.015625)"/>
      </defs>
      <use xlink:href="#DejaVuSans-54"/>
      <use xlink:href="#DejaVuSans-72" x="46.333984"/>
      <use xlink:href="#DejaVuSans-65" x="85.197266"/>
      <use xlink:href="#DejaVuSans-6e" x="146.720703"/>
      <use xlink:href="#DejaVuSans-64" x="210.099609"/>
     </g>
    </g>
    <g id="text_8">
     <!-- 1e7 -->
     <g transform="translate(78.59 102.205495) scale(0.1 -0.1)">
      <use xlink:href="#DejaVuSans-31"/>
      <use xlink:href="#DejaVuSans-65" x="63.623047"/>
      <use xlink:href="#DejaVuSans-37" x="125.146484"/>
     </g>
    </g>
   </g>
   <g id="line2d_18">
    <path d="M 83.845002 149.178666 
L 89.100005 147.22004 
L 93.846458 144.48021 
L 99.101461 145.523868 
L 104.186947 145.747795 
L 109.441949 140.592359 
L 114.527435 132.137787 
L 119.782437 129.389516 
L 125.03744 132.086786 
L 130.122926 127.723722 
L 135.377928 122.996566 
L 140.463414 125.412489 
L 145.718416 124.350252 
L 150.973419 119.996304 
L 155.719872 118.80641 
L 160.974874 130.159235 
L 166.060361 149.676842 
L 171.315363 155.780669 
L 176.400849 142.826573 
L 181.655851 134.712797 
L 186.910853 146.970792 
L 191.99634 154.024706 
L 197.251342 150.01695 
L 202.336828 151.183549 
L 207.59183 153.698788 
L 212.846832 152.472079 
L 217.593286 150.113897 
L 222.848288 150.121664 
L 227.933775 150.837697 
L 233.188777 149.409018 
L 238.274263 146.910683 
L 243.529265 146.721197 
L 248.784267 149.47588 
L 253.869754 148.90981 
L 259.124756 145.087146 
L 264.210242 144.256617 
L 269.465244 145.054727 
L 274.720246 144.967593 
L 279.636216 143.400433 
L 284.891219 138.37571 
L 289.976705 135.393023 
L 295.231707 138.765803 
L 300.317193 139.068098 
L 305.572195 136.466409 
L 310.827198 140.767329 
L 315.912684 142.572942 
L 321.167686 135.511245 
L 326.253172 136.203289 
L 331.508174 145.395175 
L 336.763177 145.789006 
L 341.50963 140.242805 
L 346.764633 138.976235 
L 351.850119 140.478215 
L 357.105121 144.367417 
L 362.190607 147.580097 
L 367.445609 147.569623 
L 372.700612 147.027865 
L 377.786098 141.194914 
L 383.0411 133.094986 
L 388.126586 133.707316 
L 393.381588 139.236625 
L 398.636591 139.540272 
L 403.383044 133.661049 
L 408.638047 129.177747 
L 413.723533 132.658951 
L 418.978535 137.816748 
L 424.064021 132.813991 
L 429.319023 125.999189 
L 434.574026 124.69478 
L 439.659512 116.484856 
L 444.914514 107.613836 
" clip-path="url(#pe753fa5fc1)" style="fill: none; stroke: #1f77b4; stroke-width: 1.5; stroke-linecap: square"/>
   </g>
   <g id="patch_8">
    <path d="M 78.59 158.18901 
L 78.59 105.205495 
" style="fill: none; stroke: #000000; stroke-width: 0.8; stroke-linejoin: miter; stroke-linecap: square"/>
   </g>
   <g id="patch_9">
    <path d="M 450 158.18901 
L 450 105.205495 
" style="fill: none; stroke: #000000; stroke-width: 0.8; stroke-linejoin: miter; stroke-linecap: square"/>
   </g>
   <g id="patch_10">
    <path d="M 78.59 158.18901 
L 450 158.18901 
" style="fill: none; stroke: #000000; stroke-width: 0.8; stroke-linejoin: miter; stroke-linecap: square"/>
   </g>
   <g id="patch_11">
    <path d="M 78.59 105.205495 
L 450 105.205495 
" style="fill: none; stroke: #000000; stroke-width: 0.8; stroke-linejoin: miter; stroke-linecap: square"/>
   </g>
  </g>
  <g id="axes_3">
   <g id="patch_12">
    <path d="M 78.59 237.954505 
L 450 237.954505 
L 450 184.97099 
L 78.59 184.97099 
z
" style="fill: #ffffff"/>
   </g>
   <g id="matplotlib.axis_5">
    <g id="xtick_13">
     <g id="line2d_19">
      <g>
       <use xlink:href="#mfc5a6592a3" x="83.845002" y="237.954505" style="stroke: #000000; stroke-width: 0.8"/>
      </g>
     </g>
    </g>
    <g id="xtick_14">
     <g id="line2d_20">
      <g>
       <use xlink:href="#mfc5a6592a3" x="145.718416" y="237.954505" style="stroke: #000000; stroke-width: 0.8"/>
      </g>
     </g>
    </g>
    <g id="xtick_15">
     <g id="line2d_21">
      <g>
       <use xlink:href="#mfc5a6592a3" x="207.59183" y="237.954505" style="stroke: #000000; stroke-width: 0.8"/>
      </g>
     </g>
    </g>
    <g id="xtick_16">
     <g id="line2d_22">
      <g>
       <use xlink:href="#mfc5a6592a3" x="269.465244" y="237.954505" style="stroke: #000000; stroke-width: 0.8"/>
      </g>
     </g>
    </g>
    <g id="xtick_17">
     <g id="line2d_23">
      <g>
       <use xlink:href="#mfc5a6592a3" x="331.508174" y="237.954505" style="stroke: #000000; stroke-width: 0.8"/>
      </g>
     </g>
    </g>
    <g id="xtick_18">
     <g id="line2d_24">
      <g>
       <use xlink:href="#mfc5a6592a3" x="393.381588" y="237.954505" style="stroke: #000000; stroke-width: 0.8"/>
      </g>
     </g>
    </g>
   </g>
   <g id="matplotlib.axis_6">
    <g id="ytick_5">
     <g id="line2d_25">
      <g>
       <use xlink:href="#maf8395712d" x="78.59" y="236.985495" style="stroke: #000000; stroke-width: 0.8"/>
      </g>
     </g>
     <g id="text_9">
      <!-- −250000 -->
      <g transform="translate(25.035313 240.784714) scale(0.1 -0.1)">
       <defs>
        <path id="DejaVuSans-2212" d="M 678 2272 
L 4684 2272 
L 4684 1741 
L 678 1741 
L 678 2272 
z
" transform="scale(0.015625)"/>
        <path id="DejaVuSans-35" d="M 691 4666 
L 3169 4666 
L 3169 4134 
L 1269 4134 
L 1269 2991 
Q 1406 3038 1543 3061 
Q 1681 3084 1819 3084 
Q 2600 3084 3056 2656 
Q 3513 2228 3513 1497 
Q 3513 744 3044 326 
Q 2575 -91 1722 -91 
Q 1428 -91 1123 -41 
Q 819 9 494 109 
L 494 744 
Q 775 591 1075 516 
Q 1375 441 1709 441 
Q 2250 441 2565 725 
Q 2881 1009 2881 1497 
Q 2881 1984 2565 2268 
Q 2250 2553 1709 2553 
Q 1456 2553 1204 2497 
Q 953 2441 691 2322 
L 691 4666 
z
" transform="scale(0.015625)"/>
        <path id="DejaVuSans-30" d="M 2034 4250 
Q 1547 4250 1301 3770 
Q 1056 3291 1056 2328 
Q 1056 1369 1301 889 
Q 1547 409 2034 409 
Q 2525 409 2770 889 
Q 3016 1369 3016 2328 
Q 3016 3291 2770 3770 
Q 2525 4250 2034 4250 
z
M 2034 4750 
Q 2819 4750 3233 4129 
Q 3647 3509 3647 2328 
Q 3647 1150 3233 529 
Q 2819 -91 2034 -91 
Q 1250 -91 836 529 
Q 422 1150 422 2328 
Q 422 3509 836 4129 
Q 1250 4750 2034 4750 
z
" transform="scale(0.015625)"/>
       </defs>
       <use xlink:href="#DejaVuSans-2212"/>
       <use xlink:href="#DejaVuSans-32" x="83.789062"/>
       <use xlink:href="#DejaVuSans-35" x="147.412109"/>
       <use xlink:href="#DejaVuSans-30" x="211.035156"/>
       <use xlink:href="#DejaVuSans-30" x="274.658203"/>
       <use xlink:href="#DejaVuSans-30" x="338.28125"/>
       <use xlink:href="#DejaVuSans-30" x="401.904297"/>
      </g>
     </g>
    </g>
    <g id="ytick_6">
     <g id="line2d_26">
      <g>
       <use xlink:href="#maf8395712d" x="78.59" y="211.462747" style="stroke: #000000; stroke-width: 0.8"/>
      </g>
     </g>
     <g id="text_10">
      <!-- 0 -->
      <g transform="translate(65.2275 215.261966) scale(0.1 -0.1)">
       <use xlink:href="#DejaVuSans-30"/>
      </g>
     </g>
    </g>
    <g id="ytick_7">
     <g id="line2d_27">
      <g>
       <use xlink:href="#maf8395712d" x="78.59" y="185.94" style="stroke: #000000; stroke-width: 0.8"/>
      </g>
     </g>
     <g id="text_11">
      <!-- 250000 -->
      <g transform="translate(33.415 189.739218) scale(0.1 -0.1)">
       <use xlink:href="#DejaVuSans-32"/>
       <use xlink:href="#DejaVuSans-35" x="63.623047"/>
       <use xlink:href="#DejaVuSans-30" x="127.246094"/>
       <use xlink:href="#DejaVuSans-30" x="190.869141"/>
       <use xlink:href="#DejaVuSans-30" x="254.492188"/>
       <use xlink:href="#DejaVuSans-30" x="318.115234"/>
      </g>
     </g>
    </g>
    <g id="text_12">
     <!-- Seasonal -->
     <g transform="translate(18.955625 234.063529) rotate(-90) scale(0.1 -0.1)">
      <defs>
       <path id="DejaVuSans-53" d="M 3425 4513 
L 3425 3897 
Q 3066 4069 2747 4153 
Q 2428 4238 2131 4238 
Q 1616 4238 1336 4038 
Q 1056 3838 1056 3469 
Q 1056 3159 1242 3001 
Q 1428 2844 1947 2747 
L 2328 2669 
Q 3034 2534 3370 2195 
Q 3706 1856 3706 1288 
Q 3706 609 3251 259 
Q 2797 -91 1919 -91 
Q 1588 -91 1214 -16 
Q 841 59 441 206 
L 441 856 
Q 825 641 1194 531 
Q 1563 422 1919 422 
Q 2459 422 2753 634 
Q 3047 847 3047 1241 
Q 3047 1584 2836 1778 
Q 2625 1972 2144 2069 
L 1759 2144 
Q 1053 2284 737 2584 
Q 422 2884 422 3419 
Q 422 4038 858 4394 
Q 1294 4750 2059 4750 
Q 2388 4750 2728 4690 
Q 3069 4631 3425 4513 
z
" transform="scale(0.015625)"/>
       <path id="DejaVuSans-6f" d="M 1959 3097 
Q 1497 3097 1228 2736 
Q 959 2375 959 1747 
Q 959 1119 1226 758 
Q 1494 397 1959 397 
Q 2419 397 2687 759 
Q 2956 1122 2956 1747 
Q 2956 2369 2687 2733 
Q 2419 3097 1959 3097 
z
M 1959 3584 
Q 2709 3584 3137 3096 
Q 3566 2609 3566 1747 
Q 3566 888 3137 398 
Q 2709 -91 1959 -91 
Q 1206 -91 779 398 
Q 353 888 353 1747 
Q 353 2609 779 3096 
Q 1206 3584 1959 3584 
z
" transform="scale(0.015625)"/>
       <path id="DejaVuSans-6c" d="M 603 4863 
L 1178 4863 
L 1178 0 
L 603 0 
L 603 4863 
z
" transform="scale(0.015625)"/>
      </defs>
      <use xlink:href="#DejaVuSans-53"/>
      <use xlink:href="#DejaVuSans-65" x="63.476562"/>
      <use xlink:href="#DejaVuSans-61" x="125"/>
      <use xlink:href="#DejaVuSans-73" x="186.279297"/>
      <use xlink:href="#DejaVuSans-6f" x="238.378906"/>
      <use xlink:href="#DejaVuSans-6e" x="299.560547"/>
      <use xlink:href="#DejaVuSans-61" x="362.939453"/>
      <use xlink:href="#DejaVuSans-6c" x="424.21875"/>
     </g>
    </g>
   </g>
   <g id="line2d_28">
    <path d="M 78.59 235.546164 
L 83.845002 187.379331 
L 89.100005 235.546164 
L 93.846458 187.379331 
L 99.101461 235.546164 
L 104.186947 187.379331 
L 109.441949 235.546164 
L 114.527435 187.379331 
L 119.782437 235.546164 
L 125.03744 187.379331 
L 130.122926 235.546164 
L 135.377928 187.379331 
L 140.463414 235.546164 
L 145.718416 187.379331 
L 150.973419 235.546164 
L 155.719872 187.379331 
L 160.974874 235.546164 
L 166.060361 187.379331 
L 171.315363 235.546164 
L 176.400849 187.379331 
L 181.655851 235.546164 
L 186.910853 187.379331 
L 191.99634 235.546164 
L 197.251342 187.379331 
L 202.336828 235.546164 
L 207.59183 187.379331 
L 212.846832 235.546164 
L 217.593286 187.379331 
L 222.848288 235.546164 
L 227.933775 187.379331 
L 233.188777 235.546164 
L 238.274263 187.379331 
L 243.529265 235.546164 
L 248.784267 187.379331 
L 253.869754 235.546164 
L 259.124756 187.379331 
L 264.210242 235.546164 
L 269.465244 187.379331 
L 274.720246 235.546164 
L 279.636216 187.379331 
L 284.891219 235.546164 
L 289.976705 187.379331 
L 295.231707 235.546164 
L 300.317193 187.379331 
L 305.572195 235.546164 
L 310.827198 187.379331 
L 315.912684 235.546164 
L 321.167686 187.379331 
L 326.253172 235.546164 
L 331.508174 187.379331 
L 336.763177 235.546164 
L 341.50963 187.379331 
L 346.764633 235.546164 
L 351.850119 187.379331 
L 357.105121 235.546164 
L 362.190607 187.379331 
L 367.445609 235.546164 
L 372.700612 187.379331 
L 377.786098 235.546164 
L 383.0411 187.379331 
L 388.126586 235.546164 
L 393.381588 187.379331 
L 398.636591 235.546164 
L 403.383044 187.379331 
L 408.638047 235.546164 
L 413.723533 187.379331 
L 418.978535 235.546164 
L 424.064021 187.379331 
L 429.319023 235.546164 
L 434.574026 187.379331 
L 439.659512 235.546164 
L 444.914514 187.379331 
L 450 235.546164 
" clip-path="url(#p628b18ad70)" style="fill: none; stroke: #1f77b4; stroke-width: 1.5; stroke-linecap: square"/>
   </g>
   <g id="patch_13">
    <path d="M 78.59 237.954505 
L 78.59 184.97099 
" style="fill: none; stroke: #000000; stroke-width: 0.8; stroke-linejoin: miter; stroke-linecap: square"/>
   </g>
   <g id="patch_14">
    <path d="M 450 237.954505 
L 450 184.97099 
" style="fill: none; stroke: #000000; stroke-width: 0.8; stroke-linejoin: miter; stroke-linecap: square"/>
   </g>
   <g id="patch_15">
    <path d="M 78.59 237.954505 
L 450 237.954505 
" style="fill: none; stroke: #000000; stroke-width: 0.8; stroke-linejoin: miter; stroke-linecap: square"/>
   </g>
   <g id="patch_16">
    <path d="M 78.59 184.97099 
L 450 184.97099 
" style="fill: none; stroke: #000000; stroke-width: 0.8; stroke-linejoin: miter; stroke-linecap: square"/>
   </g>
  </g>
  <g id="axes_4">
   <g id="patch_17">
    <path d="M 78.59 317.72 
L 450 317.72 
L 450 264.736485 
L 78.59 264.736485 
z
" style="fill: #ffffff"/>
   </g>
   <g id="line2d_29">
    <path d="M 78.59 298.006701 
L 450 298.006701 
" clip-path="url(#pa86df3dbf2)" style="fill: none; stroke: #000000; stroke-width: 1.5; stroke-linecap: square"/>
   </g>
   <g id="matplotlib.axis_7">
    <g id="xtick_19">
     <g id="line2d_30">
      <g>
       <use xlink:href="#mfc5a6592a3" x="83.845002" y="317.72" style="stroke: #000000; stroke-width: 0.8"/>
      </g>
     </g>
     <g id="text_13">
      <!-- 2017 -->
      <g transform="translate(71.120002 332.318438) scale(0.1 -0.1)">
       <use xlink:href="#DejaVuSans-32"/>
       <use xlink:href="#DejaVuSans-30" x="63.623047"/>
       <use xlink:href="#DejaVuSans-31" x="127.246094"/>
       <use xlink:href="#DejaVuSans-37" x="190.869141"/>
      </g>
     </g>
    </g>
    <g id="xtick_20">
     <g id="line2d_31">
      <g>
       <use xlink:href="#mfc5a6592a3" x="145.718416" y="317.72" style="stroke: #000000; stroke-width: 0.8"/>
      </g>
     </g>
     <g id="text_14">
      <!-- 2018 -->
      <g transform="translate(132.993416 332.318438) scale(0.1 -0.1)">
       <defs>
        <path id="DejaVuSans-38" d="M 2034 2216 
Q 1584 2216 1326 1975 
Q 1069 1734 1069 1313 
Q 1069 891 1326 650 
Q 1584 409 2034 409 
Q 2484 409 2743 651 
Q 3003 894 3003 1313 
Q 3003 1734 2745 1975 
Q 2488 2216 2034 2216 
z
M 1403 2484 
Q 997 2584 770 2862 
Q 544 3141 544 3541 
Q 544 4100 942 4425 
Q 1341 4750 2034 4750 
Q 2731 4750 3128 4425 
Q 3525 4100 3525 3541 
Q 3525 3141 3298 2862 
Q 3072 2584 2669 2484 
Q 3125 2378 3379 2068 
Q 3634 1759 3634 1313 
Q 3634 634 3220 271 
Q 2806 -91 2034 -91 
Q 1263 -91 848 271 
Q 434 634 434 1313 
Q 434 1759 690 2068 
Q 947 2378 1403 2484 
z
M 1172 3481 
Q 1172 3119 1398 2916 
Q 1625 2713 2034 2713 
Q 2441 2713 2670 2916 
Q 2900 3119 2900 3481 
Q 2900 3844 2670 4047 
Q 2441 4250 2034 4250 
Q 1625 4250 1398 4047 
Q 1172 3844 1172 3481 
z
" transform="scale(0.015625)"/>
       </defs>
       <use xlink:href="#DejaVuSans-32"/>
       <use xlink:href="#DejaVuSans-30" x="63.623047"/>
       <use xlink:href="#DejaVuSans-31" x="127.246094"/>
       <use xlink:href="#DejaVuSans-38" x="190.869141"/>
      </g>
     </g>
    </g>
    <g id="xtick_21">
     <g id="line2d_32">
      <g>
       <use xlink:href="#mfc5a6592a3" x="207.59183" y="317.72" style="stroke: #000000; stroke-width: 0.8"/>
      </g>
     </g>
     <g id="text_15">
      <!-- 2019 -->
      <g transform="translate(194.86683 332.318438) scale(0.1 -0.1)">
       <defs>
        <path id="DejaVuSans-39" d="M 703 97 
L 703 672 
Q 941 559 1184 500 
Q 1428 441 1663 441 
Q 2288 441 2617 861 
Q 2947 1281 2994 2138 
Q 2813 1869 2534 1725 
Q 2256 1581 1919 1581 
Q 1219 1581 811 2004 
Q 403 2428 403 3163 
Q 403 3881 828 4315 
Q 1253 4750 1959 4750 
Q 2769 4750 3195 4129 
Q 3622 3509 3622 2328 
Q 3622 1225 3098 567 
Q 2575 -91 1691 -91 
Q 1453 -91 1209 -44 
Q 966 3 703 97 
z
M 1959 2075 
Q 2384 2075 2632 2365 
Q 2881 2656 2881 3163 
Q 2881 3666 2632 3958 
Q 2384 4250 1959 4250 
Q 1534 4250 1286 3958 
Q 1038 3666 1038 3163 
Q 1038 2656 1286 2365 
Q 1534 2075 1959 2075 
z
" transform="scale(0.015625)"/>
       </defs>
       <use xlink:href="#DejaVuSans-32"/>
       <use xlink:href="#DejaVuSans-30" x="63.623047"/>
       <use xlink:href="#DejaVuSans-31" x="127.246094"/>
       <use xlink:href="#DejaVuSans-39" x="190.869141"/>
      </g>
     </g>
    </g>
    <g id="xtick_22">
     <g id="line2d_33">
      <g>
       <use xlink:href="#mfc5a6592a3" x="269.465244" y="317.72" style="stroke: #000000; stroke-width: 0.8"/>
      </g>
     </g>
     <g id="text_16">
      <!-- 2020 -->
      <g transform="translate(256.740244 332.318438) scale(0.1 -0.1)">
       <use xlink:href="#DejaVuSans-32"/>
       <use xlink:href="#DejaVuSans-30" x="63.623047"/>
       <use xlink:href="#DejaVuSans-32" x="127.246094"/>
       <use xlink:href="#DejaVuSans-30" x="190.869141"/>
      </g>
     </g>
    </g>
    <g id="xtick_23">
     <g id="line2d_34">
      <g>
       <use xlink:href="#mfc5a6592a3" x="331.508174" y="317.72" style="stroke: #000000; stroke-width: 0.8"/>
      </g>
     </g>
     <g id="text_17">
      <!-- 2021 -->
      <g transform="translate(318.783174 332.318438) scale(0.1 -0.1)">
       <use xlink:href="#DejaVuSans-32"/>
       <use xlink:href="#DejaVuSans-30" x="63.623047"/>
       <use xlink:href="#DejaVuSans-32" x="127.246094"/>
       <use xlink:href="#DejaVuSans-31" x="190.869141"/>
      </g>
     </g>
    </g>
    <g id="xtick_24">
     <g id="line2d_35">
      <g>
       <use xlink:href="#mfc5a6592a3" x="393.381588" y="317.72" style="stroke: #000000; stroke-width: 0.8"/>
      </g>
     </g>
     <g id="text_18">
      <!-- 2022 -->
      <g transform="translate(380.656588 332.318438) scale(0.1 -0.1)">
       <use xlink:href="#DejaVuSans-32"/>
       <use xlink:href="#DejaVuSans-30" x="63.623047"/>
       <use xlink:href="#DejaVuSans-32" x="127.246094"/>
       <use xlink:href="#DejaVuSans-32" x="190.869141"/>
      </g>
     </g>
    </g>
   </g>
   <g id="matplotlib.axis_8">
    <g id="ytick_8">
     <g id="line2d_36">
      <g>
       <use xlink:href="#maf8395712d" x="78.59" y="316.243641" style="stroke: #000000; stroke-width: 0.8"/>
      </g>
     </g>
     <g id="text_19">
      <!-- −5 -->
      <g transform="translate(56.847813 320.04286) scale(0.1 -0.1)">
       <use xlink:href="#DejaVuSans-2212"/>
       <use xlink:href="#DejaVuSans-35" x="83.789062"/>
      </g>
     </g>
    </g>
    <g id="ytick_9">
     <g id="line2d_37">
      <g>
       <use xlink:href="#maf8395712d" x="78.59" y="298.006701" style="stroke: #000000; stroke-width: 0.8"/>
      </g>
     </g>
     <g id="text_20">
      <!-- 0 -->
      <g transform="translate(65.2275 301.805919) scale(0.1 -0.1)">
       <use xlink:href="#DejaVuSans-30"/>
      </g>
     </g>
    </g>
    <g id="ytick_10">
     <g id="line2d_38">
      <g>
       <use xlink:href="#maf8395712d" x="78.59" y="279.76976" style="stroke: #000000; stroke-width: 0.8"/>
      </g>
     </g>
     <g id="text_21">
      <!-- 5 -->
      <g transform="translate(65.2275 283.568979) scale(0.1 -0.1)">
       <use xlink:href="#DejaVuSans-35"/>
      </g>
     </g>
    </g>
    <g id="text_22">
     <!-- Resid -->
     <g transform="translate(50.768125 304.721992) rotate(-90) scale(0.1 -0.1)">
      <defs>
       <path id="DejaVuSans-52" d="M 2841 2188 
Q 3044 2119 3236 1894 
Q 3428 1669 3622 1275 
L 4263 0 
L 3584 0 
L 2988 1197 
Q 2756 1666 2539 1819 
Q 2322 1972 1947 1972 
L 1259 1972 
L 1259 0 
L 628 0 
L 628 4666 
L 2053 4666 
Q 2853 4666 3247 4331 
Q 3641 3997 3641 3322 
Q 3641 2881 3436 2590 
Q 3231 2300 2841 2188 
z
M 1259 4147 
L 1259 2491 
L 2053 2491 
Q 2509 2491 2742 2702 
Q 2975 2913 2975 3322 
Q 2975 3731 2742 3939 
Q 2509 4147 2053 4147 
L 1259 4147 
z
" transform="scale(0.015625)"/>
      </defs>
      <use xlink:href="#DejaVuSans-52"/>
      <use xlink:href="#DejaVuSans-65" x="64.982422"/>
      <use xlink:href="#DejaVuSans-73" x="126.505859"/>
      <use xlink:href="#DejaVuSans-69" x="178.605469"/>
      <use xlink:href="#DejaVuSans-64" x="206.388672"/>
     </g>
    </g>
    <g id="text_23">
     <!-- 1e6 -->
     <g transform="translate(78.59 261.736485) scale(0.1 -0.1)">
      <defs>
       <path id="DejaVuSans-36" d="M 2113 2584 
Q 1688 2584 1439 2293 
Q 1191 2003 1191 1497 
Q 1191 994 1439 701 
Q 1688 409 2113 409 
Q 2538 409 2786 701 
Q 3034 994 3034 1497 
Q 3034 2003 2786 2293 
Q 2538 2584 2113 2584 
z
M 3366 4563 
L 3366 3988 
Q 3128 4100 2886 4159 
Q 2644 4219 2406 4219 
Q 1781 4219 1451 3797 
Q 1122 3375 1075 2522 
Q 1259 2794 1537 2939 
Q 1816 3084 2150 3084 
Q 2853 3084 3261 2657 
Q 3669 2231 3669 1497 
Q 3669 778 3244 343 
Q 2819 -91 2113 -91 
Q 1303 -91 875 529 
Q 447 1150 447 2328 
Q 447 3434 972 4092 
Q 1497 4750 2381 4750 
Q 2619 4750 2861 4703 
Q 3103 4656 3366 4563 
z
" transform="scale(0.015625)"/>
      </defs>
      <use xlink:href="#DejaVuSans-31"/>
      <use xlink:href="#DejaVuSans-65" x="63.623047"/>
      <use xlink:href="#DejaVuSans-36" x="125.146484"/>
     </g>
    </g>
   </g>
   <g id="line2d_39">
    <defs>
     <path id="m4018064391" d="M 0 3 
C 0.795609 3 1.55874 2.683901 2.12132 2.12132 
C 2.683901 1.55874 3 0.795609 3 0 
C 3 -0.795609 2.683901 -1.55874 2.12132 -2.12132 
C 1.55874 -2.683901 0.795609 -3 0 -3 
C -0.795609 -3 -1.55874 -2.683901 -2.12132 -2.12132 
C -2.683901 -1.55874 -3 -0.795609 -3 0 
C -3 0.795609 -2.683901 1.55874 -2.12132 2.12132 
C -1.55874 2.683901 -0.795609 3 0 3 
z
" style="stroke: #1f77b4"/>
    </defs>
    <g clip-path="url(#pa86df3dbf2)">
     <use xlink:href="#m4018064391" x="83.845002" y="301.783574" style="fill: #1f77b4; stroke: #1f77b4"/>
     <use xlink:href="#m4018064391" x="89.100005" y="299.809248" style="fill: #1f77b4; stroke: #1f77b4"/>
     <use xlink:href="#m4018064391" x="93.846458" y="292.01731" style="fill: #1f77b4; stroke: #1f77b4"/>
     <use xlink:href="#m4018064391" x="99.101461" y="301.438475" style="fill: #1f77b4; stroke: #1f77b4"/>
     <use xlink:href="#m4018064391" x="104.186947" y="298.593798" style="fill: #1f77b4; stroke: #1f77b4"/>
     <use xlink:href="#m4018064391" x="109.441949" y="302.990002" style="fill: #1f77b4; stroke: #1f77b4"/>
     <use xlink:href="#m4018064391" x="114.527435" y="293.334051" style="fill: #1f77b4; stroke: #1f77b4"/>
     <use xlink:href="#m4018064391" x="119.782437" y="292.196628" style="fill: #1f77b4; stroke: #1f77b4"/>
     <use xlink:href="#m4018064391" x="125.03744" y="304.592253" style="fill: #1f77b4; stroke: #1f77b4"/>
     <use xlink:href="#m4018064391" x="130.122926" y="303.231445" style="fill: #1f77b4; stroke: #1f77b4"/>
     <use xlink:href="#m4018064391" x="135.377928" y="281.620687" style="fill: #1f77b4; stroke: #1f77b4"/>
     <use xlink:href="#m4018064391" x="140.463414" y="312.820707" style="fill: #1f77b4; stroke: #1f77b4"/>
     <use xlink:href="#m4018064391" x="145.718416" y="290.964881" style="fill: #1f77b4; stroke: #1f77b4"/>
     <use xlink:href="#m4018064391" x="150.973419" y="303.144151" style="fill: #1f77b4; stroke: #1f77b4"/>
     <use xlink:href="#m4018064391" x="155.719872" y="289.133365" style="fill: #1f77b4; stroke: #1f77b4"/>
     <use xlink:href="#m4018064391" x="160.974874" y="288.25723" style="fill: #1f77b4; stroke: #1f77b4"/>
     <use xlink:href="#m4018064391" x="166.060361" y="311.824411" style="fill: #1f77b4; stroke: #1f77b4"/>
     <use xlink:href="#m4018064391" x="171.315363" y="304.032201" style="fill: #1f77b4; stroke: #1f77b4"/>
     <use xlink:href="#m4018064391" x="176.400849" y="306.110703" style="fill: #1f77b4; stroke: #1f77b4"/>
     <use xlink:href="#m4018064391" x="181.655851" y="267.144826" style="fill: #1f77b4; stroke: #1f77b4"/>
     <use xlink:href="#m4018064391" x="186.910853" y="315.311658" style="fill: #1f77b4; stroke: #1f77b4"/>
     <use xlink:href="#m4018064391" x="191.99634" y="303.535472" style="fill: #1f77b4; stroke: #1f77b4"/>
     <use xlink:href="#m4018064391" x="197.251342" y="289.362768" style="fill: #1f77b4; stroke: #1f77b4"/>
     <use xlink:href="#m4018064391" x="202.336828" y="300.541974" style="fill: #1f77b4; stroke: #1f77b4"/>
     <use xlink:href="#m4018064391" x="207.59183" y="299.175994" style="fill: #1f77b4; stroke: #1f77b4"/>
     <use xlink:href="#m4018064391" x="212.846832" y="299.803248" style="fill: #1f77b4; stroke: #1f77b4"/>
     <use xlink:href="#m4018064391" x="217.593286" y="295.26128" style="fill: #1f77b4; stroke: #1f77b4"/>
     <use xlink:href="#m4018064391" x="222.848288" y="297.483448" style="fill: #1f77b4; stroke: #1f77b4"/>
     <use xlink:href="#m4018064391" x="227.933775" y="300.536068" style="fill: #1f77b4; stroke: #1f77b4"/>
     <use xlink:href="#m4018064391" x="233.188777" y="297.294388" style="fill: #1f77b4; stroke: #1f77b4"/>
     <use xlink:href="#m4018064391" x="238.274263" y="298.80873" style="fill: #1f77b4; stroke: #1f77b4"/>
     <use xlink:href="#m4018064391" x="243.529265" y="292.999194" style="fill: #1f77b4; stroke: #1f77b4"/>
     <use xlink:href="#m4018064391" x="248.784267" y="301.971397" style="fill: #1f77b4; stroke: #1f77b4"/>
     <use xlink:href="#m4018064391" x="253.869754" y="301.004401" style="fill: #1f77b4; stroke: #1f77b4"/>
     <use xlink:href="#m4018064391" x="259.124756" y="293.851818" style="fill: #1f77b4; stroke: #1f77b4"/>
     <use xlink:href="#m4018064391" x="264.210242" y="297.984976" style="fill: #1f77b4; stroke: #1f77b4"/>
     <use xlink:href="#m4018064391" x="269.465244" y="299.301815" style="fill: #1f77b4; stroke: #1f77b4"/>
     <use xlink:href="#m4018064391" x="274.720246" y="297.016235" style="fill: #1f77b4; stroke: #1f77b4"/>
     <use xlink:href="#m4018064391" x="279.636216" y="301.330816" style="fill: #1f77b4; stroke: #1f77b4"/>
     <use xlink:href="#m4018064391" x="284.891219" y="298.512399" style="fill: #1f77b4; stroke: #1f77b4"/>
     <use xlink:href="#m4018064391" x="289.976705" y="290.031049" style="fill: #1f77b4; stroke: #1f77b4"/>
     <use xlink:href="#m4018064391" x="295.231707" y="302.123027" style="fill: #1f77b4; stroke: #1f77b4"/>
     <use xlink:href="#m4018064391" x="300.317193" y="303.223155" style="fill: #1f77b4; stroke: #1f77b4"/>
     <use xlink:href="#m4018064391" x="305.572195" y="288.63412" style="fill: #1f77b4; stroke: #1f77b4"/>
     <use xlink:href="#m4018064391" x="310.827198" y="299.230793" style="fill: #1f77b4; stroke: #1f77b4"/>
     <use xlink:href="#m4018064391" x="315.912684" y="309.379239" style="fill: #1f77b4; stroke: #1f77b4"/>
     <use xlink:href="#m4018064391" x="321.167686" y="289.844425" style="fill: #1f77b4; stroke: #1f77b4"/>
     <use xlink:href="#m4018064391" x="326.253172" y="289.13687" style="fill: #1f77b4; stroke: #1f77b4"/>
     <use xlink:href="#m4018064391" x="331.508174" y="308.75679" style="fill: #1f77b4; stroke: #1f77b4"/>
     <use xlink:href="#m4018064391" x="336.763177" y="301.059792" style="fill: #1f77b4; stroke: #1f77b4"/>
     <use xlink:href="#m4018064391" x="341.50963" y="291.739148" style="fill: #1f77b4; stroke: #1f77b4"/>
     <use xlink:href="#m4018064391" x="346.764633" y="299.859828" style="fill: #1f77b4; stroke: #1f77b4"/>
     <use xlink:href="#m4018064391" x="351.850119" y="295.632771" style="fill: #1f77b4; stroke: #1f77b4"/>
     <use xlink:href="#m4018064391" x="357.105121" y="296.645961" style="fill: #1f77b4; stroke: #1f77b4"/>
     <use xlink:href="#m4018064391" x="362.190607" y="304.308078" style="fill: #1f77b4; stroke: #1f77b4"/>
     <use xlink:href="#m4018064391" x="367.445609" y="292.510292" style="fill: #1f77b4; stroke: #1f77b4"/>
     <use xlink:href="#m4018064391" x="372.700612" y="303.645208" style="fill: #1f77b4; stroke: #1f77b4"/>
     <use xlink:href="#m4018064391" x="377.786098" y="301.658194" style="fill: #1f77b4; stroke: #1f77b4"/>
     <use xlink:href="#m4018064391" x="383.0411" y="289.106328" style="fill: #1f77b4; stroke: #1f77b4"/>
     <use xlink:href="#m4018064391" x="388.126586" y="296.625452" style="fill: #1f77b4; stroke: #1f77b4"/>
     <use xlink:href="#m4018064391" x="393.381588" y="300.904548" style="fill: #1f77b4; stroke: #1f77b4"/>
     <use xlink:href="#m4018064391" x="398.636591" y="302.907535" style="fill: #1f77b4; stroke: #1f77b4"/>
     <use xlink:href="#m4018064391" x="403.383044" y="296.32879" style="fill: #1f77b4; stroke: #1f77b4"/>
     <use xlink:href="#m4018064391" x="408.638047" y="293.973314" style="fill: #1f77b4; stroke: #1f77b4"/>
     <use xlink:href="#m4018064391" x="413.723533" y="293.55383" style="fill: #1f77b4; stroke: #1f77b4"/>
     <use xlink:href="#m4018064391" x="418.978535" y="307.957128" style="fill: #1f77b4; stroke: #1f77b4"/>
     <use xlink:href="#m4018064391" x="424.064021" y="300.670954" style="fill: #1f77b4; stroke: #1f77b4"/>
     <use xlink:href="#m4018064391" x="429.319023" y="285.957923" style="fill: #1f77b4; stroke: #1f77b4"/>
     <use xlink:href="#m4018064391" x="434.574026" y="309.617156" style="fill: #1f77b4; stroke: #1f77b4"/>
     <use xlink:href="#m4018064391" x="439.659512" y="299.144362" style="fill: #1f77b4; stroke: #1f77b4"/>
     <use xlink:href="#m4018064391" x="444.914514" y="285.299393" style="fill: #1f77b4; stroke: #1f77b4"/>
    </g>
   </g>
   <g id="patch_18">
    <path d="M 78.59 317.72 
L 78.59 264.736485 
" style="fill: none; stroke: #000000; stroke-width: 0.8; stroke-linejoin: miter; stroke-linecap: square"/>
   </g>
   <g id="patch_19">
    <path d="M 450 317.72 
L 450 264.736485 
" style="fill: none; stroke: #000000; stroke-width: 0.8; stroke-linejoin: miter; stroke-linecap: square"/>
   </g>
   <g id="patch_20">
    <path d="M 78.59 317.72 
L 450 317.72 
" style="fill: none; stroke: #000000; stroke-width: 0.8; stroke-linejoin: miter; stroke-linecap: square"/>
   </g>
   <g id="patch_21">
    <path d="M 78.59 264.736485 
L 450 264.736485 
" style="fill: none; stroke: #000000; stroke-width: 0.8; stroke-linejoin: miter; stroke-linecap: square"/>
   </g>
  </g>
 </g>
 <defs>
  <clipPath id="p4fd0c339d2">
   <rect x="78.59" y="25.44" width="371.41" height="52.983515"/>
  </clipPath>
  <clipPath id="pe753fa5fc1">
   <rect x="78.59" y="105.205495" width="371.41" height="52.983515"/>
  </clipPath>
  <clipPath id="p628b18ad70">
   <rect x="78.59" y="184.97099" width="371.41" height="52.983515"/>
  </clipPath>
  <clipPath id="pa86df3dbf2">
   <rect x="78.59" y="264.736485" width="371.41" height="52.983515"/>
  </clipPath>
 </defs>
</svg>
