<?xml version="1.0" encoding="utf-8" standalone="no"?>
<!DOCTYPE svg PUBLIC "-//W3C//DTD SVG 1.1//EN"
  "http://www.w3.org/Graphics/SVG/1.1/DTD/svg11.dtd">
<svg xmlns:xlink="http://www.w3.org/1999/xlink" width="1152pt" height="864pt" viewBox="0 0 1152 864" xmlns="http://www.w3.org/2000/svg" version="1.1">
 <metadata>
  <rdf:RDF xmlns:dc="http://purl.org/dc/elements/1.1/" xmlns:cc="http://creativecommons.org/ns#" xmlns:rdf="http://www.w3.org/1999/02/22-rdf-syntax-ns#">
   <cc:Work>
    <dc:type rdf:resource="http://purl.org/dc/dcmitype/StillImage"/>
    <dc:date>2024-04-19T01:36:54.720346</dc:date>
    <dc:format>image/svg+xml</dc:format>
    <dc:creator>
     <cc:Agent>
      <dc:title>Matplotlib v3.8.0, https://matplotlib.org/</dc:title>
     </cc:Agent>
    </dc:creator>
   </cc:Work>
  </rdf:RDF>
 </metadata>
 <defs>
  <style type="text/css">*{stroke-linejoin: round; stroke-linecap: butt}</style>
 </defs>
 <g id="figure_1">
  <g id="patch_1">
   <path d="M 0 864 
L 1152 864 
L 1152 0 
L 0 0 
z
" style="fill: #ffffff"/>
  </g>
  <g id="axes_1">
   <g id="patch_2">
    <path d="M 144 299.350588 
L 1036.8 299.350588 
L 1036.8 103.68 
L 144 103.68 
z
" style="fill: #ffffff"/>
   </g>
   <g id="matplotlib.axis_1">
    <g id="xtick_1">
     <g id="line2d_1">
      <defs>
       <path id="mec5deae117" d="M 0 0 
L 0 3.5 
" style="stroke: #000000; stroke-width: 0.8"/>
      </defs>
      <g>
       <use xlink:href="#mec5deae117" x="196.065491" y="299.350588" style="stroke: #000000; stroke-width: 0.8"/>
      </g>
     </g>
     <g id="text_1">
      <!-- 2017 -->
      <g transform="translate(183.340491 313.949026) scale(0.1 -0.1)">
       <defs>
        <path id="DejaVuSans-32" d="M 1228 531 
L 3431 531 
L 3431 0 
L 469 0 
L 469 531 
Q 828 903 1448 1529 
Q 2069 2156 2228 2338 
Q 2531 2678 2651 2914 
Q 2772 3150 2772 3378 
Q 2772 3750 2511 3984 
Q 2250 4219 1831 4219 
Q 1534 4219 1204 4116 
Q 875 4013 500 3803 
L 500 4441 
Q 881 4594 1212 4672 
Q 1544 4750 1819 4750 
Q 2544 4750 2975 4387 
Q 3406 4025 3406 3419 
Q 3406 3131 3298 2873 
Q 3191 2616 2906 2266 
Q 2828 2175 2409 1742 
Q 1991 1309 1228 531 
z
" transform="scale(0.015625)"/>
        <path id="DejaVuSans-30" d="M 2034 4250 
Q 1547 4250 1301 3770 
Q 1056 3291 1056 2328 
Q 1056 1369 1301 889 
Q 1547 409 2034 409 
Q 2525 409 2770 889 
Q 3016 1369 3016 2328 
Q 3016 3291 2770 3770 
Q 2525 4250 2034 4250 
z
M 2034 4750 
Q 2819 4750 3233 4129 
Q 3647 3509 3647 2328 
Q 3647 1150 3233 529 
Q 2819 -91 2034 -91 
Q 1250 -91 836 529 
Q 422 1150 422 2328 
Q 422 3509 836 4129 
Q 1250 4750 2034 4750 
z
" transform="scale(0.015625)"/>
        <path id="DejaVuSans-31" d="M 794 531 
L 1825 531 
L 1825 4091 
L 703 3866 
L 703 4441 
L 1819 4666 
L 2450 4666 
L 2450 531 
L 3481 531 
L 3481 0 
L 794 0 
L 794 531 
z
" transform="scale(0.015625)"/>
        <path id="DejaVuSans-37" d="M 525 4666 
L 3525 4666 
L 3525 4397 
L 1831 0 
L 1172 0 
L 2766 4134 
L 525 4134 
L 525 4666 
z
" transform="scale(0.015625)"/>
       </defs>
       <use xlink:href="#DejaVuSans-32"/>
       <use xlink:href="#DejaVuSans-30" x="63.623047"/>
       <use xlink:href="#DejaVuSans-31" x="127.246094"/>
       <use xlink:href="#DejaVuSans-37" x="190.869141"/>
      </g>
     </g>
    </g>
    <g id="xtick_2">
     <g id="line2d_2">
      <g>
       <use xlink:href="#mec5deae117" x="331.276478" y="299.350588" style="stroke: #000000; stroke-width: 0.8"/>
      </g>
     </g>
     <g id="text_2">
      <!-- 2018 -->
      <g transform="translate(318.551478 313.949026) scale(0.1 -0.1)">
       <defs>
        <path id="DejaVuSans-38" d="M 2034 2216 
Q 1584 2216 1326 1975 
Q 1069 1734 1069 1313 
Q 1069 891 1326 650 
Q 1584 409 2034 409 
Q 2484 409 2743 651 
Q 3003 894 3003 1313 
Q 3003 1734 2745 1975 
Q 2488 2216 2034 2216 
z
M 1403 2484 
Q 997 2584 770 2862 
Q 544 3141 544 3541 
Q 544 4100 942 4425 
Q 1341 4750 2034 4750 
Q 2731 4750 3128 4425 
Q 3525 4100 3525 3541 
Q 3525 3141 3298 2862 
Q 3072 2584 2669 2484 
Q 3125 2378 3379 2068 
Q 3634 1759 3634 1313 
Q 3634 634 3220 271 
Q 2806 -91 2034 -91 
Q 1263 -91 848 271 
Q 434 634 434 1313 
Q 434 1759 690 2068 
Q 947 2378 1403 2484 
z
M 1172 3481 
Q 1172 3119 1398 2916 
Q 1625 2713 2034 2713 
Q 2441 2713 2670 2916 
Q 2900 3119 2900 3481 
Q 2900 3844 2670 4047 
Q 2441 4250 2034 4250 
Q 1625 4250 1398 4047 
Q 1172 3844 1172 3481 
z
" transform="scale(0.015625)"/>
       </defs>
       <use xlink:href="#DejaVuSans-32"/>
       <use xlink:href="#DejaVuSans-30" x="63.623047"/>
       <use xlink:href="#DejaVuSans-31" x="127.246094"/>
       <use xlink:href="#DejaVuSans-38" x="190.869141"/>
      </g>
     </g>
    </g>
    <g id="xtick_3">
     <g id="line2d_3">
      <g>
       <use xlink:href="#mec5deae117" x="466.487465" y="299.350588" style="stroke: #000000; stroke-width: 0.8"/>
      </g>
     </g>
     <g id="text_3">
      <!-- 2019 -->
      <g transform="translate(453.762465 313.949026) scale(0.1 -0.1)">
       <defs>
        <path id="DejaVuSans-39" d="M 703 97 
L 703 672 
Q 941 559 1184 500 
Q 1428 441 1663 441 
Q 2288 441 2617 861 
Q 2947 1281 2994 2138 
Q 2813 1869 2534 1725 
Q 2256 1581 1919 1581 
Q 1219 1581 811 2004 
Q 403 2428 403 3163 
Q 403 3881 828 4315 
Q 1253 4750 1959 4750 
Q 2769 4750 3195 4129 
Q 3622 3509 3622 2328 
Q 3622 1225 3098 567 
Q 2575 -91 1691 -91 
Q 1453 -91 1209 -44 
Q 966 3 703 97 
z
M 1959 2075 
Q 2384 2075 2632 2365 
Q 2881 2656 2881 3163 
Q 2881 3666 2632 3958 
Q 2384 4250 1959 4250 
Q 1534 4250 1286 3958 
Q 1038 3666 1038 3163 
Q 1038 2656 1286 2365 
Q 1534 2075 1959 2075 
z
" transform="scale(0.015625)"/>
       </defs>
       <use xlink:href="#DejaVuSans-32"/>
       <use xlink:href="#DejaVuSans-30" x="63.623047"/>
       <use xlink:href="#DejaVuSans-31" x="127.246094"/>
       <use xlink:href="#DejaVuSans-39" x="190.869141"/>
      </g>
     </g>
    </g>
    <g id="xtick_4">
     <g id="line2d_4">
      <g>
       <use xlink:href="#mec5deae117" x="601.698452" y="299.350588" style="stroke: #000000; stroke-width: 0.8"/>
      </g>
     </g>
     <g id="text_4">
      <!-- 2020 -->
      <g transform="translate(588.973452 313.949026) scale(0.1 -0.1)">
       <use xlink:href="#DejaVuSans-32"/>
       <use xlink:href="#DejaVuSans-30" x="63.623047"/>
       <use xlink:href="#DejaVuSans-32" x="127.246094"/>
       <use xlink:href="#DejaVuSans-30" x="190.869141"/>
      </g>
     </g>
    </g>
    <g id="xtick_5">
     <g id="line2d_5">
      <g>
       <use xlink:href="#mec5deae117" x="737.279881" y="299.350588" style="stroke: #000000; stroke-width: 0.8"/>
      </g>
     </g>
     <g id="text_5">
      <!-- 2021 -->
      <g transform="translate(724.554881 313.949026) scale(0.1 -0.1)">
       <use xlink:href="#DejaVuSans-32"/>
       <use xlink:href="#DejaVuSans-30" x="63.623047"/>
       <use xlink:href="#DejaVuSans-32" x="127.246094"/>
       <use xlink:href="#DejaVuSans-31" x="190.869141"/>
      </g>
     </g>
    </g>
    <g id="xtick_6">
     <g id="line2d_6">
      <g>
       <use xlink:href="#mec5deae117" x="872.490868" y="299.350588" style="stroke: #000000; stroke-width: 0.8"/>
      </g>
     </g>
     <g id="text_6">
      <!-- 2022 -->
      <g transform="translate(859.765868 313.949026) scale(0.1 -0.1)">
       <use xlink:href="#DejaVuSans-32"/>
       <use xlink:href="#DejaVuSans-30" x="63.623047"/>
       <use xlink:href="#DejaVuSans-32" x="127.246094"/>
       <use xlink:href="#DejaVuSans-32" x="190.869141"/>
      </g>
     </g>
    </g>
    <g id="xtick_7">
     <g id="line2d_7">
      <g>
       <use xlink:href="#mec5deae117" x="1007.701855" y="299.350588" style="stroke: #000000; stroke-width: 0.8"/>
      </g>
     </g>
     <g id="text_7">
      <!-- 2023 -->
      <g transform="translate(994.976855 313.949026) scale(0.1 -0.1)">
       <defs>
        <path id="DejaVuSans-33" d="M 2597 2516 
Q 3050 2419 3304 2112 
Q 3559 1806 3559 1356 
Q 3559 666 3084 287 
Q 2609 -91 1734 -91 
Q 1441 -91 1130 -33 
Q 819 25 488 141 
L 488 750 
Q 750 597 1062 519 
Q 1375 441 1716 441 
Q 2309 441 2620 675 
Q 2931 909 2931 1356 
Q 2931 1769 2642 2001 
Q 2353 2234 1838 2234 
L 1294 2234 
L 1294 2753 
L 1863 2753 
Q 2328 2753 2575 2939 
Q 2822 3125 2822 3475 
Q 2822 3834 2567 4026 
Q 2313 4219 1838 4219 
Q 1578 4219 1281 4162 
Q 984 4106 628 3988 
L 628 4550 
Q 988 4650 1302 4700 
Q 1616 4750 1894 4750 
Q 2613 4750 3031 4423 
Q 3450 4097 3450 3541 
Q 3450 3153 3228 2886 
Q 3006 2619 2597 2516 
z
" transform="scale(0.015625)"/>
       </defs>
       <use xlink:href="#DejaVuSans-32"/>
       <use xlink:href="#DejaVuSans-30" x="63.623047"/>
       <use xlink:href="#DejaVuSans-32" x="127.246094"/>
       <use xlink:href="#DejaVuSans-33" x="190.869141"/>
      </g>
     </g>
    </g>
   </g>
   <g id="matplotlib.axis_2">
    <g id="ytick_1">
     <g id="line2d_8">
      <defs>
       <path id="m37b174c900" d="M 0 0 
L -3.5 0 
" style="stroke: #000000; stroke-width: 0.8"/>
      </defs>
      <g>
       <use xlink:href="#m37b174c900" x="144" y="274.235753" style="stroke: #000000; stroke-width: 0.8"/>
      </g>
     </g>
     <g id="text_8">
      <!-- 0.2 -->
      <g transform="translate(121.096875 278.034972) scale(0.1 -0.1)">
       <defs>
        <path id="DejaVuSans-2e" d="M 684 794 
L 1344 794 
L 1344 0 
L 684 0 
L 684 794 
z
" transform="scale(0.015625)"/>
       </defs>
       <use xlink:href="#DejaVuSans-30"/>
       <use xlink:href="#DejaVuSans-2e" x="63.623047"/>
       <use xlink:href="#DejaVuSans-32" x="95.410156"/>
      </g>
     </g>
    </g>
    <g id="ytick_2">
     <g id="line2d_9">
      <g>
       <use xlink:href="#m37b174c900" x="144" y="239.164312" style="stroke: #000000; stroke-width: 0.8"/>
      </g>
     </g>
     <g id="text_9">
      <!-- 0.4 -->
      <g transform="translate(121.096875 242.96353) scale(0.1 -0.1)">
       <defs>
        <path id="DejaVuSans-34" d="M 2419 4116 
L 825 1625 
L 2419 1625 
L 2419 4116 
z
M 2253 4666 
L 3047 4666 
L 3047 1625 
L 3713 1625 
L 3713 1100 
L 3047 1100 
L 3047 0 
L 2419 0 
L 2419 1100 
L 313 1100 
L 313 1709 
L 2253 4666 
z
" transform="scale(0.015625)"/>
       </defs>
       <use xlink:href="#DejaVuSans-30"/>
       <use xlink:href="#DejaVuSans-2e" x="63.623047"/>
       <use xlink:href="#DejaVuSans-34" x="95.410156"/>
      </g>
     </g>
    </g>
    <g id="ytick_3">
     <g id="line2d_10">
      <g>
       <use xlink:href="#m37b174c900" x="144" y="204.09287" style="stroke: #000000; stroke-width: 0.8"/>
      </g>
     </g>
     <g id="text_10">
      <!-- 0.6 -->
      <g transform="translate(121.096875 207.892088) scale(0.1 -0.1)">
       <defs>
        <path id="DejaVuSans-36" d="M 2113 2584 
Q 1688 2584 1439 2293 
Q 1191 2003 1191 1497 
Q 1191 994 1439 701 
Q 1688 409 2113 409 
Q 2538 409 2786 701 
Q 3034 994 3034 1497 
Q 3034 2003 2786 2293 
Q 2538 2584 2113 2584 
z
M 3366 4563 
L 3366 3988 
Q 3128 4100 2886 4159 
Q 2644 4219 2406 4219 
Q 1781 4219 1451 3797 
Q 1122 3375 1075 2522 
Q 1259 2794 1537 2939 
Q 1816 3084 2150 3084 
Q 2853 3084 3261 2657 
Q 3669 2231 3669 1497 
Q 3669 778 3244 343 
Q 2819 -91 2113 -91 
Q 1303 -91 875 529 
Q 447 1150 447 2328 
Q 447 3434 972 4092 
Q 1497 4750 2381 4750 
Q 2619 4750 2861 4703 
Q 3103 4656 3366 4563 
z
" transform="scale(0.015625)"/>
       </defs>
       <use xlink:href="#DejaVuSans-30"/>
       <use xlink:href="#DejaVuSans-2e" x="63.623047"/>
       <use xlink:href="#DejaVuSans-36" x="95.410156"/>
      </g>
     </g>
    </g>
    <g id="ytick_4">
     <g id="line2d_11">
      <g>
       <use xlink:href="#m37b174c900" x="144" y="169.021428" style="stroke: #000000; stroke-width: 0.8"/>
      </g>
     </g>
     <g id="text_11">
      <!-- 0.8 -->
      <g transform="translate(121.096875 172.820647) scale(0.1 -0.1)">
       <use xlink:href="#DejaVuSans-30"/>
       <use xlink:href="#DejaVuSans-2e" x="63.623047"/>
       <use xlink:href="#DejaVuSans-38" x="95.410156"/>
      </g>
     </g>
    </g>
    <g id="ytick_5">
     <g id="line2d_12">
      <g>
       <use xlink:href="#m37b174c900" x="144" y="133.949986" style="stroke: #000000; stroke-width: 0.8"/>
      </g>
     </g>
     <g id="text_12">
      <!-- 1.0 -->
      <g transform="translate(121.096875 137.749205) scale(0.1 -0.1)">
       <use xlink:href="#DejaVuSans-31"/>
       <use xlink:href="#DejaVuSans-2e" x="63.623047"/>
       <use xlink:href="#DejaVuSans-30" x="95.410156"/>
      </g>
     </g>
    </g>
    <g id="text_13">
     <!-- 1e6 -->
     <g transform="translate(144 100.68) scale(0.1 -0.1)">
      <defs>
       <path id="DejaVuSans-65" d="M 3597 1894 
L 3597 1613 
L 953 1613 
Q 991 1019 1311 708 
Q 1631 397 2203 397 
Q 2534 397 2845 478 
Q 3156 559 3463 722 
L 3463 178 
Q 3153 47 2828 -22 
Q 2503 -91 2169 -91 
Q 1331 -91 842 396 
Q 353 884 353 1716 
Q 353 2575 817 3079 
Q 1281 3584 2069 3584 
Q 2775 3584 3186 3129 
Q 3597 2675 3597 1894 
z
M 3022 2063 
Q 3016 2534 2758 2815 
Q 2500 3097 2075 3097 
Q 1594 3097 1305 2825 
Q 1016 2553 972 2059 
L 3022 2063 
z
" transform="scale(0.015625)"/>
      </defs>
      <use xlink:href="#DejaVuSans-31"/>
      <use xlink:href="#DejaVuSans-65" x="63.623047"/>
      <use xlink:href="#DejaVuSans-36" x="125.146484"/>
     </g>
    </g>
   </g>
   <g id="line2d_13">
    <path d="M 184.581818 290.456471 
L 196.065491 284.233745 
L 207.549164 283.899514 
L 217.921514 267.265304 
L 229.405187 267.271442 
L 240.518418 274.009192 
L 252.002091 284.107137 
L 263.115323 279.323918 
L 274.598996 277.26768 
L 286.082669 278.441521 
L 297.195901 278.79732 
L 308.679573 276.466999 
L 319.792805 280.660315 
L 331.276478 281.099761 
L 342.760151 278.43626 
L 353.132501 265.962225 
L 364.616174 264.734374 
L 375.729405 262.854895 
L 387.213078 268.193996 
L 398.32631 267.958842 
L 409.809983 267.337902 
L 421.293656 270.428573 
L 432.406888 270.112404 
L 443.890561 266.312063 
L 455.003792 271.85826 
L 466.487465 277.518616 
L 477.971138 269.752045 
L 488.343488 262.780719 
L 499.827161 250.776291 
L 510.940393 225.046653 
L 522.424065 164.251186 
L 533.537297 244.748387 
L 545.02097 243.841264 
L 556.504643 258.159881 
L 567.617875 267.608303 
L 579.101548 258.668242 
L 590.214779 258.364348 
L 601.698452 264.784877 
L 613.182125 258.706294 
L 623.924916 258.935662 
L 635.408589 230.681056 
L 646.521821 219.906758 
L 658.005494 237.657818 
L 669.118725 245.622367 
L 680.602398 235.92108 
L 692.086071 241.078686 
L 703.199303 246.755174 
L 714.682976 235.03272 
L 725.796208 244.412753 
L 737.279881 245.993072 
L 748.763553 243.686949 
L 759.135903 206.556989 
L 770.619576 191.585166 
L 781.732808 189.565402 
L 793.216481 206.330603 
L 804.329712 208.111706 
L 815.813385 195.091258 
L 827.297058 191.919748 
L 838.41029 192.470194 
L 849.893963 172.081236 
L 861.007195 195.782166 
L 872.490868 196.993182 
L 883.97454 211.172566 
L 894.34689 169.494191 
L 905.830563 114.90935 
L 916.943795 127.119297 
L 928.427468 155.377585 
L 939.5407 157.997246 
L 951.024372 112.62427 
L 962.508045 115.677239 
L 973.621277 112.574118 
L 985.10495 117.43046 
L 996.218182 122.629801 
" clip-path="url(#p2030d93144)" style="fill: none; stroke: #1f77b4; stroke-width: 1.5; stroke-linecap: square"/>
   </g>
   <g id="line2d_14">
    <path d="M 827.297058 299.350588 
L 827.297058 -1 
" clip-path="url(#p2030d93144)" style="fill: none; stroke-dasharray: 5.55,2.4; stroke-dashoffset: 0; stroke: #ff0000; stroke-width: 1.5"/>
   </g>
   <g id="line2d_15">
    <path d="M 872.490868 299.350588 
L 872.490868 -1 
" clip-path="url(#p2030d93144)" style="fill: none; stroke-dasharray: 5.55,2.4; stroke-dashoffset: 0; stroke: #ff0000; stroke-width: 1.5"/>
   </g>
   <g id="patch_3">
    <path d="M 144 299.350588 
L 144 103.68 
" style="fill: none; stroke: #000000; stroke-width: 0.8; stroke-linejoin: miter; stroke-linecap: square"/>
   </g>
   <g id="patch_4">
    <path d="M 1036.8 299.350588 
L 1036.8 103.68 
" style="fill: none; stroke: #000000; stroke-width: 0.8; stroke-linejoin: miter; stroke-linecap: square"/>
   </g>
   <g id="patch_5">
    <path d="M 144 299.350588 
L 1036.8 299.350588 
" style="fill: none; stroke: #000000; stroke-width: 0.8; stroke-linejoin: miter; stroke-linecap: square"/>
   </g>
   <g id="patch_6">
    <path d="M 144 103.68 
L 1036.8 103.68 
" style="fill: none; stroke: #000000; stroke-width: 0.8; stroke-linejoin: miter; stroke-linecap: square"/>
   </g>
   <g id="text_14">
    <!-- Newbalanceca_month Sessions -->
    <g transform="translate(496.315313 97.68) scale(0.12 -0.12)">
     <defs>
      <path id="DejaVuSans-4e" d="M 628 4666 
L 1478 4666 
L 3547 763 
L 3547 4666 
L 4159 4666 
L 4159 0 
L 3309 0 
L 1241 3903 
L 1241 0 
L 628 0 
L 628 4666 
z
" transform="scale(0.015625)"/>
      <path id="DejaVuSans-77" d="M 269 3500 
L 844 3500 
L 1563 769 
L 2278 3500 
L 2956 3500 
L 3675 769 
L 4391 3500 
L 4966 3500 
L 4050 0 
L 3372 0 
L 2619 2869 
L 1863 0 
L 1184 0 
L 269 3500 
z
" transform="scale(0.015625)"/>
      <path id="DejaVuSans-62" d="M 3116 1747 
Q 3116 2381 2855 2742 
Q 2594 3103 2138 3103 
Q 1681 3103 1420 2742 
Q 1159 2381 1159 1747 
Q 1159 1113 1420 752 
Q 1681 391 2138 391 
Q 2594 391 2855 752 
Q 3116 1113 3116 1747 
z
M 1159 2969 
Q 1341 3281 1617 3432 
Q 1894 3584 2278 3584 
Q 2916 3584 3314 3078 
Q 3713 2572 3713 1747 
Q 3713 922 3314 415 
Q 2916 -91 2278 -91 
Q 1894 -91 1617 61 
Q 1341 213 1159 525 
L 1159 0 
L 581 0 
L 581 4863 
L 1159 4863 
L 1159 2969 
z
" transform="scale(0.015625)"/>
      <path id="DejaVuSans-61" d="M 2194 1759 
Q 1497 1759 1228 1600 
Q 959 1441 959 1056 
Q 959 750 1161 570 
Q 1363 391 1709 391 
Q 2188 391 2477 730 
Q 2766 1069 2766 1631 
L 2766 1759 
L 2194 1759 
z
M 3341 1997 
L 3341 0 
L 2766 0 
L 2766 531 
Q 2569 213 2275 61 
Q 1981 -91 1556 -91 
Q 1019 -91 701 211 
Q 384 513 384 1019 
Q 384 1609 779 1909 
Q 1175 2209 1959 2209 
L 2766 2209 
L 2766 2266 
Q 2766 2663 2505 2880 
Q 2244 3097 1772 3097 
Q 1472 3097 1187 3025 
Q 903 2953 641 2809 
L 641 3341 
Q 956 3463 1253 3523 
Q 1550 3584 1831 3584 
Q 2591 3584 2966 3190 
Q 3341 2797 3341 1997 
z
" transform="scale(0.015625)"/>
      <path id="DejaVuSans-6c" d="M 603 4863 
L 1178 4863 
L 1178 0 
L 603 0 
L 603 4863 
z
" transform="scale(0.015625)"/>
      <path id="DejaVuSans-6e" d="M 3513 2113 
L 3513 0 
L 2938 0 
L 2938 2094 
Q 2938 2591 2744 2837 
Q 2550 3084 2163 3084 
Q 1697 3084 1428 2787 
Q 1159 2491 1159 1978 
L 1159 0 
L 581 0 
L 581 3500 
L 1159 3500 
L 1159 2956 
Q 1366 3272 1645 3428 
Q 1925 3584 2291 3584 
Q 2894 3584 3203 3211 
Q 3513 2838 3513 2113 
z
" transform="scale(0.015625)"/>
      <path id="DejaVuSans-63" d="M 3122 3366 
L 3122 2828 
Q 2878 2963 2633 3030 
Q 2388 3097 2138 3097 
Q 1578 3097 1268 2742 
Q 959 2388 959 1747 
Q 959 1106 1268 751 
Q 1578 397 2138 397 
Q 2388 397 2633 464 
Q 2878 531 3122 666 
L 3122 134 
Q 2881 22 2623 -34 
Q 2366 -91 2075 -91 
Q 1284 -91 818 406 
Q 353 903 353 1747 
Q 353 2603 823 3093 
Q 1294 3584 2113 3584 
Q 2378 3584 2631 3529 
Q 2884 3475 3122 3366 
z
" transform="scale(0.015625)"/>
      <path id="DejaVuSans-5f" d="M 3263 -1063 
L 3263 -1509 
L -63 -1509 
L -63 -1063 
L 3263 -1063 
z
" transform="scale(0.015625)"/>
      <path id="DejaVuSans-6d" d="M 3328 2828 
Q 3544 3216 3844 3400 
Q 4144 3584 4550 3584 
Q 5097 3584 5394 3201 
Q 5691 2819 5691 2113 
L 5691 0 
L 5113 0 
L 5113 2094 
Q 5113 2597 4934 2840 
Q 4756 3084 4391 3084 
Q 3944 3084 3684 2787 
Q 3425 2491 3425 1978 
L 3425 0 
L 2847 0 
L 2847 2094 
Q 2847 2600 2669 2842 
Q 2491 3084 2119 3084 
Q 1678 3084 1418 2786 
Q 1159 2488 1159 1978 
L 1159 0 
L 581 0 
L 581 3500 
L 1159 3500 
L 1159 2956 
Q 1356 3278 1631 3431 
Q 1906 3584 2284 3584 
Q 2666 3584 2933 3390 
Q 3200 3197 3328 2828 
z
" transform="scale(0.015625)"/>
      <path id="DejaVuSans-6f" d="M 1959 3097 
Q 1497 3097 1228 2736 
Q 959 2375 959 1747 
Q 959 1119 1226 758 
Q 1494 397 1959 397 
Q 2419 397 2687 759 
Q 2956 1122 2956 1747 
Q 2956 2369 2687 2733 
Q 2419 3097 1959 3097 
z
M 1959 3584 
Q 2709 3584 3137 3096 
Q 3566 2609 3566 1747 
Q 3566 888 3137 398 
Q 2709 -91 1959 -91 
Q 1206 -91 779 398 
Q 353 888 353 1747 
Q 353 2609 779 3096 
Q 1206 3584 1959 3584 
z
" transform="scale(0.015625)"/>
      <path id="DejaVuSans-74" d="M 1172 4494 
L 1172 3500 
L 2356 3500 
L 2356 3053 
L 1172 3053 
L 1172 1153 
Q 1172 725 1289 603 
Q 1406 481 1766 481 
L 2356 481 
L 2356 0 
L 1766 0 
Q 1100 0 847 248 
Q 594 497 594 1153 
L 594 3053 
L 172 3053 
L 172 3500 
L 594 3500 
L 594 4494 
L 1172 4494 
z
" transform="scale(0.015625)"/>
      <path id="DejaVuSans-68" d="M 3513 2113 
L 3513 0 
L 2938 0 
L 2938 2094 
Q 2938 2591 2744 2837 
Q 2550 3084 2163 3084 
Q 1697 3084 1428 2787 
Q 1159 2491 1159 1978 
L 1159 0 
L 581 0 
L 581 4863 
L 1159 4863 
L 1159 2956 
Q 1366 3272 1645 3428 
Q 1925 3584 2291 3584 
Q 2894 3584 3203 3211 
Q 3513 2838 3513 2113 
z
" transform="scale(0.015625)"/>
      <path id="DejaVuSans-20" transform="scale(0.015625)"/>
      <path id="DejaVuSans-53" d="M 3425 4513 
L 3425 3897 
Q 3066 4069 2747 4153 
Q 2428 4238 2131 4238 
Q 1616 4238 1336 4038 
Q 1056 3838 1056 3469 
Q 1056 3159 1242 3001 
Q 1428 2844 1947 2747 
L 2328 2669 
Q 3034 2534 3370 2195 
Q 3706 1856 3706 1288 
Q 3706 609 3251 259 
Q 2797 -91 1919 -91 
Q 1588 -91 1214 -16 
Q 841 59 441 206 
L 441 856 
Q 825 641 1194 531 
Q 1563 422 1919 422 
Q 2459 422 2753 634 
Q 3047 847 3047 1241 
Q 3047 1584 2836 1778 
Q 2625 1972 2144 2069 
L 1759 2144 
Q 1053 2284 737 2584 
Q 422 2884 422 3419 
Q 422 4038 858 4394 
Q 1294 4750 2059 4750 
Q 2388 4750 2728 4690 
Q 3069 4631 3425 4513 
z
" transform="scale(0.015625)"/>
      <path id="DejaVuSans-73" d="M 2834 3397 
L 2834 2853 
Q 2591 2978 2328 3040 
Q 2066 3103 1784 3103 
Q 1356 3103 1142 2972 
Q 928 2841 928 2578 
Q 928 2378 1081 2264 
Q 1234 2150 1697 2047 
L 1894 2003 
Q 2506 1872 2764 1633 
Q 3022 1394 3022 966 
Q 3022 478 2636 193 
Q 2250 -91 1575 -91 
Q 1294 -91 989 -36 
Q 684 19 347 128 
L 347 722 
Q 666 556 975 473 
Q 1284 391 1588 391 
Q 1994 391 2212 530 
Q 2431 669 2431 922 
Q 2431 1156 2273 1281 
Q 2116 1406 1581 1522 
L 1381 1569 
Q 847 1681 609 1914 
Q 372 2147 372 2553 
Q 372 3047 722 3315 
Q 1072 3584 1716 3584 
Q 2034 3584 2315 3537 
Q 2597 3491 2834 3397 
z
" transform="scale(0.015625)"/>
      <path id="DejaVuSans-69" d="M 603 3500 
L 1178 3500 
L 1178 0 
L 603 0 
L 603 3500 
z
M 603 4863 
L 1178 4863 
L 1178 4134 
L 603 4134 
L 603 4863 
z
" transform="scale(0.015625)"/>
     </defs>
     <use xlink:href="#DejaVuSans-4e"/>
     <use xlink:href="#DejaVuSans-65" x="74.804688"/>
     <use xlink:href="#DejaVuSans-77" x="136.328125"/>
     <use xlink:href="#DejaVuSans-62" x="218.115234"/>
     <use xlink:href="#DejaVuSans-61" x="281.591797"/>
     <use xlink:href="#DejaVuSans-6c" x="342.871094"/>
     <use xlink:href="#DejaVuSans-61" x="370.654297"/>
     <use xlink:href="#DejaVuSans-6e" x="431.933594"/>
     <use xlink:href="#DejaVuSans-63" x="495.3125"/>
     <use xlink:href="#DejaVuSans-65" x="550.292969"/>
     <use xlink:href="#DejaVuSans-63" x="611.816406"/>
     <use xlink:href="#DejaVuSans-61" x="666.796875"/>
     <use xlink:href="#DejaVuSans-5f" x="728.076172"/>
     <use xlink:href="#DejaVuSans-6d" x="778.076172"/>
     <use xlink:href="#DejaVuSans-6f" x="875.488281"/>
     <use xlink:href="#DejaVuSans-6e" x="936.669922"/>
     <use xlink:href="#DejaVuSans-74" x="1000.048828"/>
     <use xlink:href="#DejaVuSans-68" x="1039.257812"/>
     <use xlink:href="#DejaVuSans-20" x="1102.636719"/>
     <use xlink:href="#DejaVuSans-53" x="1134.423828"/>
     <use xlink:href="#DejaVuSans-65" x="1197.900391"/>
     <use xlink:href="#DejaVuSans-73" x="1259.423828"/>
     <use xlink:href="#DejaVuSans-73" x="1311.523438"/>
     <use xlink:href="#DejaVuSans-69" x="1363.623047"/>
     <use xlink:href="#DejaVuSans-6f" x="1391.40625"/>
     <use xlink:href="#DejaVuSans-6e" x="1452.587891"/>
     <use xlink:href="#DejaVuSans-73" x="1515.966797"/>
    </g>
   </g>
   <g id="legend_1">
    <g id="patch_7">
     <path d="M 151 141.03625 
L 249.420313 141.03625 
Q 251.420313 141.03625 251.420313 139.03625 
L 251.420313 110.68 
Q 251.420313 108.68 249.420313 108.68 
L 151 108.68 
Q 149 108.68 149 110.68 
L 149 139.03625 
Q 149 141.03625 151 141.03625 
z
" style="fill: #ffffff; opacity: 0.8; stroke: #cccccc; stroke-linejoin: miter"/>
    </g>
    <g id="line2d_16">
     <path d="M 153 116.778437 
L 163 116.778437 
L 173 116.778437 
" style="fill: none; stroke: #1f77b4; stroke-width: 1.5; stroke-linecap: square"/>
    </g>
    <g id="text_15">
     <!-- Sessions -->
     <g transform="translate(181 120.278437) scale(0.1 -0.1)">
      <use xlink:href="#DejaVuSans-53"/>
      <use xlink:href="#DejaVuSans-65" x="63.476562"/>
      <use xlink:href="#DejaVuSans-73" x="125"/>
      <use xlink:href="#DejaVuSans-73" x="177.099609"/>
      <use xlink:href="#DejaVuSans-69" x="229.199219"/>
      <use xlink:href="#DejaVuSans-6f" x="256.982422"/>
      <use xlink:href="#DejaVuSans-6e" x="318.164062"/>
      <use xlink:href="#DejaVuSans-73" x="381.542969"/>
     </g>
    </g>
    <g id="line2d_17">
     <path d="M 153 131.456562 
L 163 131.456562 
L 173 131.456562 
" style="fill: none; stroke-dasharray: 5.55,2.4; stroke-dashoffset: 0; stroke: #ff0000; stroke-width: 1.5"/>
    </g>
    <g id="text_16">
     <!-- Thanksgiving -->
     <g transform="translate(181 134.956562) scale(0.1 -0.1)">
      <defs>
       <path id="DejaVuSans-54" d="M -19 4666 
L 3928 4666 
L 3928 4134 
L 2272 4134 
L 2272 0 
L 1638 0 
L 1638 4134 
L -19 4134 
L -19 4666 
z
" transform="scale(0.015625)"/>
       <path id="DejaVuSans-6b" d="M 581 4863 
L 1159 4863 
L 1159 1991 
L 2875 3500 
L 3609 3500 
L 1753 1863 
L 3688 0 
L 2938 0 
L 1159 1709 
L 1159 0 
L 581 0 
L 581 4863 
z
" transform="scale(0.015625)"/>
       <path id="DejaVuSans-67" d="M 2906 1791 
Q 2906 2416 2648 2759 
Q 2391 3103 1925 3103 
Q 1463 3103 1205 2759 
Q 947 2416 947 1791 
Q 947 1169 1205 825 
Q 1463 481 1925 481 
Q 2391 481 2648 825 
Q 2906 1169 2906 1791 
z
M 3481 434 
Q 3481 -459 3084 -895 
Q 2688 -1331 1869 -1331 
Q 1566 -1331 1297 -1286 
Q 1028 -1241 775 -1147 
L 775 -588 
Q 1028 -725 1275 -790 
Q 1522 -856 1778 -856 
Q 2344 -856 2625 -561 
Q 2906 -266 2906 331 
L 2906 616 
Q 2728 306 2450 153 
Q 2172 0 1784 0 
Q 1141 0 747 490 
Q 353 981 353 1791 
Q 353 2603 747 3093 
Q 1141 3584 1784 3584 
Q 2172 3584 2450 3431 
Q 2728 3278 2906 2969 
L 2906 3500 
L 3481 3500 
L 3481 434 
z
" transform="scale(0.015625)"/>
       <path id="DejaVuSans-76" d="M 191 3500 
L 800 3500 
L 1894 563 
L 2988 3500 
L 3597 3500 
L 2284 0 
L 1503 0 
L 191 3500 
z
" transform="scale(0.015625)"/>
      </defs>
      <use xlink:href="#DejaVuSans-54"/>
      <use xlink:href="#DejaVuSans-68" x="61.083984"/>
      <use xlink:href="#DejaVuSans-61" x="124.462891"/>
      <use xlink:href="#DejaVuSans-6e" x="185.742188"/>
      <use xlink:href="#DejaVuSans-6b" x="249.121094"/>
      <use xlink:href="#DejaVuSans-73" x="307.03125"/>
      <use xlink:href="#DejaVuSans-67" x="359.130859"/>
      <use xlink:href="#DejaVuSans-69" x="422.607422"/>
      <use xlink:href="#DejaVuSans-76" x="450.390625"/>
      <use xlink:href="#DejaVuSans-69" x="509.570312"/>
      <use xlink:href="#DejaVuSans-6e" x="537.353516"/>
      <use xlink:href="#DejaVuSans-67" x="600.732422"/>
     </g>
    </g>
   </g>
  </g>
  <g id="axes_2">
   <g id="patch_8">
    <path d="M 144 534.155294 
L 1036.8 534.155294 
L 1036.8 338.484706 
L 144 338.484706 
z
" style="fill: #ffffff"/>
   </g>
   <g id="matplotlib.axis_3">
    <g id="xtick_8">
     <g id="line2d_18">
      <g>
       <use xlink:href="#mec5deae117" x="196.065491" y="534.155294" style="stroke: #000000; stroke-width: 0.8"/>
      </g>
     </g>
     <g id="text_17">
      <!-- 2017 -->
      <g transform="translate(183.340491 548.753732) scale(0.1 -0.1)">
       <use xlink:href="#DejaVuSans-32"/>
       <use xlink:href="#DejaVuSans-30" x="63.623047"/>
       <use xlink:href="#DejaVuSans-31" x="127.246094"/>
       <use xlink:href="#DejaVuSans-37" x="190.869141"/>
      </g>
     </g>
    </g>
    <g id="xtick_9">
     <g id="line2d_19">
      <g>
       <use xlink:href="#mec5deae117" x="331.276478" y="534.155294" style="stroke: #000000; stroke-width: 0.8"/>
      </g>
     </g>
     <g id="text_18">
      <!-- 2018 -->
      <g transform="translate(318.551478 548.753732) scale(0.1 -0.1)">
       <use xlink:href="#DejaVuSans-32"/>
       <use xlink:href="#DejaVuSans-30" x="63.623047"/>
       <use xlink:href="#DejaVuSans-31" x="127.246094"/>
       <use xlink:href="#DejaVuSans-38" x="190.869141"/>
      </g>
     </g>
    </g>
    <g id="xtick_10">
     <g id="line2d_20">
      <g>
       <use xlink:href="#mec5deae117" x="466.487465" y="534.155294" style="stroke: #000000; stroke-width: 0.8"/>
      </g>
     </g>
     <g id="text_19">
      <!-- 2019 -->
      <g transform="translate(453.762465 548.753732) scale(0.1 -0.1)">
       <use xlink:href="#DejaVuSans-32"/>
       <use xlink:href="#DejaVuSans-30" x="63.623047"/>
       <use xlink:href="#DejaVuSans-31" x="127.246094"/>
       <use xlink:href="#DejaVuSans-39" x="190.869141"/>
      </g>
     </g>
    </g>
    <g id="xtick_11">
     <g id="line2d_21">
      <g>
       <use xlink:href="#mec5deae117" x="601.698452" y="534.155294" style="stroke: #000000; stroke-width: 0.8"/>
      </g>
     </g>
     <g id="text_20">
      <!-- 2020 -->
      <g transform="translate(588.973452 548.753732) scale(0.1 -0.1)">
       <use xlink:href="#DejaVuSans-32"/>
       <use xlink:href="#DejaVuSans-30" x="63.623047"/>
       <use xlink:href="#DejaVuSans-32" x="127.246094"/>
       <use xlink:href="#DejaVuSans-30" x="190.869141"/>
      </g>
     </g>
    </g>
    <g id="xtick_12">
     <g id="line2d_22">
      <g>
       <use xlink:href="#mec5deae117" x="737.279881" y="534.155294" style="stroke: #000000; stroke-width: 0.8"/>
      </g>
     </g>
     <g id="text_21">
      <!-- 2021 -->
      <g transform="translate(724.554881 548.753732) scale(0.1 -0.1)">
       <use xlink:href="#DejaVuSans-32"/>
       <use xlink:href="#DejaVuSans-30" x="63.623047"/>
       <use xlink:href="#DejaVuSans-32" x="127.246094"/>
       <use xlink:href="#DejaVuSans-31" x="190.869141"/>
      </g>
     </g>
    </g>
    <g id="xtick_13">
     <g id="line2d_23">
      <g>
       <use xlink:href="#mec5deae117" x="872.490868" y="534.155294" style="stroke: #000000; stroke-width: 0.8"/>
      </g>
     </g>
     <g id="text_22">
      <!-- 2022 -->
      <g transform="translate(859.765868 548.753732) scale(0.1 -0.1)">
       <use xlink:href="#DejaVuSans-32"/>
       <use xlink:href="#DejaVuSans-30" x="63.623047"/>
       <use xlink:href="#DejaVuSans-32" x="127.246094"/>
       <use xlink:href="#DejaVuSans-32" x="190.869141"/>
      </g>
     </g>
    </g>
    <g id="xtick_14">
     <g id="line2d_24">
      <g>
       <use xlink:href="#mec5deae117" x="1007.701855" y="534.155294" style="stroke: #000000; stroke-width: 0.8"/>
      </g>
     </g>
     <g id="text_23">
      <!-- 2023 -->
      <g transform="translate(994.976855 548.753732) scale(0.1 -0.1)">
       <use xlink:href="#DejaVuSans-32"/>
       <use xlink:href="#DejaVuSans-30" x="63.623047"/>
       <use xlink:href="#DejaVuSans-32" x="127.246094"/>
       <use xlink:href="#DejaVuSans-33" x="190.869141"/>
      </g>
     </g>
    </g>
   </g>
   <g id="matplotlib.axis_4">
    <g id="ytick_6">
     <g id="line2d_25">
      <g>
       <use xlink:href="#m37b174c900" x="144" y="524.006253" style="stroke: #000000; stroke-width: 0.8"/>
      </g>
     </g>
     <g id="text_24">
      <!-- −0.8 -->
      <g transform="translate(112.717187 527.805472) scale(0.1 -0.1)">
       <defs>
        <path id="DejaVuSans-2212" d="M 678 2272 
L 4684 2272 
L 4684 1741 
L 678 1741 
L 678 2272 
z
" transform="scale(0.015625)"/>
       </defs>
       <use xlink:href="#DejaVuSans-2212"/>
       <use xlink:href="#DejaVuSans-30" x="83.789062"/>
       <use xlink:href="#DejaVuSans-2e" x="147.412109"/>
       <use xlink:href="#DejaVuSans-38" x="179.199219"/>
      </g>
     </g>
    </g>
    <g id="ytick_7">
     <g id="line2d_26">
      <g>
       <use xlink:href="#m37b174c900" x="144" y="497.706877" style="stroke: #000000; stroke-width: 0.8"/>
      </g>
     </g>
     <g id="text_25">
      <!-- −0.6 -->
      <g transform="translate(112.717187 501.506096) scale(0.1 -0.1)">
       <use xlink:href="#DejaVuSans-2212"/>
       <use xlink:href="#DejaVuSans-30" x="83.789062"/>
       <use xlink:href="#DejaVuSans-2e" x="147.412109"/>
       <use xlink:href="#DejaVuSans-36" x="179.199219"/>
      </g>
     </g>
    </g>
    <g id="ytick_8">
     <g id="line2d_27">
      <g>
       <use xlink:href="#m37b174c900" x="144" y="471.407502" style="stroke: #000000; stroke-width: 0.8"/>
      </g>
     </g>
     <g id="text_26">
      <!-- −0.4 -->
      <g transform="translate(112.717187 475.20672) scale(0.1 -0.1)">
       <use xlink:href="#DejaVuSans-2212"/>
       <use xlink:href="#DejaVuSans-30" x="83.789062"/>
       <use xlink:href="#DejaVuSans-2e" x="147.412109"/>
       <use xlink:href="#DejaVuSans-34" x="179.199219"/>
      </g>
     </g>
    </g>
    <g id="ytick_9">
     <g id="line2d_28">
      <g>
       <use xlink:href="#m37b174c900" x="144" y="445.108126" style="stroke: #000000; stroke-width: 0.8"/>
      </g>
     </g>
     <g id="text_27">
      <!-- −0.2 -->
      <g transform="translate(112.717187 448.907345) scale(0.1 -0.1)">
       <use xlink:href="#DejaVuSans-2212"/>
       <use xlink:href="#DejaVuSans-30" x="83.789062"/>
       <use xlink:href="#DejaVuSans-2e" x="147.412109"/>
       <use xlink:href="#DejaVuSans-32" x="179.199219"/>
      </g>
     </g>
    </g>
    <g id="ytick_10">
     <g id="line2d_29">
      <g>
       <use xlink:href="#m37b174c900" x="144" y="418.80875" style="stroke: #000000; stroke-width: 0.8"/>
      </g>
     </g>
     <g id="text_28">
      <!-- 0.0 -->
      <g transform="translate(121.096875 422.607969) scale(0.1 -0.1)">
       <use xlink:href="#DejaVuSans-30"/>
       <use xlink:href="#DejaVuSans-2e" x="63.623047"/>
       <use xlink:href="#DejaVuSans-30" x="95.410156"/>
      </g>
     </g>
    </g>
    <g id="ytick_11">
     <g id="line2d_30">
      <g>
       <use xlink:href="#m37b174c900" x="144" y="392.509375" style="stroke: #000000; stroke-width: 0.8"/>
      </g>
     </g>
     <g id="text_29">
      <!-- 0.2 -->
      <g transform="translate(121.096875 396.308593) scale(0.1 -0.1)">
       <use xlink:href="#DejaVuSans-30"/>
       <use xlink:href="#DejaVuSans-2e" x="63.623047"/>
       <use xlink:href="#DejaVuSans-32" x="95.410156"/>
      </g>
     </g>
    </g>
    <g id="ytick_12">
     <g id="line2d_31">
      <g>
       <use xlink:href="#m37b174c900" x="144" y="366.209999" style="stroke: #000000; stroke-width: 0.8"/>
      </g>
     </g>
     <g id="text_30">
      <!-- 0.4 -->
      <g transform="translate(121.096875 370.009218) scale(0.1 -0.1)">
       <use xlink:href="#DejaVuSans-30"/>
       <use xlink:href="#DejaVuSans-2e" x="63.623047"/>
       <use xlink:href="#DejaVuSans-34" x="95.410156"/>
      </g>
     </g>
    </g>
    <g id="ytick_13">
     <g id="line2d_32">
      <g>
       <use xlink:href="#m37b174c900" x="144" y="339.910623" style="stroke: #000000; stroke-width: 0.8"/>
      </g>
     </g>
     <g id="text_31">
      <!-- 0.6 -->
      <g transform="translate(121.096875 343.709842) scale(0.1 -0.1)">
       <use xlink:href="#DejaVuSans-30"/>
       <use xlink:href="#DejaVuSans-2e" x="63.623047"/>
       <use xlink:href="#DejaVuSans-36" x="95.410156"/>
      </g>
     </g>
    </g>
   </g>
   <g id="line2d_33">
    <path d="M 196.065491 381.298189 
L 207.549164 417.067468 
L 217.921514 352.584953 
L 229.405187 418.827948 
L 240.518418 441.780483 
L 252.002091 463.12058 
L 263.115323 395.95545 
L 274.598996 410.086534 
L 286.082669 423.71691 
L 297.195901 420.333367 
L 308.679573 409.130201 
L 319.792805 436.772374 
L 331.276478 420.841554 
L 342.760151 406.943846 
L 353.132501 374.181926 
L 364.616174 415.135567 
L 375.729405 413.377707 
L 387.213078 434.864094 
L 398.32631 418.058774 
L 409.809983 416.848705 
L 421.293656 428.867432 
L 432.406888 417.743715 
L 443.890561 406.639627 
L 455.003792 436.969606 
L 466.487465 440.357299 
L 477.971138 390.065003 
L 488.343488 397.463438 
L 499.827161 388.625829 
L 510.940393 370.896707 
L 522.424065 347.378824 
L 533.537297 525.261176 
L 545.02097 416.973934 
L 556.504643 451.264797 
L 567.617875 445.66507 
L 579.101548 393.265935 
L 590.214779 418.021971 
L 601.698452 436.523189 
L 613.182125 401.979941 
L 623.924916 419.406163 
L 635.408589 360.256083 
L 646.521821 401.921742 
L 658.005494 447.914415 
L 669.118725 434.304093 
L 680.602398 400.164019 
L 692.086071 428.391224 
L 703.199303 430.231089 
L 714.682976 396.221688 
L 725.796208 436.561534 
L 737.279881 422.050617 
L 748.763553 414.104337 
L 759.135903 359.843369 
L 770.619576 400.921848 
L 781.732808 416.571785 
L 793.216481 438.643214 
L 804.329712 421.103045 
L 815.813385 402.892807 
L 827.297058 415.207164 
L 838.41029 419.426808 
L 849.893963 397.657597 
L 861.007195 443.741291 
L 872.490868 420.219015 
L 883.97454 436.55535 
L 894.34689 372.263386 
L 905.830563 375.467252 
L 916.943795 427.338722 
L 928.427468 440.971647 
L 939.5407 421.0659 
L 951.024372 384.322045 
L 962.508045 420.86589 
L 973.621277 416.718084 
L 985.10495 422.095477 
L 996.218182 422.421127 
" clip-path="url(#p30bafd2adf)" style="fill: none; stroke: #1f77b4; stroke-width: 1.5; stroke-linecap: square"/>
   </g>
   <g id="LineCollection_1">
    <path d="M 184.581818 418.80875 
L 996.218182 418.80875 
" clip-path="url(#p30bafd2adf)" style="fill: none; stroke: #008000; stroke-width: 1.5"/>
   </g>
   <g id="line2d_34">
    <path d="M 827.297058 534.155294 
L 827.297058 -1 
" clip-path="url(#p30bafd2adf)" style="fill: none; stroke-dasharray: 5.55,2.4; stroke-dashoffset: 0; stroke: #ff0000; stroke-width: 1.5"/>
   </g>
   <g id="line2d_35">
    <path d="M 872.490868 534.155294 
L 872.490868 -1 
" clip-path="url(#p30bafd2adf)" style="fill: none; stroke-dasharray: 5.55,2.4; stroke-dashoffset: 0; stroke: #ff0000; stroke-width: 1.5"/>
   </g>
   <g id="patch_9">
    <path d="M 144 534.155294 
L 144 338.484706 
" style="fill: none; stroke: #000000; stroke-width: 0.8; stroke-linejoin: miter; stroke-linecap: square"/>
   </g>
   <g id="patch_10">
    <path d="M 1036.8 534.155294 
L 1036.8 338.484706 
" style="fill: none; stroke: #000000; stroke-width: 0.8; stroke-linejoin: miter; stroke-linecap: square"/>
   </g>
   <g id="patch_11">
    <path d="M 144 534.155294 
L 1036.8 534.155294 
" style="fill: none; stroke: #000000; stroke-width: 0.8; stroke-linejoin: miter; stroke-linecap: square"/>
   </g>
   <g id="patch_12">
    <path d="M 144 338.484706 
L 1036.8 338.484706 
" style="fill: none; stroke: #000000; stroke-width: 0.8; stroke-linejoin: miter; stroke-linecap: square"/>
   </g>
   <g id="text_32">
    <!-- Newbalanceca_month Monthly diff of Sessions -->
    <g transform="translate(451.0875 332.484706) scale(0.12 -0.12)">
     <defs>
      <path id="DejaVuSans-4d" d="M 628 4666 
L 1569 4666 
L 2759 1491 
L 3956 4666 
L 4897 4666 
L 4897 0 
L 4281 0 
L 4281 4097 
L 3078 897 
L 2444 897 
L 1241 4097 
L 1241 0 
L 628 0 
L 628 4666 
z
" transform="scale(0.015625)"/>
      <path id="DejaVuSans-79" d="M 2059 -325 
Q 1816 -950 1584 -1140 
Q 1353 -1331 966 -1331 
L 506 -1331 
L 506 -850 
L 844 -850 
Q 1081 -850 1212 -737 
Q 1344 -625 1503 -206 
L 1606 56 
L 191 3500 
L 800 3500 
L 1894 763 
L 2988 3500 
L 3597 3500 
L 2059 -325 
z
" transform="scale(0.015625)"/>
      <path id="DejaVuSans-64" d="M 2906 2969 
L 2906 4863 
L 3481 4863 
L 3481 0 
L 2906 0 
L 2906 525 
Q 2725 213 2448 61 
Q 2172 -91 1784 -91 
Q 1150 -91 751 415 
Q 353 922 353 1747 
Q 353 2572 751 3078 
Q 1150 3584 1784 3584 
Q 2172 3584 2448 3432 
Q 2725 3281 2906 2969 
z
M 947 1747 
Q 947 1113 1208 752 
Q 1469 391 1925 391 
Q 2381 391 2643 752 
Q 2906 1113 2906 1747 
Q 2906 2381 2643 2742 
Q 2381 3103 1925 3103 
Q 1469 3103 1208 2742 
Q 947 2381 947 1747 
z
" transform="scale(0.015625)"/>
      <path id="DejaVuSans-66" d="M 2375 4863 
L 2375 4384 
L 1825 4384 
Q 1516 4384 1395 4259 
Q 1275 4134 1275 3809 
L 1275 3500 
L 2222 3500 
L 2222 3053 
L 1275 3053 
L 1275 0 
L 697 0 
L 697 3053 
L 147 3053 
L 147 3500 
L 697 3500 
L 697 3744 
Q 697 4328 969 4595 
Q 1241 4863 1831 4863 
L 2375 4863 
z
" transform="scale(0.015625)"/>
     </defs>
     <use xlink:href="#DejaVuSans-4e"/>
     <use xlink:href="#DejaVuSans-65" x="74.804688"/>
     <use xlink:href="#DejaVuSans-77" x="136.328125"/>
     <use xlink:href="#DejaVuSans-62" x="218.115234"/>
     <use xlink:href="#DejaVuSans-61" x="281.591797"/>
     <use xlink:href="#DejaVuSans-6c" x="342.871094"/>
     <use xlink:href="#DejaVuSans-61" x="370.654297"/>
     <use xlink:href="#DejaVuSans-6e" x="431.933594"/>
     <use xlink:href="#DejaVuSans-63" x="495.3125"/>
     <use xlink:href="#DejaVuSans-65" x="550.292969"/>
     <use xlink:href="#DejaVuSans-63" x="611.816406"/>
     <use xlink:href="#DejaVuSans-61" x="666.796875"/>
     <use xlink:href="#DejaVuSans-5f" x="728.076172"/>
     <use xlink:href="#DejaVuSans-6d" x="778.076172"/>
     <use xlink:href="#DejaVuSans-6f" x="875.488281"/>
     <use xlink:href="#DejaVuSans-6e" x="936.669922"/>
     <use xlink:href="#DejaVuSans-74" x="1000.048828"/>
     <use xlink:href="#DejaVuSans-68" x="1039.257812"/>
     <use xlink:href="#DejaVuSans-20" x="1102.636719"/>
     <use xlink:href="#DejaVuSans-4d" x="1134.423828"/>
     <use xlink:href="#DejaVuSans-6f" x="1220.703125"/>
     <use xlink:href="#DejaVuSans-6e" x="1281.884766"/>
     <use xlink:href="#DejaVuSans-74" x="1345.263672"/>
     <use xlink:href="#DejaVuSans-68" x="1384.472656"/>
     <use xlink:href="#DejaVuSans-6c" x="1447.851562"/>
     <use xlink:href="#DejaVuSans-79" x="1475.634766"/>
     <use xlink:href="#DejaVuSans-20" x="1534.814453"/>
     <use xlink:href="#DejaVuSans-64" x="1566.601562"/>
     <use xlink:href="#DejaVuSans-69" x="1630.078125"/>
     <use xlink:href="#DejaVuSans-66" x="1657.861328"/>
     <use xlink:href="#DejaVuSans-66" x="1693.066406"/>
     <use xlink:href="#DejaVuSans-20" x="1728.271484"/>
     <use xlink:href="#DejaVuSans-6f" x="1760.058594"/>
     <use xlink:href="#DejaVuSans-66" x="1821.240234"/>
     <use xlink:href="#DejaVuSans-20" x="1856.445312"/>
     <use xlink:href="#DejaVuSans-53" x="1888.232422"/>
     <use xlink:href="#DejaVuSans-65" x="1951.708984"/>
     <use xlink:href="#DejaVuSans-73" x="2013.232422"/>
     <use xlink:href="#DejaVuSans-73" x="2065.332031"/>
     <use xlink:href="#DejaVuSans-69" x="2117.431641"/>
     <use xlink:href="#DejaVuSans-6f" x="2145.214844"/>
     <use xlink:href="#DejaVuSans-6e" x="2206.396484"/>
     <use xlink:href="#DejaVuSans-73" x="2269.775391"/>
    </g>
   </g>
   <g id="legend_2">
    <g id="patch_13">
     <path d="M 151 529.155294 
L 301.74375 529.155294 
Q 303.74375 529.155294 303.74375 527.155294 
L 303.74375 498.799044 
Q 303.74375 496.799044 301.74375 496.799044 
L 151 496.799044 
Q 149 496.799044 149 498.799044 
L 149 527.155294 
Q 149 529.155294 151 529.155294 
z
" style="fill: #ffffff; opacity: 0.8; stroke: #cccccc; stroke-linejoin: miter"/>
    </g>
    <g id="line2d_36">
     <path d="M 153 504.897482 
L 163 504.897482 
L 173 504.897482 
" style="fill: none; stroke: #1f77b4; stroke-width: 1.5; stroke-linecap: square"/>
    </g>
    <g id="text_33">
     <!-- Monthly diff of Sessions -->
     <g transform="translate(181 508.397482) scale(0.1 -0.1)">
      <use xlink:href="#DejaVuSans-4d"/>
      <use xlink:href="#DejaVuSans-6f" x="86.279297"/>
      <use xlink:href="#DejaVuSans-6e" x="147.460938"/>
      <use xlink:href="#DejaVuSans-74" x="210.839844"/>
      <use xlink:href="#DejaVuSans-68" x="250.048828"/>
      <use xlink:href="#DejaVuSans-6c" x="313.427734"/>
      <use xlink:href="#DejaVuSans-79" x="341.210938"/>
      <use xlink:href="#DejaVuSans-20" x="400.390625"/>
      <use xlink:href="#DejaVuSans-64" x="432.177734"/>
      <use xlink:href="#DejaVuSans-69" x="495.654297"/>
      <use xlink:href="#DejaVuSans-66" x="523.4375"/>
      <use xlink:href="#DejaVuSans-66" x="558.642578"/>
      <use xlink:href="#DejaVuSans-20" x="593.847656"/>
      <use xlink:href="#DejaVuSans-6f" x="625.634766"/>
      <use xlink:href="#DejaVuSans-66" x="686.816406"/>
      <use xlink:href="#DejaVuSans-20" x="722.021484"/>
      <use xlink:href="#DejaVuSans-53" x="753.808594"/>
      <use xlink:href="#DejaVuSans-65" x="817.285156"/>
      <use xlink:href="#DejaVuSans-73" x="878.808594"/>
      <use xlink:href="#DejaVuSans-73" x="930.908203"/>
      <use xlink:href="#DejaVuSans-69" x="983.007812"/>
      <use xlink:href="#DejaVuSans-6f" x="1010.791016"/>
      <use xlink:href="#DejaVuSans-6e" x="1071.972656"/>
      <use xlink:href="#DejaVuSans-73" x="1135.351562"/>
     </g>
    </g>
    <g id="line2d_37">
     <path d="M 153 519.575607 
L 163 519.575607 
L 173 519.575607 
" style="fill: none; stroke-dasharray: 5.55,2.4; stroke-dashoffset: 0; stroke: #ff0000; stroke-width: 1.5"/>
    </g>
    <g id="text_34">
     <!-- Thanksgiving -->
     <g transform="translate(181 523.075607) scale(0.1 -0.1)">
      <use xlink:href="#DejaVuSans-54"/>
      <use xlink:href="#DejaVuSans-68" x="61.083984"/>
      <use xlink:href="#DejaVuSans-61" x="124.462891"/>
      <use xlink:href="#DejaVuSans-6e" x="185.742188"/>
      <use xlink:href="#DejaVuSans-6b" x="249.121094"/>
      <use xlink:href="#DejaVuSans-73" x="307.03125"/>
      <use xlink:href="#DejaVuSans-67" x="359.130859"/>
      <use xlink:href="#DejaVuSans-69" x="422.607422"/>
      <use xlink:href="#DejaVuSans-76" x="450.390625"/>
      <use xlink:href="#DejaVuSans-69" x="509.570312"/>
      <use xlink:href="#DejaVuSans-6e" x="537.353516"/>
      <use xlink:href="#DejaVuSans-67" x="600.732422"/>
     </g>
    </g>
   </g>
  </g>
  <g id="axes_3">
   <g id="patch_14">
    <path d="M 144 768.96 
L 1036.8 768.96 
L 1036.8 573.289412 
L 144 573.289412 
z
" style="fill: #ffffff"/>
   </g>
   <g id="matplotlib.axis_5">
    <g id="xtick_15">
     <g id="line2d_38">
      <g>
       <use xlink:href="#mec5deae117" x="196.065491" y="768.96" style="stroke: #000000; stroke-width: 0.8"/>
      </g>
     </g>
     <g id="text_35">
      <!-- 2017 -->
      <g transform="translate(183.340491 783.558437) scale(0.1 -0.1)">
       <use xlink:href="#DejaVuSans-32"/>
       <use xlink:href="#DejaVuSans-30" x="63.623047"/>
       <use xlink:href="#DejaVuSans-31" x="127.246094"/>
       <use xlink:href="#DejaVuSans-37" x="190.869141"/>
      </g>
     </g>
    </g>
    <g id="xtick_16">
     <g id="line2d_39">
      <g>
       <use xlink:href="#mec5deae117" x="331.276478" y="768.96" style="stroke: #000000; stroke-width: 0.8"/>
      </g>
     </g>
     <g id="text_36">
      <!-- 2018 -->
      <g transform="translate(318.551478 783.558437) scale(0.1 -0.1)">
       <use xlink:href="#DejaVuSans-32"/>
       <use xlink:href="#DejaVuSans-30" x="63.623047"/>
       <use xlink:href="#DejaVuSans-31" x="127.246094"/>
       <use xlink:href="#DejaVuSans-38" x="190.869141"/>
      </g>
     </g>
    </g>
    <g id="xtick_17">
     <g id="line2d_40">
      <g>
       <use xlink:href="#mec5deae117" x="466.487465" y="768.96" style="stroke: #000000; stroke-width: 0.8"/>
      </g>
     </g>
     <g id="text_37">
      <!-- 2019 -->
      <g transform="translate(453.762465 783.558437) scale(0.1 -0.1)">
       <use xlink:href="#DejaVuSans-32"/>
       <use xlink:href="#DejaVuSans-30" x="63.623047"/>
       <use xlink:href="#DejaVuSans-31" x="127.246094"/>
       <use xlink:href="#DejaVuSans-39" x="190.869141"/>
      </g>
     </g>
    </g>
    <g id="xtick_18">
     <g id="line2d_41">
      <g>
       <use xlink:href="#mec5deae117" x="601.698452" y="768.96" style="stroke: #000000; stroke-width: 0.8"/>
      </g>
     </g>
     <g id="text_38">
      <!-- 2020 -->
      <g transform="translate(588.973452 783.558437) scale(0.1 -0.1)">
       <use xlink:href="#DejaVuSans-32"/>
       <use xlink:href="#DejaVuSans-30" x="63.623047"/>
       <use xlink:href="#DejaVuSans-32" x="127.246094"/>
       <use xlink:href="#DejaVuSans-30" x="190.869141"/>
      </g>
     </g>
    </g>
    <g id="xtick_19">
     <g id="line2d_42">
      <g>
       <use xlink:href="#mec5deae117" x="737.279881" y="768.96" style="stroke: #000000; stroke-width: 0.8"/>
      </g>
     </g>
     <g id="text_39">
      <!-- 2021 -->
      <g transform="translate(724.554881 783.558437) scale(0.1 -0.1)">
       <use xlink:href="#DejaVuSans-32"/>
       <use xlink:href="#DejaVuSans-30" x="63.623047"/>
       <use xlink:href="#DejaVuSans-32" x="127.246094"/>
       <use xlink:href="#DejaVuSans-31" x="190.869141"/>
      </g>
     </g>
    </g>
    <g id="xtick_20">
     <g id="line2d_43">
      <g>
       <use xlink:href="#mec5deae117" x="872.490868" y="768.96" style="stroke: #000000; stroke-width: 0.8"/>
      </g>
     </g>
     <g id="text_40">
      <!-- 2022 -->
      <g transform="translate(859.765868 783.558437) scale(0.1 -0.1)">
       <use xlink:href="#DejaVuSans-32"/>
       <use xlink:href="#DejaVuSans-30" x="63.623047"/>
       <use xlink:href="#DejaVuSans-32" x="127.246094"/>
       <use xlink:href="#DejaVuSans-32" x="190.869141"/>
      </g>
     </g>
    </g>
    <g id="xtick_21">
     <g id="line2d_44">
      <g>
       <use xlink:href="#mec5deae117" x="1007.701855" y="768.96" style="stroke: #000000; stroke-width: 0.8"/>
      </g>
     </g>
     <g id="text_41">
      <!-- 2023 -->
      <g transform="translate(994.976855 783.558437) scale(0.1 -0.1)">
       <use xlink:href="#DejaVuSans-32"/>
       <use xlink:href="#DejaVuSans-30" x="63.623047"/>
       <use xlink:href="#DejaVuSans-32" x="127.246094"/>
       <use xlink:href="#DejaVuSans-33" x="190.869141"/>
      </g>
     </g>
    </g>
   </g>
   <g id="matplotlib.axis_6">
    <g id="ytick_14">
     <g id="line2d_45">
      <g>
       <use xlink:href="#m37b174c900" x="144" y="764.106839" style="stroke: #000000; stroke-width: 0.8"/>
      </g>
     </g>
     <g id="text_42">
      <!-- −0.75 -->
      <g transform="translate(106.354687 767.906058) scale(0.1 -0.1)">
       <defs>
        <path id="DejaVuSans-35" d="M 691 4666 
L 3169 4666 
L 3169 4134 
L 1269 4134 
L 1269 2991 
Q 1406 3038 1543 3061 
Q 1681 3084 1819 3084 
Q 2600 3084 3056 2656 
Q 3513 2228 3513 1497 
Q 3513 744 3044 326 
Q 2575 -91 1722 -91 
Q 1428 -91 1123 -41 
Q 819 9 494 109 
L 494 744 
Q 775 591 1075 516 
Q 1375 441 1709 441 
Q 2250 441 2565 725 
Q 2881 1009 2881 1497 
Q 2881 1984 2565 2268 
Q 2250 2553 1709 2553 
Q 1456 2553 1204 2497 
Q 953 2441 691 2322 
L 691 4666 
z
" transform="scale(0.015625)"/>
       </defs>
       <use xlink:href="#DejaVuSans-2212"/>
       <use xlink:href="#DejaVuSans-30" x="83.789062"/>
       <use xlink:href="#DejaVuSans-2e" x="147.412109"/>
       <use xlink:href="#DejaVuSans-37" x="179.199219"/>
       <use xlink:href="#DejaVuSans-35" x="242.822266"/>
      </g>
     </g>
    </g>
    <g id="ytick_15">
     <g id="line2d_46">
      <g>
       <use xlink:href="#m37b174c900" x="144" y="741.48846" style="stroke: #000000; stroke-width: 0.8"/>
      </g>
     </g>
     <g id="text_43">
      <!-- −0.50 -->
      <g transform="translate(106.354687 745.287678) scale(0.1 -0.1)">
       <use xlink:href="#DejaVuSans-2212"/>
       <use xlink:href="#DejaVuSans-30" x="83.789062"/>
       <use xlink:href="#DejaVuSans-2e" x="147.412109"/>
       <use xlink:href="#DejaVuSans-35" x="179.199219"/>
       <use xlink:href="#DejaVuSans-30" x="242.822266"/>
      </g>
     </g>
    </g>
    <g id="ytick_16">
     <g id="line2d_47">
      <g>
       <use xlink:href="#m37b174c900" x="144" y="718.87008" style="stroke: #000000; stroke-width: 0.8"/>
      </g>
     </g>
     <g id="text_44">
      <!-- −0.25 -->
      <g transform="translate(106.354687 722.669299) scale(0.1 -0.1)">
       <use xlink:href="#DejaVuSans-2212"/>
       <use xlink:href="#DejaVuSans-30" x="83.789062"/>
       <use xlink:href="#DejaVuSans-2e" x="147.412109"/>
       <use xlink:href="#DejaVuSans-32" x="179.199219"/>
       <use xlink:href="#DejaVuSans-35" x="242.822266"/>
      </g>
     </g>
    </g>
    <g id="ytick_17">
     <g id="line2d_48">
      <g>
       <use xlink:href="#m37b174c900" x="144" y="696.251701" style="stroke: #000000; stroke-width: 0.8"/>
      </g>
     </g>
     <g id="text_45">
      <!-- 0.00 -->
      <g transform="translate(114.734375 700.05092) scale(0.1 -0.1)">
       <use xlink:href="#DejaVuSans-30"/>
       <use xlink:href="#DejaVuSans-2e" x="63.623047"/>
       <use xlink:href="#DejaVuSans-30" x="95.410156"/>
       <use xlink:href="#DejaVuSans-30" x="159.033203"/>
      </g>
     </g>
    </g>
    <g id="ytick_18">
     <g id="line2d_49">
      <g>
       <use xlink:href="#m37b174c900" x="144" y="673.633322" style="stroke: #000000; stroke-width: 0.8"/>
      </g>
     </g>
     <g id="text_46">
      <!-- 0.25 -->
      <g transform="translate(114.734375 677.43254) scale(0.1 -0.1)">
       <use xlink:href="#DejaVuSans-30"/>
       <use xlink:href="#DejaVuSans-2e" x="63.623047"/>
       <use xlink:href="#DejaVuSans-32" x="95.410156"/>
       <use xlink:href="#DejaVuSans-35" x="159.033203"/>
      </g>
     </g>
    </g>
    <g id="ytick_19">
     <g id="line2d_50">
      <g>
       <use xlink:href="#m37b174c900" x="144" y="651.014942" style="stroke: #000000; stroke-width: 0.8"/>
      </g>
     </g>
     <g id="text_47">
      <!-- 0.50 -->
      <g transform="translate(114.734375 654.814161) scale(0.1 -0.1)">
       <use xlink:href="#DejaVuSans-30"/>
       <use xlink:href="#DejaVuSans-2e" x="63.623047"/>
       <use xlink:href="#DejaVuSans-35" x="95.410156"/>
       <use xlink:href="#DejaVuSans-30" x="159.033203"/>
      </g>
     </g>
    </g>
    <g id="ytick_20">
     <g id="line2d_51">
      <g>
       <use xlink:href="#m37b174c900" x="144" y="628.396563" style="stroke: #000000; stroke-width: 0.8"/>
      </g>
     </g>
     <g id="text_48">
      <!-- 0.75 -->
      <g transform="translate(114.734375 632.195782) scale(0.1 -0.1)">
       <use xlink:href="#DejaVuSans-30"/>
       <use xlink:href="#DejaVuSans-2e" x="63.623047"/>
       <use xlink:href="#DejaVuSans-37" x="95.410156"/>
       <use xlink:href="#DejaVuSans-35" x="159.033203"/>
      </g>
     </g>
    </g>
    <g id="ytick_21">
     <g id="line2d_52">
      <g>
       <use xlink:href="#m37b174c900" x="144" y="605.778184" style="stroke: #000000; stroke-width: 0.8"/>
      </g>
     </g>
     <g id="text_49">
      <!-- 1.00 -->
      <g transform="translate(114.734375 609.577402) scale(0.1 -0.1)">
       <use xlink:href="#DejaVuSans-31"/>
       <use xlink:href="#DejaVuSans-2e" x="63.623047"/>
       <use xlink:href="#DejaVuSans-30" x="95.410156"/>
       <use xlink:href="#DejaVuSans-30" x="159.033203"/>
      </g>
     </g>
    </g>
    <g id="ytick_22">
     <g id="line2d_53">
      <g>
       <use xlink:href="#m37b174c900" x="144" y="583.159804" style="stroke: #000000; stroke-width: 0.8"/>
      </g>
     </g>
     <g id="text_50">
      <!-- 1.25 -->
      <g transform="translate(114.734375 586.959023) scale(0.1 -0.1)">
       <use xlink:href="#DejaVuSans-31"/>
       <use xlink:href="#DejaVuSans-2e" x="63.623047"/>
       <use xlink:href="#DejaVuSans-32" x="95.410156"/>
       <use xlink:href="#DejaVuSans-35" x="159.033203"/>
      </g>
     </g>
    </g>
   </g>
   <g id="line2d_54">
    <path d="M 319.792805 658.389152 
L 331.276478 685.596088 
L 342.760151 678.630754 
L 353.132501 693.490074 
L 364.616174 690.949612 
L 375.729405 671.407711 
L 387.213078 651.966461 
L 398.32631 667.174164 
L 409.809983 671.826726 
L 421.293656 675.370428 
L 432.406888 673.588676 
L 443.890561 671.875092 
L 455.003792 672.010793 
L 466.487465 685.43817 
L 477.971138 673.825055 
L 488.343488 689.843384 
L 499.827161 671.603945 
L 510.940393 642.375834 
L 522.424065 582.183529 
L 533.537297 655.94177 
L 545.02097 656.027931 
L 556.504643 671.437942 
L 567.617875 690.648613 
L 579.101548 681.44714 
L 590.214779 668.410638 
L 601.698452 665.772664 
L 613.182125 673.970474 
L 623.924916 689.067681 
L 635.408589 669.548505 
L 646.521821 690.894594 
L 658.005494 760.065882 
L 669.118725 697.484874 
L 680.602398 685.919184 
L 692.086071 670.181529 
L 703.199303 659.56252 
L 714.682976 661.59616 
L 725.796208 674.351897 
L 737.279881 664.394364 
L 748.763553 672.736286 
L 759.135903 631.755424 
L 770.619576 659.734603 
L 781.732808 669.814241 
L 793.216481 663.435397 
L 804.329712 654.352708 
L 815.813385 656.23019 
L 827.297058 647.159189 
L 838.41029 639.725542 
L 849.893963 640.713487 
L 861.007195 645.653359 
L 872.490868 644.393166 
L 883.97454 659.840089 
L 894.34689 668.385406 
L 905.830563 650.871935 
L 916.943795 658.279888 
L 928.427468 659.881915 
L 939.5407 659.856359 
L 951.024372 647.079157 
L 962.508045 650.972518 
L 973.621277 649.108841 
L 985.10495 665.922783 
L 996.218182 651.253917 
" clip-path="url(#pdcf0b02a28)" style="fill: none; stroke: #1f77b4; stroke-width: 1.5; stroke-linecap: square"/>
   </g>
   <g id="LineCollection_2">
    <path d="M 184.581818 696.251701 
L 996.218182 696.251701 
" clip-path="url(#pdcf0b02a28)" style="fill: none; stroke: #008000; stroke-width: 1.5"/>
   </g>
   <g id="line2d_55">
    <path d="M 827.297058 768.96 
L 827.297058 -1 
" clip-path="url(#pdcf0b02a28)" style="fill: none; stroke-dasharray: 5.55,2.4; stroke-dashoffset: 0; stroke: #ff0000; stroke-width: 1.5"/>
   </g>
   <g id="line2d_56">
    <path d="M 872.490868 768.96 
L 872.490868 -1 
" clip-path="url(#pdcf0b02a28)" style="fill: none; stroke-dasharray: 5.55,2.4; stroke-dashoffset: 0; stroke: #ff0000; stroke-width: 1.5"/>
   </g>
   <g id="patch_15">
    <path d="M 144 768.96 
L 144 573.289412 
" style="fill: none; stroke: #000000; stroke-width: 0.8; stroke-linejoin: miter; stroke-linecap: square"/>
   </g>
   <g id="patch_16">
    <path d="M 1036.8 768.96 
L 1036.8 573.289412 
" style="fill: none; stroke: #000000; stroke-width: 0.8; stroke-linejoin: miter; stroke-linecap: square"/>
   </g>
   <g id="patch_17">
    <path d="M 144 768.96 
L 1036.8 768.96 
" style="fill: none; stroke: #000000; stroke-width: 0.8; stroke-linejoin: miter; stroke-linecap: square"/>
   </g>
   <g id="patch_18">
    <path d="M 144 573.289412 
L 1036.8 573.289412 
" style="fill: none; stroke: #000000; stroke-width: 0.8; stroke-linejoin: miter; stroke-linecap: square"/>
   </g>
   <g id="text_51">
    <!-- Newbalanceca_month Yearly diff of Sessions -->
    <g transform="translate(457.187812 567.289412) scale(0.12 -0.12)">
     <defs>
      <path id="DejaVuSans-59" d="M -13 4666 
L 666 4666 
L 1959 2747 
L 3244 4666 
L 3922 4666 
L 2272 2222 
L 2272 0 
L 1638 0 
L 1638 2222 
L -13 4666 
z
" transform="scale(0.015625)"/>
      <path id="DejaVuSans-72" d="M 2631 2963 
Q 2534 3019 2420 3045 
Q 2306 3072 2169 3072 
Q 1681 3072 1420 2755 
Q 1159 2438 1159 1844 
L 1159 0 
L 581 0 
L 581 3500 
L 1159 3500 
L 1159 2956 
Q 1341 3275 1631 3429 
Q 1922 3584 2338 3584 
Q 2397 3584 2469 3576 
Q 2541 3569 2628 3553 
L 2631 2963 
z
" transform="scale(0.015625)"/>
     </defs>
     <use xlink:href="#DejaVuSans-4e"/>
     <use xlink:href="#DejaVuSans-65" x="74.804688"/>
     <use xlink:href="#DejaVuSans-77" x="136.328125"/>
     <use xlink:href="#DejaVuSans-62" x="218.115234"/>
     <use xlink:href="#DejaVuSans-61" x="281.591797"/>
     <use xlink:href="#DejaVuSans-6c" x="342.871094"/>
     <use xlink:href="#DejaVuSans-61" x="370.654297"/>
     <use xlink:href="#DejaVuSans-6e" x="431.933594"/>
     <use xlink:href="#DejaVuSans-63" x="495.3125"/>
     <use xlink:href="#DejaVuSans-65" x="550.292969"/>
     <use xlink:href="#DejaVuSans-63" x="611.816406"/>
     <use xlink:href="#DejaVuSans-61" x="666.796875"/>
     <use xlink:href="#DejaVuSans-5f" x="728.076172"/>
     <use xlink:href="#DejaVuSans-6d" x="778.076172"/>
     <use xlink:href="#DejaVuSans-6f" x="875.488281"/>
     <use xlink:href="#DejaVuSans-6e" x="936.669922"/>
     <use xlink:href="#DejaVuSans-74" x="1000.048828"/>
     <use xlink:href="#DejaVuSans-68" x="1039.257812"/>
     <use xlink:href="#DejaVuSans-20" x="1102.636719"/>
     <use xlink:href="#DejaVuSans-59" x="1134.423828"/>
     <use xlink:href="#DejaVuSans-65" x="1182.257812"/>
     <use xlink:href="#DejaVuSans-61" x="1243.78125"/>
     <use xlink:href="#DejaVuSans-72" x="1305.060547"/>
     <use xlink:href="#DejaVuSans-6c" x="1346.173828"/>
     <use xlink:href="#DejaVuSans-79" x="1373.957031"/>
     <use xlink:href="#DejaVuSans-20" x="1433.136719"/>
     <use xlink:href="#DejaVuSans-64" x="1464.923828"/>
     <use xlink:href="#DejaVuSans-69" x="1528.400391"/>
     <use xlink:href="#DejaVuSans-66" x="1556.183594"/>
     <use xlink:href="#DejaVuSans-66" x="1591.388672"/>
     <use xlink:href="#DejaVuSans-20" x="1626.59375"/>
     <use xlink:href="#DejaVuSans-6f" x="1658.380859"/>
     <use xlink:href="#DejaVuSans-66" x="1719.5625"/>
     <use xlink:href="#DejaVuSans-20" x="1754.767578"/>
     <use xlink:href="#DejaVuSans-53" x="1786.554688"/>
     <use xlink:href="#DejaVuSans-65" x="1850.03125"/>
     <use xlink:href="#DejaVuSans-73" x="1911.554688"/>
     <use xlink:href="#DejaVuSans-73" x="1963.654297"/>
     <use xlink:href="#DejaVuSans-69" x="2015.753906"/>
     <use xlink:href="#DejaVuSans-6f" x="2043.537109"/>
     <use xlink:href="#DejaVuSans-6e" x="2104.71875"/>
     <use xlink:href="#DejaVuSans-73" x="2168.097656"/>
    </g>
   </g>
   <g id="legend_3">
    <g id="patch_19">
     <path d="M 897.920312 610.645662 
L 1029.8 610.645662 
Q 1031.8 610.645662 1031.8 608.645662 
L 1031.8 580.289412 
Q 1031.8 578.289412 1029.8 578.289412 
L 897.920312 578.289412 
Q 895.920312 578.289412 895.920312 580.289412 
L 895.920312 608.645662 
Q 895.920312 610.645662 897.920312 610.645662 
z
" style="fill: #ffffff; opacity: 0.8; stroke: #cccccc; stroke-linejoin: miter"/>
    </g>
    <g id="line2d_57">
     <path d="M 899.920312 586.387849 
L 909.920312 586.387849 
L 919.920312 586.387849 
" style="fill: none; stroke: #1f77b4; stroke-width: 1.5; stroke-linecap: square"/>
    </g>
    <g id="text_52">
     <!-- Year diff of Sessions -->
     <g transform="translate(927.920312 589.887849) scale(0.1 -0.1)">
      <use xlink:href="#DejaVuSans-59"/>
      <use xlink:href="#DejaVuSans-65" x="47.833984"/>
      <use xlink:href="#DejaVuSans-61" x="109.357422"/>
      <use xlink:href="#DejaVuSans-72" x="170.636719"/>
      <use xlink:href="#DejaVuSans-20" x="211.75"/>
      <use xlink:href="#DejaVuSans-64" x="243.537109"/>
      <use xlink:href="#DejaVuSans-69" x="307.013672"/>
      <use xlink:href="#DejaVuSans-66" x="334.796875"/>
      <use xlink:href="#DejaVuSans-66" x="370.001953"/>
      <use xlink:href="#DejaVuSans-20" x="405.207031"/>
      <use xlink:href="#DejaVuSans-6f" x="436.994141"/>
      <use xlink:href="#DejaVuSans-66" x="498.175781"/>
      <use xlink:href="#DejaVuSans-20" x="533.380859"/>
      <use xlink:href="#DejaVuSans-53" x="565.167969"/>
      <use xlink:href="#DejaVuSans-65" x="628.644531"/>
      <use xlink:href="#DejaVuSans-73" x="690.167969"/>
      <use xlink:href="#DejaVuSans-73" x="742.267578"/>
      <use xlink:href="#DejaVuSans-69" x="794.367188"/>
      <use xlink:href="#DejaVuSans-6f" x="822.150391"/>
      <use xlink:href="#DejaVuSans-6e" x="883.332031"/>
      <use xlink:href="#DejaVuSans-73" x="946.710938"/>
     </g>
    </g>
    <g id="line2d_58">
     <path d="M 899.920312 601.065974 
L 909.920312 601.065974 
L 919.920312 601.065974 
" style="fill: none; stroke-dasharray: 5.55,2.4; stroke-dashoffset: 0; stroke: #ff0000; stroke-width: 1.5"/>
    </g>
    <g id="text_53">
     <!-- Thanksgiving -->
     <g transform="translate(927.920312 604.565974) scale(0.1 -0.1)">
      <use xlink:href="#DejaVuSans-54"/>
      <use xlink:href="#DejaVuSans-68" x="61.083984"/>
      <use xlink:href="#DejaVuSans-61" x="124.462891"/>
      <use xlink:href="#DejaVuSans-6e" x="185.742188"/>
      <use xlink:href="#DejaVuSans-6b" x="249.121094"/>
      <use xlink:href="#DejaVuSans-73" x="307.03125"/>
      <use xlink:href="#DejaVuSans-67" x="359.130859"/>
      <use xlink:href="#DejaVuSans-69" x="422.607422"/>
      <use xlink:href="#DejaVuSans-76" x="450.390625"/>
      <use xlink:href="#DejaVuSans-69" x="509.570312"/>
      <use xlink:href="#DejaVuSans-6e" x="537.353516"/>
      <use xlink:href="#DejaVuSans-67" x="600.732422"/>
     </g>
    </g>
   </g>
  </g>
 </g>
 <defs>
  <clipPath id="p2030d93144">
   <rect x="144" y="103.68" width="892.8" height="195.670588"/>
  </clipPath>
  <clipPath id="p30bafd2adf">
   <rect x="144" y="338.484706" width="892.8" height="195.670588"/>
  </clipPath>
  <clipPath id="pdcf0b02a28">
   <rect x="144" y="573.289412" width="892.8" height="195.670588"/>
  </clipPath>
 </defs>
</svg>
